<svg width="834" height="850" viewBox="0 0 834 850" fill="none" xmlns="http://www.w3.org/2000/svg">
<path d="M427.014 757.797C337.589 757.797 253.516 723.055 190.283 659.971C127.05 596.886 92.226 513.012 92.226 423.796C92.226 334.581 127.05 250.706 190.283 187.621C253.516 124.536 337.589 89.7941 427.014 89.7941C516.439 89.7941 600.511 124.536 663.744 187.621C726.977 250.706 761.801 334.581 761.801 423.796C761.801 513.011 726.977 596.886 663.744 659.971C600.511 723.055 516.439 757.797 427.014 757.797ZM427.014 95.7811C339.192 95.7811 256.626 129.9 194.526 191.855C132.426 253.809 98.227 336.181 98.227 423.797C98.227 511.413 132.427 593.785 194.526 655.739C256.626 717.693 339.191 751.812 427.014 751.812C514.836 751.812 597.402 717.693 659.501 655.739C721.601 593.785 755.8 511.413 755.8 423.797C755.8 336.181 721.6 253.809 659.501 191.855C597.402 129.9 514.836 95.7811 427.014 95.7811Z" fill="white"/>
<path d="M429.581 53.192H424.446V92.787H429.581V53.192Z" fill="white"/>
<path d="M429.581 754.805H424.446V794.401H429.581V754.805Z" fill="white"/>
<path d="M367.178 73.7815L363.239 74.4779L367.422 98.1363L371.361 97.4399L367.178 73.7815Z" fill="white"/>
<path d="M486.568 749.389L482.629 750.085L486.81 773.744L490.749 773.048L486.568 749.389Z" fill="white"/>
<path d="M311.657 113.434L303.421 90.858L307.18 89.493L315.416 112.069L311.657 113.434Z" fill="white"/>
<path d="M546.849 758.102L538.612 735.527L542.371 734.162L550.608 756.737L546.849 758.102Z" fill="white"/>
<path d="M259.39 138.134L247.349 117.328L250.813 115.333L262.854 136.138L259.39 138.134Z" fill="white"/>
<path d="M603.217 732.262L591.177 711.457L594.641 709.462L606.681 730.267L603.217 732.262Z" fill="white"/>
<path d="M212.215 171.513L196.736 153.108L199.8 150.543L215.28 168.947L212.215 171.513Z" fill="white"/>
<path d="M654.231 697.053L638.752 678.648L641.816 676.083L657.295 694.487L654.231 697.053Z" fill="white"/>
<path d="M171.568 212.559L153.119 197.115L155.69 194.058L174.139 209.501L171.568 212.559Z" fill="white"/>
<path d="M698.341 653.537L679.893 638.094L682.465 635.037L700.912 650.48L698.341 653.537Z" fill="white"/>
<path d="M138.681 260.02L117.825 248.007L119.825 244.552L140.681 256.564L138.681 260.02Z" fill="white"/>
<path d="M734.208 603.041L713.353 591.028L715.353 587.573L736.208 599.585L734.208 603.041Z" fill="white"/>
<path d="M114.556 312.458L91.926 304.244L93.293 300.494L115.923 308.708L114.556 312.458Z" fill="white"/>
<path d="M760.74 547.099L738.111 538.882L739.479 535.132L762.108 543.349L760.74 547.099Z" fill="white"/>
<path d="M76.8998 360.187L76.2089 364.118L99.9243 368.286L100.615 364.355L76.8998 360.187Z" fill="white"/>
<path d="M754.107 479.286L753.416 483.217L777.131 487.387L777.822 483.457L754.107 479.286Z" fill="white"/>
<path d="M95.231 421.234H55.542V426.357H95.231V421.234Z" fill="white"/>
<path d="M798.494 421.235H758.806V426.358H798.494V421.235Z" fill="white"/>
<path d="M99.9573 479.321L76.2434 483.511L76.9378 487.441L100.652 483.251L99.9573 479.321Z" fill="white"/>
<path d="M777.194 360.161L753.48 364.35L754.175 368.281L777.888 364.091L777.194 360.161Z" fill="white"/>
<path d="M93.295 547.099L91.927 543.349L114.556 535.13L115.924 538.88L93.295 547.099Z" fill="white"/>
<path d="M739.479 312.458L738.111 308.708L760.74 300.491L762.108 304.241L739.479 312.458Z" fill="white"/>
<path d="M119.827 603.038L117.827 599.582L138.682 587.57L140.682 591.026L119.827 603.038Z" fill="white"/>
<path d="M715.353 260.017L713.353 256.561L734.208 244.549L736.208 248.005L715.353 260.017Z" fill="white"/>
<path d="M155.693 653.532L153.122 650.475L171.569 635.032L174.141 638.089L155.693 653.532Z" fill="white"/>
<path d="M682.467 212.553L679.896 209.496L698.343 194.053L700.915 197.11L682.467 212.553Z" fill="white"/>
<path d="M199.803 697.047L196.738 694.482L212.217 676.075L215.282 678.64L199.803 697.047Z" fill="white"/>
<path d="M641.819 171.507L638.754 168.942L654.232 150.537L657.296 153.103L641.819 171.507Z" fill="white"/>
<path d="M250.817 732.258L247.353 730.262L259.392 709.454L262.856 711.45L250.817 732.258Z" fill="white"/>
<path d="M594.643 138.125L591.179 136.13L603.219 115.327L606.683 117.323L594.643 138.125Z" fill="white"/>
<path d="M307.184 758.097L303.425 756.732L311.66 734.154L315.419 735.519L307.184 758.097Z" fill="white"/>
<path d="M542.374 113.426L538.615 112.061L546.85 89.488L550.609 90.853L542.374 113.426Z" fill="white"/>
<path d="M367.444 749.435L363.282 773.102L367.221 773.794L371.383 750.128L367.444 749.435Z" fill="white"/>
<path d="M486.845 73.8004L482.683 97.4646L486.623 98.1574L490.784 74.4932L486.845 73.8004Z" fill="white"/>
<path d="M415.812 78.9965L414.101 79.0563L414.516 90.9231L416.227 90.8634L415.812 78.9965Z" fill="white"/>
<path d="M439.528 756.669L437.817 756.729L438.233 768.595L439.944 768.535L439.528 756.669Z" fill="white"/>
<path d="M403.762 79.6382L402.055 79.7577L402.883 91.6012L404.591 91.4817L403.762 79.6382Z" fill="white"/>
<path d="M451.204 756.046L449.496 756.166L450.326 768.009L452.034 767.889L451.204 756.046Z" fill="white"/>
<path d="M391.708 80.6493L390.006 80.8284L391.247 92.6341L392.95 92.455L391.708 80.6493Z" fill="white"/>
<path d="M462.73 754.999L461.028 755.178L462.271 766.987L463.973 766.808L462.73 754.999Z" fill="white"/>
<path d="M379.725 82.0403L378.03 82.2789L379.684 94.0326L381.38 93.7939L379.725 82.0403Z" fill="white"/>
<path d="M474.307 753.514L472.612 753.752L474.269 765.512L475.964 765.273L474.307 753.514Z" fill="white"/>
<path d="M356.759 98.1581L354.286 86.5441L355.961 86.1901L358.434 97.8031L356.759 98.1581Z" fill="white"/>
<path d="M497.238 749.399L495.563 749.756L498.038 761.369L499.712 761.012L497.238 749.399Z" fill="white"/>
<path d="M345.41 100.802L342.533 89.2851L344.194 88.8721L347.071 100.389L345.41 100.802Z" fill="white"/>
<path d="M509.834 758.724L506.955 747.204L508.616 746.791L511.495 758.31L509.834 758.724Z" fill="white"/>
<path d="M334.161 103.842L330.882 92.428L332.527 91.958L335.806 103.371L334.161 103.842Z" fill="white"/>
<path d="M521.501 755.637L518.219 744.221L519.865 743.751L523.147 755.167L521.501 755.637Z" fill="white"/>
<path d="M323.024 107.269L319.349 95.979L320.977 95.452L324.652 106.742L323.024 107.269Z" fill="white"/>
<path d="M533.051 752.144L529.372 740.851L531 740.323L534.679 751.616L533.051 752.144Z" fill="white"/>
<path d="M301.148 115.277L296.691 104.268L298.278 103.628L302.735 114.637L301.148 115.277Z" fill="white"/>
<path d="M555.752 743.965L551.295 732.956L552.882 732.316L557.34 743.325L555.752 743.965Z" fill="white"/>
<path d="M290.431 119.847L285.592 109.003L287.157 108.308L291.995 119.153L290.431 119.847Z" fill="white"/>
<path d="M566.874 739.287L562.033 728.44L563.597 727.745L568.437 738.592L566.874 739.287Z" fill="white"/>
<path d="M279.881 124.788L274.666 114.118L276.205 113.37L281.421 124.04L279.881 124.788Z" fill="white"/>
<path d="M577.825 734.226L572.607 723.553L574.146 722.804L579.364 733.476L577.825 734.226Z" fill="white"/>
<path d="M269.51 130.094L263.926 119.612L265.438 118.81L271.022 129.292L269.51 130.094Z" fill="white"/>
<path d="M588.591 728.785L583.004 718.301L584.516 717.499L590.103 727.983L588.591 728.785Z" fill="white"/>
<path d="M249.361 141.77L243.054 131.699L244.506 130.794L250.813 140.864L249.361 141.77Z" fill="white"/>
<path d="M609.525 716.798L603.217 706.728L604.669 705.823L610.977 715.893L609.525 716.798Z" fill="white"/>
<path d="M239.602 148.127L232.95 138.285L234.369 137.331L241.021 147.172L239.602 148.127Z" fill="white"/>
<path d="M619.663 710.264L613.008 700.421L614.427 699.466L621.082 709.31L619.663 710.264Z" fill="white"/>
<path d="M230.072 154.819L223.08 145.215L224.465 144.212L231.457 153.816L230.072 154.819Z" fill="white"/>
<path d="M629.567 703.383L622.57 693.777L623.955 692.773L630.951 702.38L629.567 703.383Z" fill="white"/>
<path d="M220.783 161.84L213.459 152.486L214.807 151.435L222.131 160.789L220.783 161.84Z" fill="white"/>
<path d="M639.224 696.16L631.897 686.804L633.246 685.753L640.572 695.109L639.224 696.16Z" fill="white"/>
<path d="M202.971 176.831L195.008 168.007L196.281 166.864L204.243 175.688L202.971 176.831Z" fill="white"/>
<path d="M657.752 680.729L649.787 671.905L651.06 670.762L659.025 679.586L657.752 680.729Z" fill="white"/>
<path d="M194.467 184.783L186.203 176.242L187.434 175.056L195.699 183.596L194.467 184.783Z" fill="white"/>
<path d="M666.599 672.539L658.331 663.997L659.563 662.81L667.831 671.352L666.599 672.539Z" fill="white"/>
<path d="M186.247 193.026L177.69 184.778L178.879 183.549L187.436 191.797L186.247 193.026Z" fill="white"/>
<path d="M675.154 664.046L666.591 655.798L667.781 654.57L676.344 662.817L675.154 664.046Z" fill="white"/>
<path d="M178.32 201.549L169.481 193.603L170.626 192.335L179.465 200.281L178.32 201.549Z" fill="white"/>
<path d="M683.404 655.258L674.562 647.315L675.708 646.045L684.55 653.989L683.404 655.258Z" fill="white"/>
<path d="M163.389 219.395L154.012 212.085L155.066 210.74L164.443 218.05L163.389 219.395Z" fill="white"/>
<path d="M698.969 636.853L689.588 629.543L690.642 628.197L700.023 635.507L698.969 636.853Z" fill="white"/>
<path d="M156.399 228.699L146.773 221.72L147.778 220.339L157.405 227.317L156.399 228.699Z" fill="white"/>
<path d="M706.254 627.254L696.626 620.275L697.631 618.894L707.26 625.872L706.254 627.254Z" fill="white"/>
<path d="M149.738 238.241L139.875 231.602L140.833 230.186L150.696 236.826L149.738 238.241Z" fill="white"/>
<path d="M713.203 617.407L703.334 610.77L704.291 609.353L714.16 615.991L713.203 617.407Z" fill="white"/>
<path d="M143.415 248.01L133.327 241.717L134.234 240.269L144.322 246.562L143.415 248.01Z" fill="white"/>
<path d="M719.8 607.326L709.709 601.033L710.616 599.585L720.707 605.879L719.8 607.326Z" fill="white"/>
<path d="M131.817 268.173L121.311 262.599L122.115 261.091L132.621 266.664L131.817 268.173Z" fill="white"/>
<path d="M731.921 586.501L721.412 580.928L722.215 579.42L732.725 584.993L731.921 586.501Z" fill="white"/>
<path d="M126.552 278.545L115.858 273.34L116.609 271.805L127.303 277.011L126.552 278.545Z" fill="white"/>
<path d="M737.427 575.788L726.729 570.582L727.48 569.046L738.178 574.252L737.427 575.788Z" fill="white"/>
<path d="M121.654 289.095L110.785 284.265L111.482 282.705L122.35 287.535L121.654 289.095Z" fill="white"/>
<path d="M742.555 564.886L731.682 560.058L732.379 558.497L743.251 563.325L742.555 564.886Z" fill="white"/>
<path d="M117.127 299.811L106.096 295.361L106.738 293.777L117.769 298.228L117.127 299.811Z" fill="white"/>
<path d="M747.296 553.815L736.264 549.365L736.905 547.782L747.938 552.232L747.296 553.815Z" fill="white"/>
<path d="M109.215 321.677L97.898 318.006L98.427 316.382L109.744 320.053L109.215 321.677Z" fill="white"/>
<path d="M755.609 531.208L744.29 527.54L744.819 525.916L756.138 529.584L755.609 531.208Z" fill="white"/>
<path d="M105.836 332.803L94.398 329.532L94.87 327.89L106.307 331.162L105.836 332.803Z" fill="white"/>
<path d="M748.211 514.782L747.741 516.425L759.181 519.699L759.651 518.057L748.211 514.782Z" fill="white"/>
<path d="M91.7194 339.52L91.3069 341.177L102.851 344.05L103.263 342.393L91.7194 339.52Z" fill="white"/>
<path d="M762.319 508.078L750.77 505.208L751.184 503.551L762.734 506.421L762.319 508.078Z" fill="white"/>
<path d="M88.9747 351.23L88.6199 352.901L100.258 355.372L100.612 353.701L88.9747 351.23Z" fill="white"/>
<path d="M765.061 496.354L753.419 493.883L753.776 492.212L765.417 494.683L765.061 496.354Z" fill="white"/>
<path d="M84.7202 374.946L84.483 376.637L96.2676 378.29L96.5048 376.599L84.7202 374.946Z" fill="white"/>
<path d="M757.764 469.313L757.527 471.004L769.311 472.657L769.549 470.966L757.764 469.313Z" fill="white"/>
<path d="M83.2052 386.879L83.0267 388.578L94.8603 389.821L95.0388 388.123L83.2052 386.879Z" fill="white"/>
<path d="M759.124 457.77L758.945 459.469L770.779 460.712L770.957 459.014L759.124 457.77Z" fill="white"/>
<path d="M82.1624 398.882L82.0434 400.586L93.9128 401.415L94.0319 399.711L82.1624 398.882Z" fill="white"/>
<path d="M760.185 446.186L760.067 447.89L771.938 448.717L772.057 447.013L760.185 446.186Z" fill="white"/>
<path d="M81.4777 410.873L81.4179 412.58L93.3087 412.997L93.3685 411.29L81.4777 410.873Z" fill="white"/>
<path d="M760.695 434.542L760.635 436.249L772.527 436.663L772.587 434.956L760.695 434.542Z" fill="white"/>
<path d="M93.3181 434.569L81.4242 434.984L81.4838 436.691L93.3777 436.276L93.3181 434.569Z" fill="white"/>
<path d="M772.567 410.903L760.672 411.318L760.732 413.025L772.627 412.61L772.567 410.903Z" fill="white"/>
<path d="M93.8858 446.203L82.0154 447.032L82.1344 448.736L94.0049 447.906L93.8858 446.203Z" fill="white"/>
<path d="M771.912 398.919L760.038 399.749L760.158 401.453L772.031 400.623L771.912 398.919Z" fill="white"/>
<path d="M94.9048 457.744L83.0723 458.99L83.2511 460.688L95.0837 459.443L94.9048 457.744Z" fill="white"/>
<path d="M770.87 386.882L759.033 388.134L759.213 389.832L771.049 388.58L770.87 386.882Z" fill="white"/>
<path d="M96.2522 469.296L84.4708 470.956L84.7091 472.647L96.4905 470.988L96.2522 469.296Z" fill="white"/>
<path d="M769.283 374.943L757.5 376.603L757.738 378.294L769.521 376.634L769.283 374.943Z" fill="white"/>
<path d="M88.973 496.352L88.617 494.681L100.257 492.212L100.614 493.883L88.973 496.352Z" fill="white"/>
<path d="M753.779 355.375L753.423 353.704L765.063 351.236L765.419 352.906L753.779 355.375Z" fill="white"/>
<path d="M102.84 503.568L91.2952 506.452L91.7092 508.109L103.254 505.225L102.84 503.568Z" fill="white"/>
<path d="M751.184 344.039L750.77 342.382L762.319 339.512L762.734 341.169L751.184 344.039Z" fill="white"/>
<path d="M94.87 519.7L94.398 518.058L105.837 514.786L106.309 516.428L94.87 519.7Z" fill="white"/>
<path d="M748.2 332.803L747.729 331.162L759.168 327.888L759.64 329.529L748.2 332.803Z" fill="white"/>
<path d="M98.428 531.206L97.9 529.582L109.216 525.916L109.745 527.54L98.428 531.206Z" fill="white"/>
<path d="M744.819 321.674L744.29 320.05L755.606 316.382L756.136 318.006L744.819 321.674Z" fill="white"/>
<path d="M106.738 553.813L106.096 552.229L117.131 547.782L117.773 549.365L106.738 553.813Z" fill="white"/>
<path d="M736.905 299.805L736.264 298.222L747.298 293.775L747.94 295.358L736.905 299.805Z" fill="white"/>
<path d="M111.482 564.885L110.785 563.325L121.657 558.495L122.353 560.055L111.482 564.885Z" fill="white"/>
<path d="M732.379 289.093L731.682 287.532L742.555 282.704L743.251 284.265L732.379 289.093Z" fill="white"/>
<path d="M116.609 575.785L115.859 574.25L126.555 569.046L127.305 570.582L116.609 575.785Z" fill="white"/>
<path d="M727.483 278.543L726.732 277.008L737.429 271.802L738.18 273.337L727.483 278.543Z" fill="white"/>
<path d="M122.117 586.499L121.313 584.991L131.819 579.42L132.623 580.928L122.117 586.499Z" fill="white"/>
<path d="M722.218 268.17L721.414 266.662L731.919 261.088L732.722 262.596L722.218 268.17Z" fill="white"/>
<path d="M134.234 607.321L133.327 605.873L143.42 599.582L144.327 601.031L134.234 607.321Z" fill="white"/>
<path d="M710.616 248.005L709.709 246.556L719.802 240.263L720.71 241.712L710.616 248.005Z" fill="white"/>
<path d="M140.833 617.404L139.876 615.988L149.741 609.351L150.698 610.767L140.833 617.404Z" fill="white"/>
<path d="M704.291 238.239L703.334 236.823L713.203 230.184L714.16 231.599L704.291 238.239Z" fill="white"/>
<path d="M147.78 627.251L146.774 625.87L156.401 618.891L157.407 620.273L147.78 627.251Z" fill="white"/>
<path d="M697.634 228.699L696.627 227.317L706.256 220.336L707.263 221.718L697.634 228.699Z" fill="white"/>
<path d="M155.068 636.848L154.014 635.501L163.392 628.194L164.445 629.541L155.068 636.848Z" fill="white"/>
<path d="M690.645 219.392L689.591 218.047L698.966 210.74L700.02 212.085L690.645 219.392Z" fill="white"/>
<path d="M170.626 655.256L169.481 653.986L178.325 646.041L179.471 647.31L170.626 655.256Z" fill="white"/>
<path d="M675.71 201.544L674.565 200.275L683.407 192.329L684.553 193.599L675.71 201.544Z" fill="white"/>
<path d="M178.88 664.041L177.691 662.812L186.252 654.567L187.441 655.795L178.88 664.041Z" fill="white"/>
<path d="M667.78 193.02L666.592 191.792L675.157 183.544L676.346 184.772L667.78 193.02Z" fill="white"/>
<path d="M187.436 672.534L186.204 671.347L194.47 662.807L195.702 663.994L187.436 672.534Z" fill="white"/>
<path d="M659.565 184.78L658.334 183.593L666.602 175.051L667.833 176.238L659.565 184.78Z" fill="white"/>
<path d="M196.284 680.724L195.011 679.581L202.974 670.759L204.246 671.902L196.284 680.724Z" fill="white"/>
<path d="M651.062 176.826L649.79 175.683L657.752 166.864L659.024 168.007L651.062 176.826Z" fill="white"/>
<path d="M214.809 696.155L213.46 695.104L220.788 685.747L222.136 686.799L214.809 696.155Z" fill="white"/>
<path d="M633.248 161.835L631.9 160.783L639.226 151.427L640.575 152.479L633.248 161.835Z" fill="white"/>
<path d="M224.467 703.379L223.082 702.374L230.078 692.77L231.463 693.775L224.467 703.379Z" fill="white"/>
<path d="M623.955 154.817L622.57 153.812L629.569 144.206L630.954 145.211L623.955 154.817Z" fill="white"/>
<path d="M234.37 710.259L232.951 709.304L239.606 699.464L241.025 700.418L234.37 710.259Z" fill="white"/>
<path d="M614.431 148.124L613.011 147.169L619.665 137.323L621.085 138.278L614.431 148.124Z" fill="white"/>
<path d="M244.509 716.793L243.057 715.888L249.364 705.82L250.816 706.725L244.509 716.793Z" fill="white"/>
<path d="M604.67 141.764L603.219 140.859L609.525 130.794L610.977 131.699L604.67 141.764Z" fill="white"/>
<path d="M265.439 728.78L263.927 727.978L269.515 717.493L271.027 718.295L265.439 728.78Z" fill="white"/>
<path d="M584.519 130.089L583.007 129.287L588.594 118.802L590.106 119.604L584.519 130.089Z" fill="white"/>
<path d="M276.208 734.22L274.669 733.471L279.886 722.801L281.425 723.55L276.208 734.22Z" fill="white"/>
<path d="M574.146 124.786L572.608 124.037L577.828 113.362L579.366 114.111L574.146 124.786Z" fill="white"/>
<path d="M287.158 739.281L285.595 738.587L290.435 727.742L291.999 728.437L287.158 739.281Z" fill="white"/>
<path d="M563.602 119.842L562.038 119.148L566.877 108.3L568.442 108.995L563.602 119.842Z" fill="white"/>
<path d="M298.281 743.959L296.694 743.319L301.152 732.313L302.739 732.954L298.281 743.959Z" fill="white"/>
<path d="M552.882 115.271L551.295 114.631L555.754 103.628L557.341 104.268L552.882 115.271Z" fill="white"/>
<path d="M320.978 752.139L319.35 751.611L323.029 740.318L324.657 740.846L320.978 752.139Z" fill="white"/>
<path d="M531.004 107.264L529.376 106.736L533.054 95.443L534.682 95.971L531.004 107.264Z" fill="white"/>
<path d="M332.531 755.632L330.885 755.161L334.166 743.748L335.811 744.219L332.531 755.632Z" fill="white"/>
<path d="M519.867 103.839L518.222 103.368L521.504 91.953L523.149 92.423L519.867 103.839Z" fill="white"/>
<path d="M344.196 758.718L342.535 758.305L345.414 746.785L347.075 747.198L344.196 758.718Z" fill="white"/>
<path d="M508.621 100.799L506.96 100.386L509.84 88.864L511.501 89.277L508.621 100.799Z" fill="white"/>
<path d="M356.768 749.43L354.302 761.043L355.976 761.399L358.442 749.786L356.768 749.43Z" fill="white"/>
<path d="M497.269 98.1531L495.594 97.7981L498.071 86.1891L499.746 86.5451L497.269 98.1531Z" fill="white"/>
<path d="M379.689 753.516L378.039 765.277L379.734 765.515L381.384 753.754L379.689 753.516Z" fill="white"/>
<path d="M474.28 82.0625L472.63 93.8223L474.326 94.0601L475.975 82.3003L474.28 82.0625Z" fill="white"/>
<path d="M391.31 754.963L390.072 766.774L391.774 766.952L393.011 755.141L391.31 754.963Z" fill="white"/>
<path d="M462.325 80.6013L461.087 92.4142L462.789 92.5925L464.026 80.7796L462.325 80.6013Z" fill="white"/>
<path d="M402.858 755.966L402.034 767.81L403.742 767.929L404.566 756.085L402.858 755.966Z" fill="white"/>
<path d="M450.256 79.5833L449.432 91.4298L451.14 91.5486L451.964 79.7021L450.256 79.5833Z" fill="white"/>
<path d="M414.537 756.691L414.124 768.553L415.835 768.612L416.248 756.75L414.537 756.691Z" fill="white"/>
<path d="M438.247 78.9975L437.828 90.8615L439.539 90.9219L439.958 79.058L438.247 78.9975Z" fill="white"/>
<path d="M427.018 796.396C376.6 796.396 327.689 786.544 281.644 767.115C237.171 748.349 197.23 721.483 162.931 687.265C128.632 653.047 101.703 613.2 82.893 568.831C63.417 522.894 53.542 474.097 53.542 423.797C53.542 373.497 63.417 324.701 82.893 278.764C101.703 234.395 128.632 194.548 162.931 160.33C197.23 126.112 237.171 99.246 281.644 80.479C327.689 61.049 376.601 51.197 427.018 51.197C477.436 51.197 526.348 61.049 572.393 80.479C616.867 99.245 656.807 126.111 691.106 160.33C725.405 194.548 752.334 234.395 771.144 278.764C790.619 324.701 800.494 373.497 800.494 423.797C800.494 474.097 790.619 522.893 771.144 568.831C752.333 613.2 725.405 653.047 691.106 687.265C656.808 721.483 616.867 748.349 572.393 767.115C526.347 786.544 477.436 796.396 427.018 796.396ZM427.018 55.188C377.138 55.188 328.751 64.934 283.202 84.155C239.205 102.72 199.692 129.299 165.759 163.152C131.826 197.005 105.186 236.426 86.577 280.319C67.311 325.761 57.542 374.034 57.542 423.797C57.542 473.56 67.311 521.833 86.577 567.276C105.186 611.17 131.826 650.59 165.759 684.443C199.692 718.296 239.205 744.874 283.202 763.44C328.752 782.66 377.138 792.406 427.018 792.406C476.898 792.406 525.285 782.66 570.835 763.44C614.832 744.875 654.345 718.296 688.278 684.443C722.211 650.59 748.851 611.17 767.461 567.276C786.727 521.834 796.495 473.56 796.495 423.797C796.495 374.035 786.727 325.761 767.461 280.319C748.852 236.425 722.211 197.005 688.278 163.152C654.345 129.298 614.832 102.72 570.835 84.155C525.285 64.933 476.898 55.188 427.018 55.188Z" fill="white"/>
<path d="M831.082 422.076H816.555V435.517H832.745V439.555H811.731V402.273H831.913V406.311H816.555V418.093H831.082V422.076Z" fill="white"/>
<path d="M833.745 440.552H810.731V401.275H832.913V407.309H817.555V417.095H832.082V423.074H817.555V434.52H833.745V440.552ZM812.731 438.557H831.745V436.514H815.555V421.078H830.082V419.09H815.555V405.313H830.913V403.27H812.731V438.557Z" fill="white"/>
<path d="M414.334 38.278V0.996948H419.602L431.578 19.8589C434.35 24.2289 436.512 28.155 438.286 31.972L438.397 31.917C437.954 26.939 437.843 22.403 437.843 16.595V0.996948H442.389V38.278H437.51L425.645 19.3609C423.039 15.2119 420.544 10.952 418.659 6.91396L418.492 6.96996C418.769 11.671 418.88 16.1529 418.88 22.3459V38.2769H414.334V38.278Z" fill="white"/>
<path d="M443.389 39.276H436.956L424.797 19.891C422.741 16.618 421.072 13.779 419.7 11.213C419.826 14.51 419.88 17.996 419.88 22.348V39.276H413.334V0H420.152L432.423 19.326C434.175 22.089 435.713 24.721 437.069 27.283C436.889 23.815 436.844 20.389 436.844 16.596V0H443.39L443.389 39.276ZM438.064 37.28H441.39V1.995H438.844V16.595C438.844 22.033 438.937 26.706 439.394 31.829L439.454 32.509L437.811 33.318L437.38 32.391C435.599 28.56 433.424 24.635 430.734 20.392L419.053 1.994H415.336V37.279H417.882V22.346C417.882 16.121 417.77 11.684 417.496 7.028L417.451 6.27L419.188 5.681L419.567 6.493C421.191 9.972 423.392 13.892 426.493 18.831L438.064 37.28Z" fill="white"/>
<path d="M418.242 842.586C420.404 843.913 423.565 845.021 426.891 845.021C431.826 845.021 434.709 842.421 434.709 838.659C434.709 835.175 432.713 833.183 427.668 831.246C421.569 829.09 417.799 825.936 417.799 820.682C417.799 814.874 422.622 810.56 429.886 810.56C433.711 810.56 436.484 811.445 438.147 812.386L436.816 816.312C435.596 815.648 433.101 814.542 429.719 814.542C424.618 814.542 422.678 817.584 422.678 820.128C422.678 823.613 424.951 825.329 430.108 827.32C436.429 829.752 439.645 832.794 439.645 838.271C439.645 844.024 435.375 849.002 426.56 849.002C422.956 849.002 419.02 847.95 417.024 846.623L418.242 842.586Z" fill="white"/>
<path d="M426.558 850C422.871 850 418.722 848.953 416.467 847.454L415.85 847.044L417.659 841.057L418.765 841.737C421.098 843.169 424.136 844.024 426.89 844.024C431.096 844.024 433.708 841.968 433.708 838.66C433.708 836.111 432.661 834.233 427.307 832.178C420.244 829.681 416.797 825.918 416.797 820.683C416.797 814.136 422.178 809.563 429.884 809.563C434.493 809.563 437.347 810.789 438.638 811.519L439.357 811.925L437.38 817.757L436.336 817.188C434.953 816.436 432.683 815.54 429.718 815.54C425.258 815.54 423.676 818.012 423.676 820.129C423.676 822.884 425.326 824.406 430.467 826.391C437.599 829.136 440.642 832.689 440.642 838.273C440.644 843.682 436.955 850 426.558 850ZM418.205 846.165C420.25 847.25 423.607 848.004 426.558 848.004C433.9 848.004 438.644 844.183 438.644 838.27C438.644 833.522 436.15 830.713 429.747 828.25C424.636 826.275 421.677 824.313 421.677 820.126C421.677 816.955 424.194 813.542 429.719 813.542C432.435 813.542 434.646 814.203 436.234 814.911L436.922 812.881C435.591 812.273 433.297 811.555 429.885 811.555C423.357 811.555 418.798 815.307 418.798 820.679C418.798 825.026 421.722 828.084 428.001 830.303C432.637 832.082 435.708 834.179 435.708 838.656C435.708 843.127 432.247 846.016 426.89 846.016C424.162 846.016 421.294 845.313 418.839 844.062L418.205 846.165Z" fill="white"/>
<path d="M6.336 412.782L9.884 426.39C10.661 429.378 11.381 432.143 11.88 434.908H12.047C12.656 432.198 13.544 429.321 14.431 426.445L18.811 412.782H22.914L27.072 426.168C28.07 429.377 28.846 432.198 29.456 434.908H29.623C30.067 432.198 30.787 429.378 31.674 426.223L35.5 412.782H40.323L31.673 439.555H27.237L23.135 426.777C22.192 423.791 21.416 421.134 20.751 417.983H20.64C19.975 421.191 19.143 423.955 18.201 426.833L13.877 439.555H9.44101L1.34601 412.782H6.336Z" fill="white"/>
<path d="M32.403 440.552H26.509L22.184 427.081C21.631 425.331 21.14 423.705 20.696 422.045C20.202 423.875 19.671 425.558 19.152 427.143L14.593 440.552H8.698L0 411.784H7.108L10.851 426.138C11.277 427.775 11.686 429.348 12.051 430.889C12.499 429.313 12.991 427.717 13.474 426.151L18.079 411.784H23.649L28.026 425.873C28.57 427.622 29.039 429.225 29.449 430.741C29.836 429.111 30.274 427.501 30.709 425.953L34.743 411.784H41.695L32.403 440.552ZM27.968 438.557H30.946L38.951 413.78H36.256L32.636 426.496C31.862 429.247 31.08 432.192 30.61 435.069L30.473 435.906H28.656L28.481 435.127C27.889 432.499 27.138 429.746 26.118 426.465L22.178 413.78H19.542L15.385 426.749C14.522 429.548 13.626 432.453 13.024 435.126L12.849 435.905H11.046L10.898 435.084C10.409 432.374 9.69101 429.615 8.93201 426.695L5.56401 413.779H2.694L10.185 438.556H13.161L17.256 426.512C18.098 423.938 18.976 421.09 19.662 417.78L19.827 416.985H21.564L21.731 417.777C22.379 420.847 23.143 423.476 24.09 426.477L27.968 438.557Z" fill="white"/>
<path d="M720.754 113.698L735.455 99.098L737.882 101.53L735.962 114.446C735.516 117.438 734.964 119.975 734.277 122.288L734.35 122.317C736.108 120.162 737.846 118.335 740.137 116.061L746.288 109.952L748.382 112.052L733.681 126.652L731.433 124.4L733.426 111.513C733.861 108.685 734.391 105.865 735.115 103.413L735.016 103.358C733.289 105.327 731.574 107.133 729.131 109.559L722.849 115.798L720.754 113.698Z" fill="white"/>
<path d="M753.368 132.631L746.676 125.924L741.376 131.188L748.835 138.664L747.243 140.245L737.561 130.542L752.262 115.942L761.56 125.261L759.968 126.842L752.892 119.751L748.246 124.365L754.938 131.073L753.368 132.631Z" fill="white"/>
<path d="M113.373 138.301L98.738 123.634L101.176 121.213L114.123 123.128C117.122 123.573 119.665 124.124 121.983 124.81L122.013 124.737C119.853 122.982 118.022 121.249 115.742 118.964L109.619 112.827L111.723 110.737L126.358 125.404L124.1 127.647L111.183 125.659C108.348 125.224 105.521 124.696 103.064 123.974L103.008 124.072C104.982 125.794 106.793 127.506 109.225 129.943L115.478 136.21L113.373 138.301Z" fill="white"/>
<path d="M133.079 118.73L114.056 108.421L116.417 106.076L125.874 111.458C128.212 112.777 130.498 114.146 132.216 115.254L132.268 115.203C131.096 113.465 129.898 111.189 128.599 108.71L123.525 99.017L125.861 96.698L135.392 102.051C137.617 103.308 139.815 104.589 141.614 105.88L141.665 105.829C140.417 103.863 139.277 101.746 137.992 99.383L132.893 89.716L135.177 87.447L144.911 106.982L142.576 109.301L132.773 103.829C130.368 102.493 128.575 101.414 126.868 100.163L126.817 100.214C127.963 101.977 129.011 103.796 130.259 106.327L135.417 116.412L133.079 118.73Z" fill="white"/>
<path d="M148.473 729.362C148 727.844 146.981 725.951 145.448 724.415C143.175 722.137 140.821 721.824 139.338 723.297C137.964 724.662 138.098 726.364 139.659 729.451C141.618 733.111 142.112 736.088 140.04 738.146C137.75 740.42 133.826 739.882 130.48 736.529C128.717 734.762 127.789 733.135 127.393 731.999L129.555 731.076C129.855 731.899 130.568 733.484 132.126 735.046C134.476 737.401 136.57 737.106 137.574 736.109C138.948 734.744 138.577 733.023 136.986 729.862C135.034 725.991 134.752 723.314 136.911 721.17C139.18 718.917 143.11 718.939 147.171 723.009C148.831 724.673 150.231 726.903 150.627 728.344L148.473 729.362Z" fill="white"/>
<path d="M135.076 711.322L124.744 730.301L122.394 727.946L127.788 718.511C129.11 716.179 130.482 713.899 131.593 712.184L131.542 712.133C129.799 713.303 127.519 714.498 125.033 715.794L115.318 720.855L112.994 718.525L118.359 709.017C119.618 706.798 120.904 704.605 122.197 702.81L122.146 702.759C120.174 704.003 118.053 705.141 115.684 706.423L105.995 711.509L103.722 709.231L123.302 699.52L125.627 701.85L120.142 711.629C118.803 714.03 117.721 715.818 116.468 717.521L116.519 717.572C118.287 716.428 120.11 715.382 122.646 714.138L132.754 708.992L135.076 711.322Z" fill="white"/>
<path d="M718.065 139.494L694.745 162.758L697.59 165.597L720.911 142.333L718.065 139.494Z" fill="white"/>
<path d="M169.173 687.096L145.854 710.359L148.7 713.198L172.019 689.935L169.173 687.096Z" fill="white"/>
<path d="M692.525 682.041L689.679 684.88L712.999 708.145L715.844 705.306L692.525 682.041Z" fill="white"/>
<path d="M140.79 137.277L164.108 160.541L166.954 157.702L143.635 134.438L140.79 137.277Z" fill="white"/>
<path d="M743.262 704.108C741.74 704.58 739.843 705.597 738.304 707.126C736.02 709.394 735.706 711.743 737.182 713.222C738.55 714.593 740.255 714.459 743.351 712.901C747.02 710.946 750.003 710.454 752.066 712.522C754.346 714.807 753.807 718.721 750.445 722.06C748.675 723.819 747.044 724.745 745.905 725.139L744.979 722.983C745.805 722.683 747.394 721.971 748.959 720.417C751.32 718.073 751.024 715.984 750.024 714.983C748.657 713.613 746.931 713.983 743.763 715.569C739.882 717.517 737.199 717.799 735.05 715.644C732.792 713.381 732.814 709.46 736.894 705.408C738.562 703.751 740.797 702.356 742.242 701.96L743.262 704.108Z" fill="white"/>
<path d="M725.908 730.441L732.631 723.764L727.355 718.476L719.862 725.918L718.277 724.329L728.002 714.67L742.637 729.337L733.296 738.614L731.71 737.025L738.818 729.965L734.193 725.33L727.47 732.007L725.908 730.441Z" fill="white"/>
</svg>
