<svg width="194" height="194" viewBox="0 0 194 194" fill="none" xmlns="http://www.w3.org/2000/svg">
<g clip-path="url(#clip0_206_135)">
<path d="M96.4358 0.571411V2.99824C96.6239 2.99728 96.8117 2.99631 97.0001 2.99631C97.1884 2.99631 97.3762 2.99728 97.5643 2.99824V0.571411H96.4358ZM87.4815 1.04031L86.36 1.15879L86.613 3.56454C86.9862 3.52351 87.36 3.48471 87.7345 3.44806L87.4815 1.04031ZM106.519 1.04031L106.266 3.44806C106.64 3.48471 107.014 3.52351 107.387 3.56454L107.64 1.15879L106.519 1.04031ZM77.5031 2.56148L76.3996 2.79542L76.9007 5.14995C77.2677 5.07 77.6355 4.99266 78.0041 4.91701L77.5031 2.56148ZM116.497 2.56148L115.996 4.91701C116.365 4.99266 116.732 5.07 117.099 5.14995L117.601 2.79542L116.497 2.56148ZM67.7385 5.11682L66.6652 5.46523L67.4072 7.74949C67.7643 7.63115 68.1216 7.51422 68.4805 7.40007L67.7385 5.11682ZM126.262 5.11682L125.52 7.40007C125.879 7.51422 126.236 7.63115 126.593 7.74949L127.335 5.46523L126.262 5.11682ZM58.2943 8.67824L57.2641 9.13711L58.2421 11.333C58.5844 11.1779 58.9277 11.0253 59.2723 10.8741L58.2943 8.67824ZM135.706 8.67824L134.728 10.8741C135.072 11.0253 135.416 11.1779 135.758 11.333L136.736 9.13711L135.706 8.67824ZM49.2738 13.2086L48.2968 13.7719L49.5027 15.8613C49.8269 15.6712 50.153 15.4834 50.4797 15.2971L49.2738 13.2086ZM144.726 13.2086L143.52 15.2971C143.847 15.4834 144.173 15.6712 144.497 15.8613L145.703 13.7719L144.726 13.2086ZM40.7764 18.6557L39.8647 19.3183L41.2884 21.2773C41.5909 21.0544 41.8939 20.8329 42.1991 20.6136L40.7764 18.6557ZM153.224 18.6557L151.801 20.6136C152.106 20.8331 152.41 21.0542 152.713 21.2773L154.135 19.3193L153.224 18.6557ZM32.8954 24.9622L32.0571 25.7163L33.6816 27.5206C33.9592 27.2674 34.2384 27.0154 34.5191 26.7655L32.8954 24.9622ZM161.105 24.9622L159.481 26.7655C159.762 27.0154 160.041 27.2674 160.319 27.5206L161.943 25.7163L161.105 24.9622ZM25.7164 32.0569L24.9623 32.8953L26.7656 34.5189C27.0155 34.2382 27.2675 33.9592 27.5206 33.6815L25.7164 32.0569ZM168.284 32.0569L166.48 33.6815C166.733 33.9592 166.985 34.2382 167.235 34.5189L169.038 32.8953L168.284 32.0569ZM19.3195 39.8646L18.6558 40.7763L20.6137 42.199C20.8332 41.8936 21.0543 41.59 21.2774 41.2873L19.3195 39.8646ZM174.681 39.8646L172.723 41.2873C172.946 41.59 173.167 41.8936 173.386 42.199L175.344 40.7763L174.681 39.8646ZM13.772 48.2967L13.2087 49.2737L15.2972 50.4796C15.4836 50.1529 15.6713 49.8268 15.8614 49.5026L13.772 48.2967ZM180.228 48.2967L178.139 49.5026C178.329 49.8268 178.517 50.1529 178.703 50.4796L180.791 49.2737L180.228 48.2967ZM9.13722 57.264L8.67838 58.2942L10.8742 59.2722C11.0254 58.9276 11.178 58.5844 11.3331 58.242L9.13722 57.264ZM184.863 57.264L182.667 58.242C182.822 58.5844 182.975 58.9276 183.126 59.2722L185.322 58.2942L184.863 57.264ZM5.46535 66.6651L5.11693 67.7385L7.40012 68.4805C7.51433 68.1215 7.63122 67.7642 7.74957 67.4071L5.46535 66.6651ZM188.535 66.6651L186.251 67.4071C186.369 67.7642 186.486 68.1215 186.6 68.4805L188.883 67.7385L188.535 66.6651ZM2.79556 76.3996L2.56159 77.503L4.91714 78.0041C4.99277 77.6354 5.07014 77.2676 5.15005 76.9006L2.79556 76.3996ZM191.205 76.3996L188.85 76.9006C188.93 77.2676 189.007 77.6354 189.083 78.0041L191.439 77.503L191.205 76.3996ZM1.15887 86.3599L1.04037 87.4814L3.44815 87.7345C3.48482 87.3599 3.52363 86.9862 3.56464 86.6129L1.15887 86.3599ZM192.841 86.3599L190.436 86.6129C190.477 86.9862 190.515 87.3599 190.552 87.7345L192.96 87.4814L192.841 86.3599ZM0.571533 96.4357V97.5643H2.99833C2.99833 97.3762 2.99512 97.1884 2.99512 97C2.99512 96.8116 2.99512 96.6238 2.99833 96.4357H0.571533ZM191.002 96.4357C191.003 96.6238 191.004 96.8116 191.004 97C191.004 97.1884 191.003 97.3762 191.002 97.5643H193.429V96.4357H191.002ZM3.44815 106.266L1.04037 106.519L1.15887 107.64L3.56464 107.387C3.52363 107.014 3.48482 106.64 3.44815 106.266ZM190.552 106.266C190.515 106.64 190.477 107.014 190.436 107.387L192.841 107.64L192.96 106.519L190.552 106.266ZM4.91714 115.996L2.56159 116.497L2.79556 117.6L5.15005 117.099C5.07014 116.732 4.99277 116.365 4.91714 115.996ZM189.083 115.996C189.007 116.365 188.93 116.732 188.85 117.099L191.205 117.6L191.439 116.497L189.083 115.996ZM7.40012 125.52L5.11693 126.262L5.46535 127.335L7.74957 126.593C7.63122 126.236 7.51433 125.878 7.40012 125.52ZM186.6 125.52C186.486 125.878 186.369 126.236 186.251 126.593L188.535 127.335L188.883 126.262L186.6 125.52ZM10.8742 134.728L8.67838 135.706L9.13722 136.736L11.3331 135.758C11.178 135.416 11.0254 135.072 10.8742 134.728ZM183.126 134.728C182.975 135.072 182.822 135.416 182.667 135.758L184.863 136.736L185.322 135.706L183.126 134.728ZM15.2972 143.52L13.2087 144.726L13.772 145.703L15.8614 144.497C15.6713 144.173 15.4836 143.847 15.2972 143.52ZM178.703 143.52C178.517 143.847 178.329 144.173 178.139 144.497L180.228 145.703L180.791 144.726L178.703 143.52ZM20.6137 151.801L18.6558 153.224L19.3195 154.135L21.2774 152.713C21.0543 152.41 20.8332 152.106 20.6137 151.801ZM173.386 151.801C173.167 152.106 172.946 152.41 172.723 152.713L174.681 154.135L175.344 153.224L173.386 151.801ZM26.7656 159.481L24.9623 161.105L25.7164 161.943L27.5206 160.318C27.2675 160.041 27.0155 159.762 26.7656 159.481ZM167.235 159.481C166.985 159.762 166.733 160.041 166.48 160.318L168.284 161.943L169.038 161.105L167.235 159.481ZM33.6816 166.479L32.0571 168.284L32.8954 169.038L34.5191 167.234C34.2384 166.985 33.9592 166.733 33.6816 166.479ZM160.319 166.479C160.041 166.733 159.762 166.985 159.481 167.234L161.105 169.038L161.943 168.284L160.319 166.479ZM41.2884 172.723L39.8647 174.682L40.7764 175.344L42.1991 173.386C41.8939 173.167 41.5909 172.946 41.2884 172.723ZM152.713 172.723C152.41 172.946 152.106 173.167 151.801 173.386L153.224 175.344L154.135 174.681L152.713 172.723ZM49.5027 178.139L48.2968 180.228L49.2738 180.791L50.4797 178.703C50.153 178.517 49.8269 178.329 49.5027 178.139ZM144.497 178.139C144.173 178.329 143.847 178.517 143.52 178.703L144.726 180.791L145.703 180.228L144.497 178.139ZM58.2421 182.667L57.2641 184.863L58.2943 185.322L59.2723 183.126C58.9277 182.975 58.5844 182.822 58.2421 182.667ZM135.758 182.667C135.416 182.822 135.072 182.975 134.728 183.126L135.706 185.322L136.736 184.863L135.758 182.667ZM67.4072 186.25L66.6652 188.535L67.7385 188.883L68.4805 186.6C68.1216 186.486 67.7643 186.369 67.4072 186.25ZM126.593 186.25C126.236 186.369 125.879 186.486 125.52 186.6L126.262 188.883L127.335 188.535L126.593 186.25ZM76.9007 188.85L76.3996 191.205L77.5031 191.438L78.0041 189.083C77.6355 189.007 77.2677 188.93 76.9007 188.85ZM117.099 188.85C116.732 188.93 116.365 189.007 115.996 189.083L116.497 191.438L117.601 191.205L117.099 188.85ZM86.613 190.435L86.36 192.841L87.4815 192.96L87.7345 190.552C87.36 190.515 86.9862 190.476 86.613 190.435ZM107.387 190.435C107.014 190.476 106.64 190.515 106.266 190.552L106.519 192.96L107.64 192.841L107.387 190.435ZM96.4358 191.002V193.429H97.5643V191.002C97.3762 191.003 97.1884 191.004 97.0001 191.004C96.8117 191.004 96.6239 191.003 96.4358 191.002Z" fill="black"/>
<path d="M98.5648 0.571411H95.6519V4.52469H98.5648V0.571411Z" fill="black"/>
<path d="M98.5648 189.475H95.6519V193.429H98.5648V189.475Z" fill="black"/>
<path d="M177.952 141.828L176.496 144.35L179.919 146.327L181.376 143.804L177.952 141.828Z" fill="black"/>
<path d="M0.571533 95.8084V98.7213H4.52475V95.8084H0.571533Z" fill="black"/>
<path d="M146.17 14.1103L143.647 12.6538L141.671 16.0774L144.193 17.5339L146.17 14.1103Z" fill="black"/>
<path d="M181.189 49.9146L179.732 47.392L176.309 49.3686L177.765 51.8913L181.189 49.9146Z" fill="black"/>
<path d="M144.194 176.653L141.671 178.11L143.648 181.533L146.17 180.077L144.194 176.653Z" fill="black"/>
<path d="M189.476 95.8084V98.7213H193.429V95.8084H189.476Z" fill="black"/>
<path d="M17.6449 144.516L16.1885 141.994L12.7649 143.97L14.2213 146.493L17.6449 144.516Z" fill="black"/>
<path d="M52.0041 177.813L49.4814 176.357L47.5048 179.78L50.0275 181.237L52.0041 177.813Z" fill="black"/>
<path d="M50.2805 12.7406L47.7578 14.197L49.7344 17.6207L52.2571 16.1642L50.2805 12.7406Z" fill="black"/>
<path d="M14.1569 47.5659L12.7004 50.0886L16.124 52.0653L17.5805 49.5426L14.1569 47.5659Z" fill="black"/>
<g clip-path="url(#clip1_206_135)">
<path d="M90.8892 28.4085V16.6262H86.6452V15.1082C87.2206 15.1082 87.7242 15.0359 88.2277 14.9636C88.7312 14.8914 89.2348 14.7468 89.6664 14.4577C90.098 14.2408 90.4576 13.8794 90.7454 13.518C91.0331 13.0843 91.2489 12.5783 91.3208 12H92.8314V28.4085H90.8892ZM97.0754 15.4696C97.2912 14.7468 97.6509 14.1685 98.0825 13.6625C98.5141 13.1565 99.0896 12.7228 99.8089 12.4337C100.456 12.1446 101.248 12 102.111 12C102.83 12 103.477 12.0723 104.125 12.2891C104.772 12.506 105.276 12.7951 105.779 13.1565C106.211 13.518 106.571 14.024 106.858 14.6022C107.146 15.1805 107.29 15.8311 107.29 16.6262C107.29 17.349 107.146 17.9996 106.93 18.5778C106.714 19.1561 106.427 19.6621 106.067 20.0958C105.707 20.5295 105.276 20.9632 104.772 21.2524C104.269 21.6138 103.837 21.9752 103.334 22.2643C102.83 22.5535 102.327 22.8426 101.823 23.204C101.319 23.5654 100.888 23.8546 100.456 24.1437C100.025 24.5051 99.665 24.8666 99.3773 25.228C99.0896 25.5894 98.8738 26.0954 98.8018 26.6014H107.146V28.3362H96.5C96.5719 27.3965 96.7158 26.5291 97.0035 25.8785C97.2912 25.228 97.579 24.5774 98.0106 24.0714C98.4422 23.5654 98.8738 23.1317 99.4492 22.698C99.9528 22.3366 100.528 21.9752 101.104 21.6138C101.823 21.1801 102.398 20.8186 102.902 20.4572C103.406 20.0958 103.837 19.7344 104.197 19.373C104.556 19.0115 104.772 18.5778 104.988 18.1441C105.204 17.7104 105.276 17.2044 105.276 16.6262C105.276 16.1925 105.204 15.7588 104.988 15.3973C104.844 15.0359 104.628 14.7468 104.341 14.4577C104.053 14.1685 103.693 14.024 103.334 13.8794C102.974 13.7348 102.542 13.6625 102.111 13.6625C101.535 13.6625 101.032 13.8071 100.672 14.024C100.24 14.2408 99.9528 14.6022 99.665 14.9636C99.3773 15.3251 99.2334 15.7588 99.0896 16.2648C98.9457 16.7707 98.9457 17.2044 98.9457 17.7104H97.0035C96.7877 16.9876 96.8596 16.1925 97.0754 15.4696ZM134.768 39.6125V27.8302H130.524V26.2399C131.1 26.2399 131.603 26.1677 132.107 26.0954C132.61 26.0231 133.114 25.8785 133.545 25.5894C133.977 25.3725 134.337 25.0111 134.624 24.6497C134.912 24.216 135.128 23.71 135.2 23.1317H136.71V39.5402H134.768V39.6125ZM158.075 54.7921C158.29 54.0693 158.65 53.491 159.082 52.985C159.513 52.479 160.089 52.0453 160.808 51.7562C161.455 51.4671 162.247 51.3225 163.11 51.3225C163.829 51.3225 164.477 51.3948 165.124 51.6116C165.771 51.8285 166.275 52.1176 166.778 52.479C167.21 52.8405 167.57 53.3465 167.857 53.9247C168.145 54.503 168.289 55.1536 168.289 55.9487C168.289 56.6715 168.145 57.3221 167.929 57.9003C167.714 58.4786 167.426 58.9846 167.066 59.4183C166.707 59.852 166.275 60.2857 165.771 60.5749C165.268 60.9363 164.836 61.2977 164.333 61.5868C163.829 61.876 163.326 62.1651 162.822 62.5265C162.319 62.8879 161.887 63.1771 161.455 63.4662C161.024 63.8276 160.664 64.1891 160.376 64.5505C160.089 64.9119 159.873 65.4179 159.801 65.9239H168.145V67.6587H157.427C157.499 66.719 157.643 65.8516 157.931 65.201C158.218 64.5505 158.506 63.8999 158.938 63.3939C159.369 62.8879 159.801 62.4542 160.376 62.0205C160.88 61.6591 161.455 61.2977 162.031 60.9363C162.75 60.5026 163.326 60.1411 163.829 59.7797C164.333 59.4183 164.764 59.0569 165.124 58.6955C165.484 58.334 165.699 57.9003 165.915 57.4666C166.131 57.0329 166.203 56.5269 166.203 55.9487C166.203 55.515 166.131 55.0813 165.915 54.7198C165.771 54.3584 165.556 54.0693 165.268 53.7802C164.98 53.491 164.62 53.3465 164.261 53.2019C163.901 53.0573 163.47 52.985 163.038 52.985C162.462 52.985 161.959 53.1296 161.599 53.3465C161.168 53.5633 160.88 53.9247 160.592 54.2861C160.304 54.6476 160.161 55.0813 160.017 55.5873C159.873 56.0932 159.873 56.5269 159.873 57.0329H157.931C157.787 56.2378 157.859 55.515 158.075 54.7921ZM171.526 95.1989H172.173C172.605 95.1989 172.965 95.1266 173.324 95.0543C173.684 94.982 174.044 94.7652 174.331 94.5483C174.619 94.3315 174.835 94.0423 174.979 93.6809C175.123 93.3195 175.267 92.9581 175.267 92.5244C175.267 91.657 174.979 91.0064 174.403 90.5727C173.828 90.139 173.18 89.9222 172.317 89.9222C171.814 89.9222 171.31 89.9944 170.951 90.2113C170.591 90.4281 170.231 90.645 170.015 91.0064C169.728 91.2956 169.584 91.7293 169.44 92.163C169.296 92.5967 169.224 93.0304 169.224 93.5364H167.282C167.282 92.7412 167.426 92.0184 167.642 91.3678C167.857 90.7173 168.217 90.139 168.577 89.7053C169.008 89.2716 169.512 88.9102 170.159 88.621C170.807 88.3319 171.526 88.2596 172.317 88.2596C173.037 88.2596 173.684 88.3319 174.259 88.5488C174.835 88.7656 175.41 88.9825 175.842 89.3439C176.274 89.7053 176.633 90.139 176.921 90.7173C177.209 91.2956 177.281 91.9461 177.281 92.669C177.281 93.3918 177.065 94.0424 176.633 94.6206C176.202 95.1989 175.698 95.6326 175.051 95.9217V95.994C176.058 96.2109 176.777 96.7169 177.281 97.4397C177.784 98.1625 178 99.0299 178 100.042C178 100.837 177.856 101.56 177.568 102.21C177.281 102.861 176.849 103.367 176.346 103.801C175.842 104.234 175.267 104.524 174.547 104.74C173.828 104.957 173.109 105.03 172.389 105.03C171.526 105.03 170.807 104.885 170.159 104.668C169.512 104.451 168.936 104.09 168.433 103.656C167.929 103.222 167.57 102.644 167.354 101.994C167.066 101.343 166.994 100.548 166.994 99.7528H168.936C168.936 100.837 169.296 101.704 169.872 102.355C170.447 103.006 171.31 103.367 172.461 103.367C172.965 103.367 173.396 103.295 173.828 103.15C174.259 103.006 174.619 102.789 174.979 102.5C175.338 102.21 175.554 101.921 175.77 101.488C175.986 101.054 176.058 100.62 176.058 100.186C176.058 99.6805 175.986 99.2468 175.77 98.8131C175.554 98.3794 175.338 98.0903 175.051 97.8011C174.763 97.512 174.403 97.2951 173.972 97.2228C173.54 97.1506 173.109 97.006 172.605 97.006C172.173 97.006 171.814 97.006 171.454 97.0783V95.1266C171.382 95.1989 171.454 95.1989 171.526 95.1989ZM169.08 137.63V139.364H166.85V143.195H164.98V139.364H157.787V137.485L165.196 126.787H166.778V137.63H169.08ZM165.052 129.606L159.585 137.63H165.052V129.606ZM132.754 156.134L131.891 160.833L131.963 160.905C132.323 160.471 132.754 160.182 133.33 160.038C133.905 159.821 134.481 159.749 134.984 159.749C135.703 159.749 136.423 159.893 136.998 160.11C137.646 160.327 138.221 160.688 138.653 161.194C139.156 161.7 139.516 162.278 139.804 162.929C140.091 163.58 140.235 164.447 140.235 165.387C140.235 166.11 140.091 166.76 139.876 167.411C139.66 168.061 139.3 168.639 138.797 169.145C138.293 169.651 137.718 170.085 136.998 170.374C136.279 170.663 135.488 170.808 134.481 170.808C133.761 170.808 133.114 170.736 132.466 170.519C131.819 170.302 131.316 170.013 130.812 169.651C130.308 169.29 129.949 168.784 129.661 168.206C129.373 167.627 129.229 166.977 129.229 166.182H131.172C131.172 166.615 131.316 166.977 131.459 167.338C131.603 167.7 131.891 167.989 132.179 168.278C132.466 168.567 132.826 168.784 133.258 168.929C133.689 169.073 134.121 169.145 134.624 169.145C135.056 169.145 135.56 169.073 135.919 168.929C136.351 168.784 136.71 168.495 136.998 168.206C137.286 167.917 137.574 167.483 137.718 166.977C137.933 166.471 138.005 165.893 138.005 165.242C138.005 164.736 137.933 164.23 137.718 163.724C137.502 163.218 137.286 162.857 136.998 162.568C136.71 162.278 136.279 161.989 135.847 161.772C135.416 161.556 134.912 161.483 134.337 161.483C133.689 161.483 133.114 161.628 132.61 161.917C132.107 162.206 131.675 162.568 131.316 163.074L129.661 163.001L131.172 154.472H139.228V156.207H132.754V156.134ZM98.7299 166.76C98.2264 166.326 97.6509 166.11 96.8597 166.11C95.9965 166.11 95.3491 166.326 94.8455 166.688C94.342 167.049 93.9104 167.627 93.6946 168.206C93.4788 168.784 93.1911 169.507 93.1191 170.23C93.0472 170.953 92.9753 171.603 92.9033 172.254L92.9753 172.326C93.4069 171.603 93.9823 171.025 94.7017 170.663C95.3491 170.302 96.1403 170.157 97.0754 170.157C97.8667 170.157 98.586 170.302 99.1615 170.591C99.8089 170.88 100.312 171.242 100.744 171.748C101.176 172.254 101.463 172.76 101.751 173.41C101.967 174.061 102.111 174.784 102.111 175.506C102.111 176.085 102.039 176.735 101.823 177.386C101.607 178.036 101.319 178.615 100.888 179.121C100.456 179.627 99.8808 180.06 99.2334 180.422C98.5141 180.783 97.6509 180.928 96.6438 180.928C95.421 180.928 94.4859 180.711 93.6946 180.205C92.9033 179.699 92.3998 179.048 91.9682 178.326C91.5366 177.53 91.3208 176.735 91.1769 175.796C91.0331 174.856 90.9611 173.988 90.9611 173.121C90.9611 171.965 91.0331 170.88 91.2489 169.868C91.4647 168.784 91.7524 167.844 92.2559 167.049C92.6875 166.254 93.3349 165.604 94.1262 165.098C94.9175 164.592 95.8526 164.375 97.0035 164.375C98.3702 164.375 99.4492 164.736 100.24 165.459C101.032 166.182 101.463 167.194 101.607 168.567H99.665C99.5212 167.772 99.2334 167.194 98.7299 166.76ZM95.2052 172.181C94.7736 172.398 94.4139 172.615 94.1262 172.976C93.8385 173.338 93.6227 173.699 93.4788 174.133C93.3349 174.567 93.263 175.073 93.263 175.579C93.263 176.085 93.3349 176.591 93.4788 177.024C93.6227 177.458 93.8385 177.892 94.1262 178.181C94.4139 178.47 94.7736 178.759 95.2052 178.976C95.6368 179.193 96.1403 179.265 96.6438 179.265C97.1474 179.265 97.6509 179.193 98.0825 178.976C98.5141 178.759 98.8018 178.542 99.0896 178.181C99.3773 177.82 99.5931 177.458 99.737 177.024C99.8808 176.591 99.9528 176.157 99.9528 175.651C99.9528 175.145 99.8808 174.639 99.737 174.205C99.5931 173.772 99.3773 173.338 99.1615 173.049C98.8738 172.687 98.5141 172.47 98.1544 172.254C97.7948 172.037 97.2912 171.965 96.7158 171.965C96.0684 171.892 95.6368 172.037 95.2052 172.181ZM61.6844 159.026C60.9651 160.182 60.3177 161.339 59.7423 162.64C59.1668 163.941 58.7352 165.242 58.3755 166.615C58.0159 167.989 57.8001 169.29 57.7281 170.591H55.5701C55.6421 169.218 55.8579 167.844 56.2175 166.543C56.5772 165.242 57.0088 163.941 57.5843 162.784C58.1597 161.628 58.8071 160.399 59.5265 159.315C60.2458 158.231 61.037 157.219 61.9002 156.351H53.4841V154.399H64.0582V156.062C63.195 156.929 62.4038 157.869 61.6844 159.026ZM25.9338 129.172C26.2215 128.666 26.5812 128.233 27.0128 127.871C27.4444 127.51 27.9479 127.221 28.5234 127.076C29.0988 126.859 29.6743 126.787 30.3217 126.787C31.1849 126.787 31.9761 126.932 32.6235 127.148C33.2709 127.365 33.7745 127.727 34.1341 128.088C34.4938 128.45 34.7815 128.956 34.9973 129.462C35.2131 129.967 35.2851 130.473 35.2851 130.979C35.2851 131.702 35.0693 132.425 34.7096 133.003C34.3499 133.582 33.7745 134.088 33.0551 134.377C34.0622 134.666 34.7815 135.172 35.2131 135.895C35.6447 136.618 35.9325 137.485 35.9325 138.497C35.9325 139.292 35.7886 140.015 35.5009 140.593C35.2131 141.244 34.8535 141.75 34.3499 142.184C33.8464 142.617 33.2709 142.906 32.6235 143.123C31.9761 143.34 31.2568 143.412 30.5375 143.412C29.7462 143.412 29.0269 143.34 28.3795 143.123C27.7321 142.906 27.0847 142.617 26.6531 142.184C26.2215 141.75 25.7899 141.244 25.5022 140.593C25.2145 139.943 25.0706 139.22 25.0706 138.425C25.0706 137.485 25.2864 136.618 25.7899 135.895C26.2934 135.172 27.0128 134.666 27.876 134.305C27.1566 134.015 26.6531 133.582 26.2215 132.931C25.7899 132.281 25.5741 131.63 25.5741 130.907C25.5022 130.257 25.6461 129.678 25.9338 129.172ZM28.0198 140.882C28.6672 141.461 29.5304 141.75 30.5375 141.75C31.041 141.75 31.4726 141.678 31.9042 141.533C32.3358 141.388 32.6955 141.172 32.9832 140.882C33.2709 140.593 33.4867 140.232 33.7025 139.87C33.9183 139.509 33.9183 139.075 33.9183 138.569C33.9183 138.136 33.8464 137.702 33.6306 137.34C33.4148 136.979 33.199 136.618 32.9113 136.328C32.6235 136.039 32.2639 135.823 31.8323 135.678C31.4007 135.533 30.9691 135.461 30.5375 135.461C30.034 135.461 29.6024 135.533 29.1708 135.678C28.7392 135.823 28.3795 136.039 28.0918 136.328C27.804 136.618 27.5163 136.907 27.3724 137.34C27.2286 137.702 27.0847 138.136 27.0847 138.642C27.0128 139.509 27.3005 140.304 28.0198 140.882ZM27.804 132.208C27.9479 132.57 28.1637 132.787 28.4514 133.003C28.7392 133.22 29.0269 133.365 29.3866 133.509C29.7462 133.582 30.1059 133.654 30.5375 133.654C31.3288 133.654 31.9761 133.437 32.4797 132.931C32.9832 132.497 33.2709 131.847 33.2709 130.979C33.2709 130.112 32.9832 129.534 32.4797 129.1C31.9761 128.666 31.3288 128.45 30.5375 128.45C30.1778 128.45 29.8182 128.522 29.4585 128.594C29.0988 128.666 28.8111 128.883 28.5234 129.1C28.2356 129.317 28.0918 129.606 27.9479 129.895C27.804 130.184 27.7321 130.546 27.7321 130.979C27.5882 131.485 27.6602 131.847 27.804 132.208ZM18.237 102.427C18.8124 102.861 19.4598 103.078 20.2511 103.078C21.4739 103.078 22.3371 102.572 22.9126 101.488C23.4881 100.403 23.8477 98.8854 23.9197 96.7169L23.8477 96.6446C23.4881 97.3674 22.9845 97.8734 22.2652 98.3071C21.6178 98.7408 20.8265 98.8854 20.0353 98.8854C19.1721 98.8854 18.4528 98.7408 17.8054 98.4517C17.158 98.1625 16.6544 97.8011 16.1509 97.2951C15.7193 96.7891 15.3596 96.2109 15.1438 95.5603C14.928 94.9098 14.7842 94.1146 14.7842 93.3195C14.7842 92.5244 14.928 91.8015 15.1438 91.151C15.4316 90.5004 15.7912 89.9222 16.2228 89.4885C16.7264 88.9825 17.3018 88.621 17.9492 88.4042C18.5966 88.1151 19.316 88.0428 20.1072 88.0428C20.8985 88.0428 21.6178 88.1873 22.2652 88.4042C22.9126 88.621 23.56 89.0548 24.0635 89.633C24.5671 90.2113 24.9987 91.0064 25.2864 92.0184C25.5741 93.0304 25.718 94.3315 25.718 95.8494C25.718 98.6685 25.2864 100.837 24.3513 102.355C23.4881 103.873 22.0494 104.668 20.0353 104.668C18.6686 104.668 17.5176 104.307 16.6544 103.656C15.7912 103.006 15.2158 101.921 15.1438 100.476H17.086C17.3738 101.343 17.7334 101.994 18.237 102.427ZM23.4161 92.163C23.2723 91.7293 23.0565 91.2956 22.7687 91.0064C22.481 90.7173 22.1213 90.3559 21.6897 90.2113C21.2581 89.9944 20.8265 89.9222 20.2511 89.9222C19.6756 89.9222 19.1721 89.9944 18.7405 90.2113C18.3089 90.4281 18.0212 90.7173 17.7334 91.0787C17.4457 91.4401 17.3018 91.8738 17.158 92.3075C17.0141 92.7412 17.0141 93.2472 17.0141 93.7532C17.0141 94.1869 17.086 94.6206 17.2299 95.0543C17.3738 95.488 17.5896 95.8494 17.8773 96.1386C18.165 96.4277 18.5247 96.7169 18.8844 96.9337C19.244 97.1506 19.6756 97.2228 20.1791 97.2228C20.6827 97.2228 21.1143 97.1506 21.5459 96.9337C21.9775 96.7169 22.3371 96.5 22.6249 96.1386C22.9126 95.7772 23.1284 95.4157 23.2723 94.982C23.4161 94.5483 23.4881 94.1146 23.4881 93.6086C23.6319 93.1027 23.56 92.5967 23.4161 92.163ZM24.7829 66.9358V55.2258H20.6107V53.6356C21.1862 53.6356 21.6897 53.5633 22.1933 53.491C22.6968 53.4187 23.2003 53.2742 23.6319 52.985C24.0635 52.7682 24.4232 52.4068 24.7109 52.0453C24.9987 51.6116 25.2145 51.1056 25.2864 50.5274H26.797V66.9358H24.7829ZM30.7533 57.0329C30.7533 56.3824 30.8252 55.7318 30.9691 55.1536C31.113 54.503 31.2568 53.9247 31.4726 53.4187C31.6884 52.8405 32.0481 52.4068 32.4077 51.9731C32.8393 51.5394 33.3429 51.2502 33.9183 50.9611C34.4938 50.6719 35.2851 50.5997 36.0763 50.5997C36.9395 50.5997 37.6588 50.7442 38.2343 50.9611C38.8098 51.1779 39.3133 51.5394 39.7449 51.9731C40.1765 52.4068 40.4642 52.8405 40.68 53.4187C40.8958 53.997 41.1116 54.5753 41.1836 55.1536C41.3274 55.8041 41.3994 56.3824 41.3994 57.0329C41.3994 57.6835 41.4713 58.334 41.4713 58.9123C41.4713 59.4906 41.4713 60.1411 41.3994 60.7917C41.3274 61.4423 41.3274 62.0928 41.1836 62.6711C41.0397 63.3216 40.8958 63.8999 40.68 64.4059C40.4642 64.9119 40.1046 65.4179 39.7449 65.8516C39.3133 66.2853 38.8817 66.5744 38.2343 66.8636C37.5869 67.1527 36.9395 67.225 36.0763 67.225C35.2131 67.225 34.4938 67.0804 33.9183 66.8636C33.3429 66.6467 32.8393 66.2853 32.4077 65.8516C31.9761 65.4179 31.6884 64.9842 31.4726 64.4059C31.2568 63.8276 31.041 63.2494 30.9691 62.6711C30.8252 62.0205 30.7533 61.4423 30.7533 60.7917C30.7533 60.1411 30.6814 59.4906 30.6814 58.9123C30.7533 58.334 30.7533 57.6835 30.7533 57.0329ZM32.8393 60.9363C32.9113 61.7314 32.9832 62.382 33.199 63.1048C33.4148 63.7553 33.7745 64.3336 34.2061 64.8396C34.6377 65.3456 35.2851 65.5624 36.1483 65.5624C37.0115 65.5624 37.5869 65.3456 38.0904 64.8396C38.594 64.3336 38.8817 63.8276 39.0975 63.1048C39.3133 62.4542 39.4572 61.7314 39.4572 60.9363C39.5291 60.1411 39.5291 59.4906 39.5291 58.84V57.5389C39.5291 57.0329 39.4572 56.5992 39.3852 56.0932C39.3133 55.5873 39.2414 55.1536 39.0975 54.6476C38.9536 54.2139 38.8098 53.7802 38.522 53.4187C38.2343 53.0573 37.9466 52.7682 37.5869 52.5513C37.2273 52.3345 36.7237 52.2622 36.1483 52.2622C35.5728 52.2622 35.1412 52.3345 34.7096 52.5513C34.3499 52.7682 33.9903 53.0573 33.7745 53.4187C33.4867 53.7802 33.3429 54.1416 33.199 54.6476C33.0551 55.0813 32.9832 55.5873 32.9113 56.0932C32.8393 56.5992 32.8393 57.0329 32.7674 57.5389V58.84C32.8393 59.4906 32.8393 60.2134 32.8393 60.9363Z" fill="black"/>
<path d="M53.4843 39.6125V27.8302H49.2402V26.2399C49.8157 26.2399 50.3192 26.1676 50.8228 26.0954C51.3263 26.0231 51.8298 25.8785 52.2614 25.5894C52.693 25.3725 53.0527 25.0111 53.3404 24.6497C53.6281 24.216 53.8439 23.71 53.9159 23.1317H55.4265V39.5402H53.4843V39.6125ZM64.7058 39.6125V27.8302H60.4618V26.2399C61.0372 26.2399 61.5408 26.1676 62.0443 26.0954C62.5478 26.0231 63.0514 25.8785 63.483 25.5894C63.9146 25.3725 64.2742 25.0111 64.5619 24.6497C64.8497 24.216 65.0655 23.71 65.1374 23.1317H66.648V39.5402H64.7058V39.6125Z" fill="black"/>
</g>
</g>
<defs>
<clipPath id="clip0_206_135">
<rect width="194" height="194" fill="white"/>
</clipPath>
<clipPath id="clip1_206_135">
<rect width="163" height="169" fill="white" transform="translate(15 12)"/>
</clipPath>
</defs>
</svg>
