<svg width="123" height="105" viewBox="0 0 123 105" fill="none" xmlns="http://www.w3.org/2000/svg">
<g clip-path="url(#clip0_202_523)">
<path d="M111.156 102H11.8444C9.17031 102 7 100.208 7 98C7 95.792 9.17031 94 11.8444 94H111.156C113.83 94 116 95.792 116 98C116 100.208 113.83 102 111.156 102Z" fill="black" fill-opacity="0.57"/>
<path d="M48.0699 79.74C49.8999 79.74 51.3899 81.39 51.3899 83.42C51.3899 85.45 49.9099 87.1 48.0699 87.1H38.7199C36.8899 87.1 35.3999 85.45 35.3999 83.42C35.3999 81.39 36.8799 79.74 38.7199 79.74H48.0699ZM14.2999 70.94C15.8599 72.24 16.0599 74.56 14.7599 76.12C13.4599 77.68 11.1399 77.88 9.57993 76.58C7.89993 75.18 6.42993 73.59 5.17993 71.86C1.83993 67.25 0.0399339 61.63 -6.6084e-05 56.03C-0.0400661 50.37 1.71993 44.74 5.51993 40.18C6.74993 38.7 8.19993 37.34 9.85993 36.14C11.7899 34.74 13.9999 33.56 16.4999 32.59C18.2199 31.92 20.0599 31.36 21.9999 30.91C24.1999 22.17 28.8899 15.44 34.9199 10.77C40.5599 6.4 47.3499 3.85 54.3399 3.18C61.2999 2.51 68.4599 3.69 74.8899 6.78C81.9099 10.15 88.0299 15.76 91.9999 23.65C93.5999 23.4 95.1999 23.27 96.7899 23.29C103.51 23.34 109.99 25.74 115.09 31.24C116.16 32.39 117.17 33.69 118.11 35.14C121.31 40.06 122.95 46.63 122.88 53.06C122.81 59.37 121.11 65.65 117.63 70.28C116.41 71.9 114.11 72.23 112.49 71.01C110.87 69.79 110.54 67.49 111.76 65.87C114.26 62.54 115.49 57.83 115.54 53C115.6 47.93 114.36 42.84 111.95 39.14C111.26 38.07 110.5 37.11 109.7 36.25C106.09 32.36 101.51 30.66 96.7499 30.63C93.2899 30.61 89.7299 31.44 86.3399 32.94C85.5899 33.31 84.8399 33.71 84.0899 34.15C81.8399 35.47 79.6199 37.08 77.3499 38.93L72.5099 33.39C74.1799 31.84 75.9899 30.43 77.9099 29.18C79.4399 28.18 81.0399 27.3 82.6799 26.53C83.3399 26.2 84.0099 25.89 84.6799 25.6C81.4899 19.95 76.8999 15.9 71.6999 13.4C66.4999 10.91 60.6799 9.95 55.0099 10.5C49.3799 11.04 43.9099 13.09 39.3899 16.6C34.1599 20.66 30.1899 26.71 28.6599 34.74L28.1799 37.25L25.6799 37.69C23.2299 38.12 21.0399 38.71 19.1199 39.46C17.2599 40.18 15.5999 41.07 14.1499 42.12C12.9899 42.96 11.9899 43.9 11.1399 44.92C8.50993 48.07 7.28993 52.02 7.31993 56.02C7.34993 60.08 8.66993 64.18 11.1099 67.55C12.0399 68.79 13.0999 69.94 14.2999 70.94ZM33.2699 55.03C31.7799 55.03 30.5799 53.38 30.5799 51.35C30.5799 49.32 31.7799 47.67 33.2699 47.67H99.8299C101.32 47.67 102.52 49.32 102.52 51.35C102.52 53.38 101.32 55.03 99.8299 55.03H33.2699ZM21.3799 70.54C19.5499 70.54 18.0599 68.89 18.0599 66.86C18.0599 64.83 19.5399 63.18 21.3799 63.18H73.8999C75.7299 63.18 77.2199 64.83 77.2199 66.86C77.2199 68.89 75.7399 70.54 73.8999 70.54H21.3799ZM90.3999 70.54C88.5699 70.54 87.0799 68.89 87.0799 66.86C87.0799 64.83 88.5599 63.18 90.3999 63.18H102.22C104.05 63.18 105.54 64.83 105.54 66.86C105.54 68.89 104.06 70.54 102.22 70.54H90.3999ZM110.27 80.03C112.09 80.04 113.57 81.69 113.56 83.71C113.55 85.74 112.07 87.37 110.24 87.37L63.2699 87.1C61.4499 87.09 59.9699 85.44 59.9799 83.42C59.9899 81.39 61.4699 79.76 63.2999 79.76L110.27 80.03Z" fill="white"/>
</g>
<defs>
<clipPath id="clip0_202_523">
<rect width="122.88" height="104.36" fill="white"/>
</clipPath>
</defs>
</svg>
