<svg width="70" height="124" viewBox="0 0 70 124" fill="none" xmlns="http://www.w3.org/2000/svg">
<g clip-path="url(#clip0_142_3)">
<path d="M49.3362 100.993C51.1899 100.993 52.6934 99.6044 52.6934 97.7507C52.6934 88.1737 44.901 80.4396 35.3224 80.4396C25.7439 80.4396 17.9514 88.1461 17.9514 97.7231C17.9514 99.5768 19.4549 100.994 21.3086 100.994L49.3362 100.993Z" fill="#FFA300"/>
<path d="M66.8889 114.815H3.11111C1.39378 114.815 0 113.439 0 111.743C0 110.048 1.39378 108.672 3.11111 108.672H66.8889C68.6062 108.672 70 110.048 70 111.743C70 113.439 68.6062 114.815 66.8889 114.815Z" fill="black" fill-opacity="0.57"/>
<path d="M35.3225 75.387C33.4504 75.387 32.251 73.8697 32.251 71.9991V66.5748C32.251 64.7027 33.4504 63.1854 35.3225 63.1854C37.1946 63.1854 38.394 64.7027 38.394 66.5748V71.9976C38.394 73.8697 37.1946 75.387 35.3225 75.387Z" fill="#FFA300"/>
<path d="M51.2177 81.9708C49.8923 80.647 49.8923 78.5015 51.2177 77.1777L55.0509 73.3429C56.3732 72.0206 58.5217 72.0206 59.844 73.3429C61.1679 74.6667 61.1679 76.8137 59.844 78.136L56.0108 81.9708C54.6839 83.2946 52.5399 83.2946 51.2177 81.9708Z" fill="#FFA300"/>
<path d="M66.6105 94.8497H61.1878C59.3157 94.8497 57.7983 96.066 57.7983 97.9381C57.7983 99.6996 59.1483 100.993 60.8668 100.993H63.4776C63.5928 100.993 63.6957 100.993 63.8032 100.993H66.6105C68.4826 100.993 70 99.7933 70 97.9212C70 96.0491 68.4826 94.8497 66.6105 94.8497Z" fill="#FFA300"/>
<path d="M12.8451 97.9212C12.8451 96.0491 11.3278 94.8497 9.45568 94.8497H4.03444C2.16235 94.8497 0.64502 96.0491 0.64502 97.9212C0.64502 99.7933 2.16235 100.993 4.03444 100.993H9.45722C11.3278 100.993 12.8451 99.7917 12.8451 97.9212Z" fill="#FFA300"/>
<path d="M19.4289 81.9708C20.7527 80.647 20.7527 78.5015 19.4289 77.1777L15.5941 73.3429C14.2703 72.0206 12.1248 72.0206 10.801 73.3429C9.47715 74.6667 9.47715 76.8137 10.801 78.136L14.6358 81.9708C15.9596 83.2962 18.1051 83.2962 19.4289 81.9708Z" fill="#FFA300"/>
</g>
<path d="M34.5 45.125V11.875M34.5 45.125L48.75 30.875M34.5 45.125L20.25 30.875" stroke="white" stroke-width="6" stroke-linecap="round" stroke-linejoin="round"/>
<defs>
<clipPath id="clip0_142_3">
<rect width="70" height="70" fill="white" transform="translate(0 54)"/>
</clipPath>
</defs>
</svg>
