<svg width="486" height="486" viewBox="0 0 486 486" fill="none" xmlns="http://www.w3.org/2000/svg">
<g clip-path="url(#clip0_263_6)">
<rect width="485.794" height="485.794" fill="#F4CA17"/>
<path d="M475.794 404.368H15.7939V424.368H475.794V404.368Z" fill="white"/>
<path d="M468.829 89.302C435.421 69.831 397.461 80.174 371.504 92.278L294.126 128.36L161.046 61.426L81.793 64.831L191.686 176.239L121.651 209.508L48.786 181.777L0 204.525L44.089 259.274C39.431 264.831 35.21 272.655 39.042 280.873C44.047 291.605 58.84 297.014 83.105 297.013C88.081 297.013 93.456 296.786 99.225 296.33C125.861 294.226 154.739 287.427 172.796 279.007L449.392 150.028C473.282 138.887 485.182 127.189 485.772 114.263C486.078 107.559 483.387 97.784 468.829 89.302ZM440.938 131.901L164.343 260.881C148.959 268.055 123.702 274.066 99.998 276.194C75.77 278.369 62.816 275.638 58.498 273.319C59.387 272.102 61.047 270.19 64.11 267.494L71.294 261.171L31.586 211.863L49.572 203.475L122.515 231.238L225.684 182.229L127.684 82.877L156.705 81.63L293.794 150.579L379.954 110.403C411.421 95.73 437.933 94.446 458.757 106.58L458.758 106.581C464.005 109.638 465.839 112.305 465.791 113.351C465.789 113.423 465.188 120.595 440.938 131.901Z" fill="white"/>
</g>
<defs>
<clipPath id="clip0_263_6">
<rect width="485.794" height="485.794" fill="white"/>
</clipPath>
</defs>
</svg>
