<svg width="81" height="82" viewBox="0 0 81 82" fill="none" xmlns="http://www.w3.org/2000/svg">
<path fill-rule="evenodd" clip-rule="evenodd" d="M47.2686 9.39849C47.2686 7.69025 46.5798 6.13586 45.4674 5.00932C44.3567 3.88279 42.8257 3.18251 41.1414 3.18251C39.4571 3.18251 37.9261 3.88279 36.8138 5.00932C35.7031 6.13586 35.0142 7.69025 35.0142 9.39849V52.8975C30.7687 55.1057 27.8647 59.5879 27.8647 64.759C27.8647 72.1176 33.7454 78.082 41.0008 78.082C48.2546 78.082 54.1353 72.1176 54.1353 64.759C54.1353 59.7032 51.3593 55.3061 47.2686 53.0482V9.39849ZM50.4065 50.3961C54.9838 53.4856 58 58.7642 58 64.759C58 74.2809 50.3891 82 41.0008 82C31.6109 82 24 74.2809 24 64.759C24 58.6424 27.141 53.2709 31.8747 50.2102V9.39849C31.8747 6.8121 32.9175 4.46128 34.5955 2.75945C36.275 1.05603 38.5913 0 41.1414 0C43.6899 0 46.0078 1.05603 47.6873 2.75945C49.3653 4.46128 50.4065 6.8121 50.4065 9.39849V50.3961Z" fill="#F5FAFF"/>
<path fill-rule="evenodd" clip-rule="evenodd" d="M43.9027 55.8413C47.9849 57.0175 50.9707 60.7881 50.9707 65.259C50.9707 70.6705 46.596 75.0565 41.1983 75.0565C35.8006 75.0565 31.4243 70.6705 31.4243 65.259C31.4243 60.7897 34.4117 57.0175 38.4923 55.8413V32C38.4923 28.63 43.9027 28.763 43.9027 32V55.8413Z" fill="#C02A00"/>
</svg>
