<svg width="81" height="82" viewBox="0 0 81 82" fill="none" xmlns="http://www.w3.org/2000/svg">
<g clip-path="url(#clip0_76_1052)">
<path fill-rule="evenodd" clip-rule="evenodd" d="M47.5391 9.89849C47.5391 8.19025 46.8422 6.63586 45.7169 5.50932C44.5933 4.38279 43.0445 3.68251 41.3406 3.68251C39.6368 3.68251 38.088 4.38279 36.9627 5.50932C35.8391 6.63586 35.1422 8.19025 35.1422 9.89849V53.3975C30.8474 55.6057 27.9096 60.0879 27.9096 65.259C27.9096 72.6176 33.8587 78.582 41.1984 78.582C48.5364 78.582 54.4855 72.6176 54.4855 65.259C54.4855 60.2032 51.6772 55.8061 47.5391 53.5482V9.89849ZM50.7134 50.8961C55.3439 53.9856 58.3951 59.2642 58.3951 65.259C58.3951 74.7809 50.6958 82.5 41.1984 82.5C31.6993 82.5 24 74.7809 24 65.259C24 59.1424 27.1775 53.7709 31.9662 50.7102V9.89849C31.9662 7.3121 33.0211 4.96128 34.7186 3.25945C36.4177 1.55603 38.7609 0.5 41.3406 0.5C43.9188 0.5 46.2636 1.55603 47.9626 3.25945C49.6601 4.96128 50.7134 7.3121 50.7134 9.89849V50.8961Z" fill="#F5FAFF"/>
<path fill-rule="evenodd" clip-rule="evenodd" d="M43.9027 55.8413C47.9849 57.0175 50.9707 60.7881 50.9707 65.259C50.9707 70.6705 46.596 75.0565 41.1983 75.0565C35.8006 75.0565 31.4243 70.6705 31.4243 65.259C31.4243 60.7897 34.4117 57.0175 38.4923 55.8413V32C38.4923 28.63 43.9027 28.763 43.9027 32V55.8413Z" fill="#EF1C25"/>
</g>
<defs>
<clipPath id="clip0_76_1052">
<rect width="81" height="82" fill="white"/>
</clipPath>
</defs>
</svg>
