<svg width="2340" height="1630" viewBox="0 0 2340 1630" fill="none" xmlns="http://www.w3.org/2000/svg">
<path d="M417.763 691.054V790.078H390.781V691.933C390.781 676.406 387.75 664.785 381.689 657.07C375.628 649.355 366.536 645.497 354.413 645.497C339.847 645.497 328.36 650.136 319.953 659.414C311.545 668.691 307.342 681.338 307.342 697.353V790.078H280.213V626.015H307.342V651.503C313.794 641.64 321.37 634.267 330.071 629.384C338.87 624.501 348.988 622.06 360.426 622.06C379.294 622.06 393.567 627.919 403.245 639.638C412.923 651.259 417.763 668.398 417.763 691.054Z" fill="white"/>
<path d="M612.063 701.308V714.492H488.004C489.177 733.047 494.749 747.207 504.721 756.973C514.79 766.641 528.77 771.475 546.661 771.475C557.023 771.475 567.044 770.205 576.722 767.666C586.498 765.127 596.176 761.318 605.757 756.24V781.729C596.079 785.83 586.156 788.955 575.989 791.104C565.822 793.252 555.508 794.326 545.047 794.326C518.848 794.326 498.073 786.709 482.725 771.475C467.474 756.24 459.849 735.635 459.849 709.658C459.849 682.802 467.083 661.513 481.552 645.79C496.118 629.97 515.719 622.06 540.355 622.06C562.449 622.06 579.899 629.189 592.706 643.447C605.61 657.607 612.063 676.894 612.063 701.308ZM585.081 693.398C584.885 678.652 580.73 666.884 572.616 658.095C564.6 649.306 553.944 644.912 540.648 644.912C525.593 644.912 513.52 649.16 504.428 657.656C495.434 666.152 490.252 678.115 488.884 693.545L585.081 693.398Z" fill="white"/>
<path d="M873.964 579.433V626.015H929.542V646.962H873.964V736.025C873.964 749.404 875.773 757.998 879.39 761.807C883.105 765.615 890.584 767.52 901.826 767.52H929.542V790.078H901.826C881.003 790.078 866.632 786.221 858.714 778.506C850.795 770.693 846.836 756.533 846.836 736.025V646.962H827.039V626.015H846.836V579.433H873.964Z" fill="white"/>
<path d="M1112.7 753.181L1044.72 620.535L976.738 753.181L961.888 782.017H994.372L1009.22 753.181L1044.72 683.975L1080.22 753.181L1095.07 782.017H1127.55L1112.7 753.181Z" fill="#FE0A2C"/>
<path d="M1215.72 620.535L1200.87 649.371L1165.37 718.578L1129.87 649.371L1115.02 620.535H1082.54L1097.39 649.371L1165.37 782.017L1233.36 649.371L1248.2 620.535H1215.72Z" fill="#FE0A2C"/>
<path d="M1291.36 782.017V620.535H1262.36V782.017H1291.36Z" fill="#FE0A2C"/>
<path d="M1456.33 753.181L1388.35 620.535L1320.36 753.181L1305.51 782.017H1338L1352.85 753.181L1388.35 683.975L1423.85 753.181L1438.7 782.017H1471.18L1456.33 753.181Z" fill="#FE0A2C"/>
<path d="M1439.16 620.766V649.602H1505.75V782.248H1534.75V649.602H1601.34V620.766H1439.16Z" fill="#FE0A2C"/>
<path d="M1653.78 782.017V620.535H1624.78V782.017H1653.78Z" fill="#FE0A2C"/>
<path d="M1752.39 620.535C1707.61 620.535 1671.18 656.753 1671.18 701.276C1671.18 745.799 1707.61 782.017 1752.39 782.017C1797.17 782.017 1833.6 745.799 1833.6 701.276C1833.6 656.753 1797.17 620.535 1752.39 620.535ZM1752.39 753.181C1723.62 753.181 1700.18 729.882 1700.18 701.276C1700.18 672.671 1723.62 649.371 1752.39 649.371C1781.16 649.371 1804.59 672.671 1804.59 701.276C1804.59 729.882 1781.16 753.181 1752.39 753.181Z" fill="#FE0A2C"/>
<path d="M1984.41 620.535V723.422L1880 643.373L1851 621.227V782.248H1880V680.053L1984.41 760.102L2013.42 782.248V620.766L1984.41 620.535Z" fill="#FE0A2C"/>
<path d="M644.104 625.053L706.727 707.552L641.763 791.616H673.701L722.551 728.4L776.05 798.878C811.047 846.216 874.951 873.513 957.631 888.701C1040.31 903.888 1142.68 906.87 1257.3 902.715C1486.54 894.403 1764.79 857.307 2028.02 828.74C2031.37 828.377 2034.44 826.717 2036.54 824.126C2038.65 821.535 2039.63 818.226 2039.26 814.926C2038.89 811.626 2037.21 808.605 2034.58 806.529C2031.95 804.452 2028.59 803.49 2025.24 803.854C1761.56 832.468 1483.58 869.464 1256.36 877.702C1142.75 881.821 1041.83 878.697 962.293 864.087C882.757 849.477 825.532 823.282 796.593 784.139L796.546 784.076L738.564 707.685L802.423 625.051H770.485L722.74 686.832L675.846 625.051L644.104 625.053Z" fill="white"/>
<path fill-rule="evenodd" clip-rule="evenodd" d="M506.085 325L567.767 456.248L629.45 587.497L661.286 587.392L549.542 351.844L613.679 351.966L747.5 587.497L780.903 587.357L644.977 351.792L719.003 352.124L929.81 586.548L966.835 587.497L728.39 325L541.406 325.85L506.085 325Z" fill="#FE0A2C"/>
<path fill-rule="evenodd" clip-rule="evenodd" d="M71 1199.92C87.7367 1199.5 104.403 1199.96 121 1201.29C130.931 1205.6 135.597 1212.79 135 1222.87C129.667 1222.87 124.333 1222.87 119 1222.87C118.86 1219.1 116.861 1216.5 113 1215.06C100.667 1214.45 88.3333 1214.45 76 1215.06C70.3418 1216.74 68.5084 1220.26 70.5 1225.62C71.714 1227.04 73.214 1228.11 75 1228.83C88 1229.14 101 1229.45 114 1229.75C130.673 1234.8 137.506 1245.35 134.5 1261.42C131.333 1270.45 124.833 1276.41 115 1279.32C101.333 1279.93 87.6667 1279.93 74 1279.32C60.7451 1275.27 53.7451 1266.85 53 1254.08C58.6667 1254.08 64.3333 1254.08 70 1254.08C70.0778 1259.27 72.7445 1262.79 78 1264.63C83.3333 1264.79 88.6667 1264.94 94 1265.09C100.411 1265.19 106.744 1264.73 113 1263.72C118.887 1260.18 120.387 1255.44 117.5 1249.49C115.54 1247.07 113.04 1245.38 110 1244.44C96.6667 1244.13 83.3333 1243.83 70 1243.52C55.9259 1238.03 50.7592 1228.39 54.5 1214.6C57.252 1207.03 62.752 1202.13 71 1199.92Z" fill="#404040"/>
<path fill-rule="evenodd" clip-rule="evenodd" d="M179 1199.92C194.608 1225.97 209.608 1252.44 224 1279.32C217.641 1280.08 211.307 1279.93 205 1278.86C196.755 1263.42 188.255 1248.12 179.5 1232.96C170.745 1248.12 162.245 1263.42 154 1278.86C147.693 1279.93 141.359 1280.08 135 1279.32C149.552 1252.76 164.219 1226.29 179 1199.92Z" fill="#404040"/>
<path fill-rule="evenodd" clip-rule="evenodd" d="M248 1199.92C271 1199.92 294 1199.92 317 1199.92C317 1204.81 317 1209.71 317 1214.6C295.331 1214.45 273.664 1214.6 252 1215.06C249.833 1215.83 248.333 1217.21 247.5 1219.19C247.002 1222.24 246.835 1225.3 247 1228.37C265.333 1228.37 283.667 1228.37 302 1228.37C302 1233.58 302 1238.78 302 1243.98C283.667 1243.98 265.333 1243.98 247 1243.98C247 1255.91 247 1267.85 247 1279.78C241.333 1279.78 235.667 1279.78 230 1279.78C229.833 1259.28 230 1238.78 230.5 1218.28C232.303 1208.82 238.136 1202.71 248 1199.92Z" fill="#404040"/>
<path fill-rule="evenodd" clip-rule="evenodd" d="M346 1199.92C369 1199.92 392 1199.92 415 1199.92C415 1204.81 415 1209.71 415 1214.6C393.331 1214.45 371.664 1214.6 350 1215.06C347.833 1215.83 346.333 1217.21 345.5 1219.19C345.002 1222.24 344.835 1225.3 345 1228.37C363.333 1228.37 381.667 1228.37 400 1228.37C400 1233.58 400 1238.78 400 1243.98C381.667 1243.98 363.333 1243.98 345 1243.98C344.834 1249.8 345 1255.61 345.5 1261.42C346.714 1262.84 348.214 1263.91 350 1264.63C371.664 1265.09 393.331 1265.25 415 1265.09C415 1269.99 415 1274.88 415 1279.78C391.664 1279.93 368.331 1279.78 345 1279.32C335.098 1276.28 329.598 1270.01 328.5 1260.5C327.833 1246.73 327.833 1232.96 328.5 1219.19C330.125 1209.44 335.958 1203.02 346 1199.92Z" fill="#404040"/>
<path fill-rule="evenodd" clip-rule="evenodd" d="M427 1199.92C455.667 1199.92 484.333 1199.92 513 1199.92C513 1204.81 513 1209.71 513 1214.6C501.333 1214.6 489.667 1214.6 478 1214.6C478 1236.33 478 1258.05 478 1279.78C472.667 1279.78 467.333 1279.78 462 1279.78C462 1258.05 462 1236.33 462 1214.6C450.333 1214.6 438.667 1214.6 427 1214.6C427 1209.71 427 1204.81 427 1199.92Z" fill="#404040"/>
<path fill-rule="evenodd" clip-rule="evenodd" d="M520 1199.92C527.008 1199.77 534.008 1199.92 541 1200.38C547.79 1209.51 555.124 1218.23 563 1226.54C570.826 1217.97 578.493 1209.25 586 1200.38C592.692 1199.61 599.358 1199.77 606 1200.84C594.692 1214.74 583.192 1228.5 571.5 1242.14C571 1254.69 570.833 1267.23 571 1279.78C565.667 1279.78 560.333 1279.78 555 1279.78C555.167 1267.23 555 1254.69 554.5 1242.14C542.374 1228.42 530.874 1214.35 520 1199.92Z" fill="#404040"/>
<path fill-rule="evenodd" clip-rule="evenodd" d="M803 1199.92C823.336 1199.76 843.669 1199.92 864 1200.38C877.539 1205.18 883.039 1214.21 880.5 1227.46C877.654 1237.11 870.821 1242.46 860 1243.52C846.337 1243.98 832.671 1244.13 819 1243.98C819 1255.91 819 1267.85 819 1279.78C813.667 1279.78 808.333 1279.78 803 1279.78C803 1253.16 803 1226.54 803 1199.92ZM819 1214.6C832.337 1214.45 845.671 1214.6 859 1215.06C866.416 1219 866.749 1223.28 860 1227.92C846.337 1228.37 832.671 1228.53 819 1228.37C819 1223.78 819 1219.19 819 1214.6Z" fill="#404040"/>
<path fill-rule="evenodd" clip-rule="evenodd" d="M910 1199.92C933 1199.92 956 1199.92 979 1199.92C979 1204.81 979 1209.71 979 1214.6C957.664 1214.45 936.331 1214.6 915 1215.06C912.268 1215.43 910.435 1216.81 909.5 1219.19C909.002 1222.24 908.835 1225.3 909 1228.37C927.333 1228.37 945.667 1228.37 964 1228.37C964 1233.58 964 1238.78 964 1243.98C945.667 1243.98 927.333 1243.98 909 1243.98C908.834 1249.5 909.001 1255 909.5 1260.5C910.333 1262.49 911.833 1263.87 914 1264.63C935.664 1265.09 957.331 1265.25 979 1265.09C979 1269.99 979 1274.88 979 1279.78C955.998 1279.93 932.998 1279.78 910 1279.32C901.599 1277.42 896.099 1272.68 893.5 1265.09C892.833 1248.26 892.833 1231.43 893.5 1214.6C896.278 1207 901.778 1202.11 910 1199.92Z" fill="#404040"/>
<path fill-rule="evenodd" clip-rule="evenodd" d="M1016 1199.92C1046.86 1198.41 1064.19 1211.72 1068 1239.85C1064.09 1268.53 1046.42 1281.69 1015 1279.32C989.107 1272.05 977.941 1255.98 981.5 1231.13C986.282 1214.35 997.782 1203.94 1016 1199.92ZM1021 1214.6C1038.84 1215.23 1048.84 1223.64 1051 1239.85C1050.71 1248.64 1046.71 1255.67 1039 1260.96C1022.33 1268.34 1009.16 1264.82 999.5 1250.41C993.653 1231.78 1000.82 1219.84 1021 1214.6Z" fill="#404040"/>
<path fill-rule="evenodd" clip-rule="evenodd" d="M1076 1199.92C1096 1199.76 1116 1199.92 1136 1200.38C1149.87 1204.87 1155.71 1213.9 1153.5 1227.46C1150.37 1236.77 1143.54 1242.13 1133 1243.52C1119.34 1243.98 1105.67 1244.13 1092 1243.98C1092 1255.91 1092 1267.85 1092 1279.78C1086.67 1279.78 1081.33 1279.78 1076 1279.78C1076 1253.16 1076 1226.54 1076 1199.92ZM1092 1214.6C1105.34 1214.45 1118.67 1214.6 1132 1215.06C1139.43 1219.05 1139.77 1223.33 1133 1227.92C1119.34 1228.37 1105.67 1228.53 1092 1228.37C1092 1223.78 1092 1219.19 1092 1214.6Z" fill="#404040"/>
<path fill-rule="evenodd" clip-rule="evenodd" d="M1165 1199.92C1170.67 1199.92 1176.33 1199.92 1182 1199.92C1181.83 1219.2 1182 1238.47 1182.5 1257.75C1183.99 1261.42 1186.82 1263.71 1191 1264.63C1206.33 1265.09 1221.66 1265.25 1237 1265.09C1237 1269.99 1237 1274.88 1237 1279.78C1220 1279.93 1203 1279.78 1186 1279.32C1174.09 1275.73 1167.26 1268.24 1165.5 1256.83C1165 1237.86 1164.83 1218.89 1165 1199.92Z" fill="#404040"/>
<path fill-rule="evenodd" clip-rule="evenodd" d="M1266 1199.92C1289 1199.92 1312 1199.92 1335 1199.92C1335 1204.81 1335 1209.71 1335 1214.6C1313.33 1214.45 1291.66 1214.6 1270 1215.06C1267.83 1215.83 1266.33 1217.21 1265.5 1219.19C1265 1222.24 1264.83 1225.3 1265 1228.37C1283.33 1228.37 1301.67 1228.37 1320 1228.37C1320 1233.58 1320 1238.78 1320 1243.98C1301.67 1243.98 1283.33 1243.98 1265 1243.98C1264.83 1249.8 1265 1255.61 1265.5 1261.42C1266.71 1262.84 1268.21 1263.91 1270 1264.63C1291.66 1265.09 1313.33 1265.25 1335 1265.09C1335 1269.99 1335 1274.88 1335 1279.78C1312 1279.93 1289 1279.78 1266 1279.32C1255.49 1276.71 1249.65 1270.44 1248.5 1260.5C1247.59 1245.17 1247.93 1229.87 1249.5 1214.6C1252.28 1207 1257.78 1202.11 1266 1199.92Z" fill="#404040"/>
<path fill-rule="evenodd" clip-rule="evenodd" d="M1536 1199.92C1541.67 1199.92 1547.33 1199.92 1553 1199.92C1553 1226.54 1553 1253.16 1553 1279.78C1547.33 1279.78 1541.67 1279.78 1536 1279.78C1536 1253.16 1536 1226.54 1536 1199.92Z" fill="#404040"/>
<path fill-rule="evenodd" clip-rule="evenodd" d="M1564 1199.92C1587.62 1216.24 1611.12 1232.77 1634.5 1249.49C1635 1232.97 1635.17 1216.44 1635 1199.92C1640.33 1199.92 1645.67 1199.92 1651 1199.92C1651.33 1226.55 1651 1253.17 1650 1279.78C1626.82 1263.79 1603.82 1247.57 1581 1231.13C1580 1247.33 1579.67 1263.55 1580 1279.78C1574.67 1279.78 1569.33 1279.78 1564 1279.78C1564 1253.16 1564 1226.54 1564 1199.92Z" fill="#404040"/>
<path fill-rule="evenodd" clip-rule="evenodd" d="M1662 1199.92C1685.61 1216.22 1709.11 1232.74 1732.5 1249.49C1733 1232.97 1733.17 1216.44 1733 1199.92C1738.33 1199.92 1743.67 1199.92 1749 1199.92C1749.33 1226.55 1749 1253.17 1748 1279.78C1724.82 1263.79 1701.82 1247.57 1679 1231.13C1678 1247.33 1677.67 1263.55 1678 1279.78C1672.67 1279.78 1667.33 1279.78 1662 1279.78C1662 1253.16 1662 1226.54 1662 1199.92Z" fill="#404040"/>
<path fill-rule="evenodd" clip-rule="evenodd" d="M1792 1199.92C1819.34 1197.69 1836.51 1208.71 1843.5 1232.96C1845.73 1250.74 1838.89 1264.67 1823 1274.73C1799.11 1284.74 1779.28 1280.3 1763.5 1261.42C1752.19 1240.51 1756.02 1222.31 1775 1206.8C1780.5 1203.97 1786.17 1201.67 1792 1199.92ZM1797 1214.6C1815.34 1214.76 1825.67 1223.18 1828 1239.85C1826.15 1255.01 1816.98 1263.43 1800.5 1265.09C1784.02 1263.43 1774.85 1255.01 1773 1239.85C1774.51 1226.08 1782.51 1217.67 1797 1214.6Z" fill="#404040"/>
<path fill-rule="evenodd" clip-rule="evenodd" d="M1847 1200.84C1853.18 1199.63 1859.51 1199.63 1866 1200.84C1874.24 1216.28 1882.74 1231.58 1891.5 1246.73C1900.26 1231.58 1908.76 1216.28 1917 1200.84C1923.31 1199.77 1929.64 1199.61 1936 1200.38C1921.55 1227.06 1906.72 1253.53 1891.5 1279.78C1876.38 1253.55 1861.55 1227.24 1847 1200.84Z" fill="#404040"/>
<path fill-rule="evenodd" clip-rule="evenodd" d="M1955 1199.92C1970.61 1225.97 1985.61 1252.44 2000 1279.32C1993.64 1280.08 1987.31 1279.93 1981 1278.86C1972.76 1263.42 1964.26 1248.12 1955.5 1232.96C1947.26 1248.41 1938.76 1263.71 1930 1278.86C1923.69 1279.93 1917.36 1280.08 1911 1279.32C1925.55 1252.76 1940.22 1226.29 1955 1199.92Z" fill="#404040"/>
<path fill-rule="evenodd" clip-rule="evenodd" d="M1982 1199.92C2011 1199.92 2040 1199.92 2069 1199.92C2069 1204.81 2069 1209.71 2069 1214.6C2057.33 1214.6 2045.67 1214.6 2034 1214.6C2034 1236.33 2034 1258.05 2034 1279.78C2028.33 1279.78 2022.67 1279.78 2017 1279.78C2017 1258.05 2017 1236.33 2017 1214.6C2005.33 1214.6 1993.67 1214.6 1982 1214.6C1982 1209.71 1982 1204.81 1982 1199.92Z" fill="#404040"/>
<path fill-rule="evenodd" clip-rule="evenodd" d="M2080 1199.92C2085.33 1199.92 2090.67 1199.92 2096 1199.92C2096 1226.54 2096 1253.16 2096 1279.78C2090.67 1279.78 2085.33 1279.78 2080 1279.78C2080 1253.16 2080 1226.54 2080 1199.92Z" fill="#404040"/>
<path fill-rule="evenodd" clip-rule="evenodd" d="M2140 1199.92C2166.18 1197.82 2183.01 1208.22 2190.5 1231.13C2194.06 1255.98 2182.89 1272.05 2157 1279.32C2130.31 1282.31 2113.15 1272.05 2105.5 1248.57C2102.07 1223.16 2113.57 1206.94 2140 1199.92ZM2145 1214.61C2166.09 1216.06 2175.92 1226.47 2174.5 1245.82C2167.72 1262.16 2155.22 1267.82 2137 1262.8C2120.6 1253.72 2116.76 1241.33 2125.5 1225.62C2130.69 1219.75 2137.19 1216.08 2145 1214.61Z" fill="#404040"/>
<path fill-rule="evenodd" clip-rule="evenodd" d="M2200 1199.92C2223.15 1215.9 2246.15 1232.12 2269 1248.57C2270 1232.36 2270.33 1216.15 2270 1199.92C2275.33 1199.92 2280.67 1199.92 2286 1199.92C2286.33 1226.55 2286 1253.17 2285 1279.78C2262.31 1263.39 2239.48 1247.17 2216.5 1231.13C2216 1247.34 2215.83 1263.56 2216 1279.78C2210.67 1279.78 2205.33 1279.78 2200 1279.78C2200 1253.16 2200 1226.54 2200 1199.92Z" fill="#404040"/>
<path fill-rule="evenodd" clip-rule="evenodd" d="M673 1234.8C692.667 1234.8 712.333 1234.8 732 1234.8C732 1239.7 732 1244.59 732 1249.49C712.333 1249.49 692.667 1249.49 673 1249.49C673 1244.59 673 1239.7 673 1234.8Z" fill="#404040"/>
<path fill-rule="evenodd" clip-rule="evenodd" d="M1406 1234.8C1425.67 1234.8 1445.33 1234.8 1465 1234.8C1465 1239.7 1465 1244.59 1465 1249.49C1445.33 1249.49 1425.67 1249.49 1406 1249.49C1406 1244.59 1406 1239.7 1406 1234.8Z" fill="#404040"/>
</svg>
