<svg width="847" height="280" viewBox="0 0 847 280" fill="none" xmlns="http://www.w3.org/2000/svg">
<path d="M67.9839 176.445V223.906H55.0404V176.867C55.0404 169.425 53.5866 163.855 50.679 160.157C47.7714 156.459 43.4099 154.611 37.5947 154.611C30.6071 154.611 25.0967 156.834 21.0636 161.28C17.0304 165.727 15.0139 171.788 15.0139 179.464V223.906H2V145.273H15.0139V157.489C18.1091 152.762 21.7436 149.228 25.9174 146.888C30.1381 144.547 34.992 143.377 40.4789 143.377C49.53 143.377 56.3769 146.186 61.0197 151.802C65.6625 157.372 67.9839 165.587 67.9839 176.445Z" fill="#FFFFFF"/>
<path d="M161.191 181.36V187.679H101.679C102.242 196.572 104.915 203.359 109.698 208.039C114.529 212.673 121.235 214.99 129.817 214.99C134.788 214.99 139.595 214.381 144.238 213.165C148.928 211.948 153.57 210.122 158.166 207.688V219.905C153.524 221.87 148.764 223.368 143.886 224.398C139.009 225.428 134.061 225.942 129.043 225.942C116.475 225.942 106.51 222.292 99.1467 214.99C91.8308 207.688 88.1729 197.812 88.1729 185.362C88.1729 172.49 91.6432 162.287 98.5839 154.751C105.572 147.168 114.974 143.377 126.792 143.377C137.391 143.377 145.762 146.794 151.906 153.628C158.096 160.414 161.191 169.659 161.191 181.36ZM148.248 177.569C148.154 170.501 146.161 164.861 142.268 160.648C138.423 156.436 133.311 154.33 126.933 154.33C119.711 154.33 113.919 156.366 109.558 160.438C105.243 164.51 102.758 170.244 102.101 177.639L148.248 177.569Z" fill="#FFFFFF"/>
<path d="M286.828 122.947V145.273H313.489V155.313H286.828V197.999C286.828 204.412 287.696 208.531 289.431 210.356C291.213 212.182 294.801 213.094 300.194 213.094H313.489V223.906H300.194C290.205 223.906 283.311 222.058 279.512 218.36C275.714 214.616 273.814 207.829 273.814 197.999V155.313H264.318V145.273H273.814V122.947H286.828Z" fill="#FFFFFF"/>
<path d="M401.353 206.222L368.741 142.646L336.129 206.222L329.006 220.043H344.588L351.712 206.222L368.741 173.052L385.771 206.222L392.894 220.043H408.476L401.353 206.222Z" fill="#FE0A2C"/>
<path d="M450.772 142.646L443.649 156.467L426.619 189.637L409.59 156.467L402.466 142.646H386.884L394.007 156.467L426.619 220.043L459.231 156.467L466.355 142.646H450.772Z" fill="#FE0A2C"/>
<path d="M487.056 220.043V142.646H473.144V220.043H487.056Z" fill="#FE0A2C"/>
<path d="M566.193 206.222L533.581 142.646L500.969 206.222L493.846 220.043H509.428L516.552 206.222L533.581 173.052L550.611 206.222L557.734 220.043H573.317L566.193 206.222Z" fill="#FE0A2C"/>
<path d="M557.957 142.757V156.578H589.901V220.153H603.814V156.578H635.758V142.757H557.957Z" fill="#FE0A2C"/>
<path d="M660.913 220.043V142.646H647V220.043H660.913Z" fill="#FE0A2C"/>
<path d="M708.216 142.646C686.734 142.646 669.26 160.005 669.26 181.345C669.26 202.684 686.734 220.043 708.216 220.043C729.698 220.043 747.172 202.684 747.172 181.345C747.172 160.005 729.698 142.646 708.216 142.646ZM708.216 206.222C694.414 206.222 683.173 195.055 683.173 181.345C683.173 167.634 694.414 156.467 708.216 156.467C722.018 156.467 733.259 167.634 733.259 181.345C733.259 195.055 722.018 206.222 708.216 206.222Z" fill="#FE0A2C"/>
<path d="M819.52 142.646V191.959L769.434 153.593L755.521 142.978V220.153H769.434V171.173L819.52 209.539L833.433 220.153V142.757L819.52 142.646Z" fill="#FE0A2C"/>
<path d="M176.562 144.812L206.603 184.353L175.439 224.644H190.76L214.194 194.345L239.858 228.124C256.646 250.813 287.301 263.896 326.964 271.175C366.627 278.454 415.732 279.883 470.717 277.892C580.687 273.908 714.164 256.128 840.44 242.437C842.047 242.262 843.517 241.467 844.528 240.225C845.539 238.983 846.008 237.397 845.83 235.816C845.653 234.234 844.845 232.786 843.584 231.791C842.323 230.796 840.711 230.335 839.105 230.509C712.618 244.223 579.265 261.955 470.267 265.903C415.768 267.878 367.354 266.38 329.2 259.378C291.046 252.376 263.595 239.821 249.712 221.06L249.69 221.029L221.875 184.416L252.509 144.811H237.188L214.284 174.422L191.789 144.811L176.562 144.812Z" fill="#FFFFFF"/>
<path fill-rule="evenodd" clip-rule="evenodd" d="M110.353 1.00001L139.942 63.9058L169.532 126.812L184.804 126.761L131.2 13.8661L161.967 13.9247L226.162 126.812L242.185 126.745L176.981 13.8409L212.491 14L313.617 126.357L331.379 126.812L216.995 1L127.296 1.40733L110.353 1.00001Z" fill="#FE0A2C"/>
</svg>
