<svg width="1123" height="794" viewBox="0 0 1123 794" fill="none" xmlns="http://www.w3.org/2000/svg">
<path d="M200.405 392.38V439.841H187.461V392.801C187.461 385.359 186.007 379.789 183.1 376.091C180.192 372.393 175.831 370.545 170.015 370.545C163.028 370.545 157.517 372.768 153.484 377.214C149.451 381.661 147.435 387.722 147.435 395.399V439.841H134.421V361.207H147.435V373.423C150.53 368.696 154.164 365.162 158.338 362.822C162.559 360.481 167.413 359.311 172.9 359.311C181.951 359.311 188.798 362.12 193.44 367.736C198.083 373.306 200.405 381.521 200.405 392.38Z" fill="#F8F0FF"/>
<path d="M293.612 397.294V403.613H234.1C234.663 412.506 237.336 419.293 242.119 423.973C246.95 428.607 253.656 430.924 262.238 430.924C267.209 430.924 272.016 430.316 276.659 429.099C281.349 427.882 285.991 426.056 290.587 423.622V435.839C285.944 437.804 281.184 439.302 276.307 440.332C271.43 441.362 266.482 441.877 261.464 441.877C248.896 441.877 238.93 438.226 231.568 430.924C224.252 423.622 220.594 413.746 220.594 401.296C220.594 388.424 224.064 378.221 231.005 370.685C237.992 363.103 247.395 359.311 259.213 359.311C269.812 359.311 278.183 362.728 284.327 369.562C290.517 376.349 293.612 385.593 293.612 397.294ZM280.669 393.503C280.575 386.435 278.582 380.795 274.689 376.583C270.844 372.37 265.732 370.264 259.354 370.264C252.132 370.264 246.34 372.3 241.979 376.372C237.664 380.444 235.179 386.178 234.522 393.573L280.669 393.503Z" fill="#F8F0FF"/>
<path d="M419.249 338.881V361.207H445.91V371.247H419.249V413.934C419.249 420.346 420.116 424.465 421.852 426.29C423.634 428.116 427.221 429.028 432.614 429.028H445.91V439.84H432.614C422.625 439.84 415.732 437.992 411.933 434.294C408.134 430.55 406.235 423.763 406.235 413.934V371.247H396.738V361.207H406.235V338.881H419.249Z" fill="#F8F0FF"/>
<path d="M533.774 422.156L501.162 358.581L468.55 422.156L461.427 435.977H477.009L484.133 422.156L501.162 388.986L518.192 422.156L525.315 435.977H540.897L533.774 422.156Z" fill="#FE0A2C"/>
<path d="M583.193 358.581L576.069 372.401L559.04 405.571L542.01 372.401L534.887 358.581H519.304L526.428 372.401L559.04 435.977L591.652 372.401L598.775 358.581H583.193Z" fill="#FE0A2C"/>
<path d="M619.478 435.977V358.581H605.565V435.977H619.478Z" fill="#FE0A2C"/>
<path d="M698.614 422.156L666.002 358.581L633.39 422.156L626.267 435.977H641.849L648.973 422.156L666.002 388.986L683.032 422.156L690.155 435.977H705.738L698.614 422.156Z" fill="#FE0A2C"/>
<path d="M690.378 358.691V372.512H722.322V436.087H736.235V372.512H768.179V358.691H690.378Z" fill="#FE0A2C"/>
<path d="M793.333 435.977V358.581H779.42V435.977H793.333Z" fill="#FE0A2C"/>
<path d="M840.637 358.581C819.156 358.581 801.681 375.939 801.681 397.279C801.681 418.618 819.156 435.977 840.637 435.977C862.119 435.977 879.593 418.618 879.593 397.279C879.593 375.939 862.119 358.581 840.637 358.581ZM840.637 422.156C826.836 422.156 815.594 410.989 815.594 397.279C815.594 383.569 826.836 372.401 840.637 372.401C854.439 372.401 865.681 383.569 865.681 397.279C865.681 410.989 854.439 422.156 840.637 422.156Z" fill="#FE0A2C"/>
<path d="M951.941 358.581V407.893L901.854 369.527L887.941 358.912V436.087H901.854V387.107L951.941 425.473L965.854 436.087V358.691L951.941 358.581Z" fill="#FE0A2C"/>
<path d="M308.983 360.746L339.023 400.287L307.86 440.578H323.181L346.614 410.279L372.278 444.058C389.067 466.747 419.722 479.83 459.385 487.109C499.047 494.388 548.153 495.818 603.138 493.826C713.108 489.842 846.585 472.062 972.86 458.371C974.467 458.196 975.938 457.401 976.949 456.159C977.96 454.918 978.428 453.331 978.251 451.75C978.074 450.168 977.266 448.72 976.005 447.725C974.743 446.73 973.132 446.269 971.525 446.443C845.039 460.157 711.685 477.889 602.688 481.837C548.189 483.812 499.775 482.315 461.621 475.312C423.467 468.31 396.015 455.755 382.133 436.994L382.11 436.963L354.296 400.35L384.93 360.745H369.609L346.705 390.356L324.209 360.745L308.983 360.746Z" fill="#F8F0FF"/>
<path fill-rule="evenodd" clip-rule="evenodd" d="M242.773 216.934L272.363 279.84L301.953 342.746L317.225 342.695L263.621 229.8L294.388 229.859L358.582 342.746L374.606 342.679L309.402 229.775L344.912 229.934L446.038 342.291L463.8 342.746L349.416 216.934L259.717 217.341L242.773 216.934Z" fill="#FE0A2C"/>
</svg>
