<svg width="2340" height="1605" viewBox="0 0 2340 1605" fill="none" xmlns="http://www.w3.org/2000/svg">
<path d="M417.763 818.672V917.696H390.781V819.551C390.781 804.023 387.75 792.402 381.689 784.687C375.628 776.972 366.536 773.115 354.413 773.115C339.847 773.115 328.36 777.754 319.953 787.031C311.545 796.308 307.342 808.955 307.342 824.971V917.696H280.213V753.632H307.342V779.121C313.794 769.257 321.37 761.884 330.071 757.002C338.87 752.119 348.988 749.677 360.426 749.677C379.294 749.677 393.567 755.537 403.245 767.255C412.923 778.877 417.763 796.015 417.763 818.672Z" fill="#F0F8FF"/>
<path d="M612.063 828.926V842.109H488.004C489.177 860.664 494.749 874.824 504.721 884.59C514.79 894.258 528.77 899.092 546.661 899.092C557.023 899.092 567.044 897.823 576.722 895.284C586.498 892.744 596.176 888.936 605.757 883.858V909.346C596.079 913.448 586.156 916.573 575.989 918.721C565.822 920.87 555.508 921.944 545.047 921.944C518.848 921.944 498.073 914.327 482.725 899.092C467.474 883.858 459.849 863.252 459.849 837.275C459.849 810.42 467.083 789.131 481.552 773.408C496.118 757.587 515.719 749.677 540.355 749.677C562.449 749.677 579.899 756.806 592.706 771.064C605.61 785.224 612.063 804.512 612.063 828.926ZM585.081 821.015C584.885 806.269 580.73 794.502 572.616 785.713C564.6 776.923 553.944 772.529 540.648 772.529C525.593 772.529 513.52 776.777 504.428 785.273C495.434 793.769 490.252 805.732 488.884 821.162L585.081 821.015Z" fill="#F0F8FF"/>
<path d="M873.964 707.05V753.632H929.542V774.58H873.964V863.643C873.964 877.022 875.773 885.615 879.39 889.424C883.105 893.233 890.584 895.137 901.826 895.137H929.542V917.696H901.826C881.003 917.696 866.632 913.838 858.714 906.123C850.795 898.311 846.836 884.151 846.836 863.643V774.58H827.039V753.632H846.836V707.05H873.964Z" fill="#F0F8FF"/>
<path d="M1112.7 880.799L1044.72 748.153L976.738 880.799L961.888 909.635H994.372L1009.22 880.799L1044.72 811.592L1080.22 880.799L1095.07 909.635H1127.55L1112.7 880.799Z" fill="#FE0A2C"/>
<path d="M1215.72 748.153L1200.87 776.989L1165.37 846.195L1129.87 776.989L1115.02 748.153H1082.54L1097.39 776.989L1165.37 909.635L1233.36 776.989L1248.2 748.153H1215.72Z" fill="#FE0A2C"/>
<path d="M1291.36 909.635V748.153H1262.36V909.635H1291.36Z" fill="#FE0A2C"/>
<path d="M1456.33 880.799L1388.35 748.153L1320.36 880.799L1305.51 909.635H1338L1352.85 880.799L1388.35 811.592L1423.85 880.799L1438.7 909.635H1471.18L1456.33 880.799Z" fill="#FE0A2C"/>
<path d="M1439.16 748.383V777.219H1505.75V909.865H1534.75V777.219H1601.34V748.383H1439.16Z" fill="#FE0A2C"/>
<path d="M1653.78 909.635V748.153H1624.78V909.635H1653.78Z" fill="#FE0A2C"/>
<path d="M1752.39 748.153C1707.61 748.153 1671.18 784.371 1671.18 828.894C1671.18 873.416 1707.61 909.635 1752.39 909.635C1797.17 909.635 1833.6 873.416 1833.6 828.894C1833.6 784.371 1797.17 748.153 1752.39 748.153ZM1752.39 880.799C1723.62 880.799 1700.18 857.499 1700.18 828.894C1700.18 800.288 1723.62 776.989 1752.39 776.989C1781.16 776.989 1804.59 800.288 1804.59 828.894C1804.59 857.499 1781.16 880.799 1752.39 880.799Z" fill="#FE0A2C"/>
<path d="M1984.41 748.153V851.04L1880 770.991L1851 748.845V909.865H1880V807.67L1984.41 887.719L2013.42 909.865V748.383L1984.41 748.153Z" fill="#FE0A2C"/>
<path d="M644.104 752.67L706.727 835.169L641.763 919.234H673.701L722.551 856.018L776.05 926.496C811.047 973.833 874.951 1001.13 957.631 1016.32C1040.31 1031.51 1142.68 1034.49 1257.3 1030.33C1486.54 1022.02 1764.79 984.924 2028.02 956.358C2031.37 955.994 2034.44 954.334 2036.54 951.743C2038.65 949.153 2039.63 945.843 2039.26 942.543C2038.89 939.243 2037.21 936.223 2034.58 934.146C2031.95 932.07 2028.59 931.108 2025.24 931.471C1761.56 960.085 1483.58 997.081 1256.36 1005.32C1142.75 1009.44 1041.83 1006.31 962.293 991.705C882.757 977.094 825.532 950.899 796.593 911.756L796.546 911.693L738.564 835.302L802.423 752.668H770.485L722.74 814.45L675.846 752.668L644.104 752.67Z" fill="#F0F8FF"/>
<path fill-rule="evenodd" clip-rule="evenodd" d="M506.085 452.618L567.767 583.866L629.45 715.114L661.286 715.01L549.542 479.462L613.679 479.584L747.5 715.114L780.903 714.975L644.977 479.409L719.003 479.741L929.81 714.165L966.835 715.114L728.39 452.618L541.406 453.467L506.085 452.618Z" fill="#FE0A2C"/>
<path fill-rule="evenodd" clip-rule="evenodd" d="M71 1327.54C87.7367 1327.12 104.403 1327.58 121 1328.91C130.931 1333.22 135.597 1340.41 135 1350.48C129.667 1350.48 124.333 1350.48 119 1350.48C118.86 1346.72 116.861 1344.12 113 1342.68C100.667 1342.07 88.3333 1342.07 76 1342.68C70.3418 1344.36 68.5084 1347.88 70.5 1353.24C71.714 1354.66 73.214 1355.73 75 1356.45C88 1356.76 101 1357.06 114 1357.37C130.673 1362.41 137.506 1372.97 134.5 1389.04C131.333 1398.06 124.833 1404.03 115 1406.94C101.333 1407.55 87.6667 1407.55 74 1406.94C60.7451 1402.88 53.7451 1394.47 53 1381.69C58.6667 1381.69 64.3333 1381.69 70 1381.69C70.0778 1386.89 72.7445 1390.41 78 1392.25C83.3333 1392.4 88.6667 1392.56 94 1392.71C100.411 1392.8 106.744 1392.35 113 1391.33C118.887 1387.8 120.388 1383.06 117.5 1377.1C115.539 1374.69 113.039 1373 110 1372.06C96.6667 1371.75 83.3333 1371.44 70 1371.14C55.9259 1365.65 50.7592 1356.01 54.5 1342.22C57.252 1334.65 62.752 1329.75 71 1327.54Z" fill="#F0F8FF"/>
<path fill-rule="evenodd" clip-rule="evenodd" d="M179 1327.54C194.608 1353.59 209.608 1380.05 224 1406.94C217.641 1407.7 211.307 1407.55 205 1406.48C196.755 1391.04 188.255 1375.74 179.5 1360.58C170.745 1375.74 162.245 1391.04 154 1406.48C147.693 1407.55 141.359 1407.7 135 1406.94C149.552 1380.37 164.219 1353.91 179 1327.54Z" fill="#F0F8FF"/>
<path fill-rule="evenodd" clip-rule="evenodd" d="M248 1327.54C271 1327.54 294 1327.54 317 1327.54C317 1332.43 317 1337.33 317 1342.22C295.331 1342.07 273.664 1342.22 252 1342.68C249.833 1343.45 248.333 1344.82 247.5 1346.81C247.002 1349.86 246.835 1352.92 247 1355.99C265.333 1355.99 283.667 1355.99 302 1355.99C302 1361.19 302 1366.4 302 1371.6C283.667 1371.6 265.333 1371.6 247 1371.6C247 1383.53 247 1395.46 247 1407.4C241.333 1407.4 235.667 1407.4 230 1407.4C229.833 1386.89 230 1366.39 230.5 1345.89C232.303 1336.44 238.136 1330.32 248 1327.54Z" fill="#F0F8FF"/>
<path fill-rule="evenodd" clip-rule="evenodd" d="M346 1327.54C369 1327.54 392 1327.54 415 1327.54C415 1332.43 415 1337.33 415 1342.22C393.331 1342.07 371.664 1342.22 350 1342.68C347.833 1343.45 346.333 1344.82 345.5 1346.81C345.002 1349.86 344.835 1352.92 345 1355.99C363.333 1355.99 381.667 1355.99 400 1355.99C400 1361.19 400 1366.4 400 1371.6C381.667 1371.6 363.333 1371.6 345 1371.6C344.834 1377.42 345 1383.23 345.5 1389.04C346.714 1390.46 348.214 1391.53 350 1392.25C371.664 1392.71 393.331 1392.86 415 1392.71C415 1397.61 415 1402.5 415 1407.4C391.664 1407.55 368.331 1407.4 345 1406.94C335.098 1403.9 329.598 1397.63 328.5 1388.12C327.833 1374.35 327.833 1360.58 328.5 1346.81C330.125 1337.06 335.958 1330.64 346 1327.54Z" fill="#F0F8FF"/>
<path fill-rule="evenodd" clip-rule="evenodd" d="M427 1327.54C455.667 1327.54 484.333 1327.54 513 1327.54C513 1332.43 513 1337.33 513 1342.22C501.333 1342.22 489.667 1342.22 478 1342.22C478 1363.95 478 1385.67 478 1407.4C472.667 1407.4 467.333 1407.4 462 1407.4C462 1385.67 462 1363.95 462 1342.22C450.333 1342.22 438.667 1342.22 427 1342.22C427 1337.33 427 1332.43 427 1327.54Z" fill="#F0F8FF"/>
<path fill-rule="evenodd" clip-rule="evenodd" d="M520 1327.54C527.008 1327.38 534.008 1327.54 541 1327.99C547.79 1337.13 555.124 1345.85 563 1354.16C570.826 1345.59 578.493 1336.87 586 1327.99C592.692 1327.23 599.358 1327.38 606 1328.45C594.692 1342.35 583.192 1356.12 571.5 1369.76C571 1382.3 570.833 1394.85 571 1407.4C565.667 1407.4 560.333 1407.4 555 1407.4C555.167 1394.85 555 1382.3 554.5 1369.76C542.374 1356.04 530.874 1341.97 520 1327.54Z" fill="#F0F8FF"/>
<path fill-rule="evenodd" clip-rule="evenodd" d="M803 1327.54C823.336 1327.38 843.669 1327.54 864 1327.99C877.539 1332.8 883.039 1341.82 880.5 1355.07C877.654 1364.72 870.821 1370.08 860 1371.14C846.337 1371.6 832.671 1371.75 819 1371.6C819 1383.53 819 1395.46 819 1407.4C813.667 1407.4 808.333 1407.4 803 1407.4C803 1380.78 803 1354.16 803 1327.54ZM819 1342.22C832.337 1342.07 845.671 1342.22 859 1342.68C866.416 1346.62 866.749 1350.9 860 1355.53C846.337 1355.99 832.671 1356.15 819 1355.99C819 1351.4 819 1346.81 819 1342.22Z" fill="#F0F8FF"/>
<path fill-rule="evenodd" clip-rule="evenodd" d="M910 1327.54C933 1327.54 956 1327.54 979 1327.54C979 1332.43 979 1337.33 979 1342.22C957.664 1342.07 936.331 1342.22 915 1342.68C912.268 1343.05 910.435 1344.42 909.5 1346.81C909.002 1349.86 908.835 1352.92 909 1355.99C927.333 1355.99 945.667 1355.99 964 1355.99C964 1361.19 964 1366.4 964 1371.6C945.667 1371.6 927.333 1371.6 909 1371.6C908.834 1377.11 909.001 1382.62 909.5 1388.12C910.333 1390.11 911.833 1391.49 914 1392.25C935.664 1392.71 957.331 1392.86 979 1392.71C979 1397.61 979 1402.5 979 1407.4C955.998 1407.55 932.998 1407.4 910 1406.94C901.599 1405.04 896.099 1400.3 893.5 1392.71C892.833 1375.88 892.833 1359.05 893.5 1342.22C896.278 1334.62 901.778 1329.73 910 1327.54Z" fill="#F0F8FF"/>
<path fill-rule="evenodd" clip-rule="evenodd" d="M1016 1327.53C1046.86 1326.03 1064.19 1339.34 1068 1367.47C1064.09 1396.15 1046.42 1409.31 1015 1406.94C989.107 1399.66 977.941 1383.6 981.5 1358.75C986.282 1341.96 997.782 1331.56 1016 1327.53ZM1021 1342.22C1038.84 1342.84 1048.84 1351.26 1051 1367.47C1050.71 1376.25 1046.71 1383.29 1039 1388.58C1022.33 1395.96 1009.16 1392.44 999.5 1378.02C993.653 1359.39 1000.82 1347.46 1021 1342.22Z" fill="#F0F8FF"/>
<path fill-rule="evenodd" clip-rule="evenodd" d="M1076 1327.54C1096 1327.38 1116 1327.54 1136 1327.99C1149.87 1332.49 1155.71 1341.51 1153.5 1355.07C1150.37 1364.39 1143.54 1369.75 1133 1371.14C1119.34 1371.6 1105.67 1371.75 1092 1371.6C1092 1383.53 1092 1395.46 1092 1407.4C1086.67 1407.4 1081.33 1407.4 1076 1407.4C1076 1380.78 1076 1354.16 1076 1327.54ZM1092 1342.22C1105.34 1342.07 1118.67 1342.22 1132 1342.68C1139.43 1346.66 1139.77 1350.95 1133 1355.53C1119.34 1355.99 1105.67 1356.15 1092 1355.99C1092 1351.4 1092 1346.81 1092 1342.22Z" fill="#F0F8FF"/>
<path fill-rule="evenodd" clip-rule="evenodd" d="M1165 1327.54C1170.67 1327.54 1176.33 1327.54 1182 1327.54C1181.83 1346.81 1182 1366.09 1182.5 1385.37C1183.99 1389.04 1186.82 1391.33 1191 1392.25C1206.33 1392.71 1221.66 1392.86 1237 1392.71C1237 1397.61 1237 1402.5 1237 1407.4C1220 1407.55 1203 1407.4 1186 1406.94C1174.09 1403.35 1167.26 1395.85 1165.5 1384.45C1165 1365.48 1164.83 1346.51 1165 1327.54Z" fill="#F0F8FF"/>
<path fill-rule="evenodd" clip-rule="evenodd" d="M1266 1327.54C1289 1327.54 1312 1327.54 1335 1327.54C1335 1332.43 1335 1337.33 1335 1342.22C1313.33 1342.07 1291.66 1342.22 1270 1342.68C1267.83 1343.45 1266.33 1344.82 1265.5 1346.81C1265 1349.86 1264.83 1352.92 1265 1355.99C1283.33 1355.99 1301.67 1355.99 1320 1355.99C1320 1361.19 1320 1366.4 1320 1371.6C1301.67 1371.6 1283.33 1371.6 1265 1371.6C1264.83 1377.42 1265 1383.23 1265.5 1389.04C1266.71 1390.46 1268.21 1391.53 1270 1392.25C1291.66 1392.71 1313.33 1392.86 1335 1392.71C1335 1397.61 1335 1402.5 1335 1407.4C1312 1407.55 1289 1407.4 1266 1406.94C1255.49 1404.33 1249.65 1398.05 1248.5 1388.12C1247.59 1372.78 1247.93 1357.49 1249.5 1342.22C1252.28 1334.62 1257.78 1329.73 1266 1327.54Z" fill="#F0F8FF"/>
<path fill-rule="evenodd" clip-rule="evenodd" d="M1536 1327.54C1541.67 1327.54 1547.33 1327.54 1553 1327.54C1553 1354.16 1553 1380.78 1553 1407.4C1547.33 1407.4 1541.67 1407.4 1536 1407.4C1536 1380.78 1536 1354.16 1536 1327.54Z" fill="#F0F8FF"/>
<path fill-rule="evenodd" clip-rule="evenodd" d="M1564 1327.54C1587.62 1343.86 1611.12 1360.38 1634.5 1377.1C1635 1360.58 1635.17 1344.06 1635 1327.54C1640.33 1327.54 1645.67 1327.54 1651 1327.54C1651.33 1354.16 1651 1380.78 1650 1407.4C1626.82 1391.4 1603.82 1375.19 1581 1358.75C1580 1374.95 1579.67 1391.17 1580 1407.4C1574.67 1407.4 1569.33 1407.4 1564 1407.4C1564 1380.78 1564 1354.16 1564 1327.54Z" fill="#F0F8FF"/>
<path fill-rule="evenodd" clip-rule="evenodd" d="M1662 1327.54C1685.61 1343.84 1709.11 1360.36 1732.5 1377.1C1733 1360.58 1733.17 1344.06 1733 1327.54C1738.33 1327.54 1743.67 1327.54 1749 1327.54C1749.33 1354.16 1749 1380.78 1748 1407.4C1724.82 1391.4 1701.82 1375.19 1679 1358.75C1678 1374.95 1677.67 1391.17 1678 1407.4C1672.67 1407.4 1667.33 1407.4 1662 1407.4C1662 1380.78 1662 1354.16 1662 1327.54Z" fill="#F0F8FF"/>
<path fill-rule="evenodd" clip-rule="evenodd" d="M1792 1327.54C1819.34 1325.31 1836.51 1336.33 1843.5 1360.58C1845.73 1378.36 1838.89 1392.28 1823 1402.35C1799.11 1412.36 1779.28 1407.92 1763.5 1389.04C1752.19 1368.13 1756.02 1349.92 1775 1334.42C1780.5 1331.58 1786.17 1329.29 1792 1327.54ZM1797 1342.22C1815.34 1342.38 1825.67 1350.8 1828 1367.47C1826.15 1382.63 1816.98 1391.04 1800.5 1392.71C1784.02 1391.04 1774.85 1382.63 1773 1367.47C1774.51 1353.7 1782.51 1345.29 1797 1342.22Z" fill="#F0F8FF"/>
<path fill-rule="evenodd" clip-rule="evenodd" d="M1847 1328.45C1853.18 1327.24 1859.51 1327.24 1866 1328.45C1874.24 1343.9 1882.74 1359.19 1891.5 1374.35C1900.26 1359.19 1908.76 1343.9 1917 1328.45C1923.31 1327.38 1929.64 1327.23 1936 1327.99C1921.55 1354.68 1906.72 1381.15 1891.5 1407.4C1876.38 1381.17 1861.55 1354.86 1847 1328.45Z" fill="#F0F8FF"/>
<path fill-rule="evenodd" clip-rule="evenodd" d="M1955 1327.54C1970.61 1353.59 1985.61 1380.05 2000 1406.94C1993.64 1407.7 1987.31 1407.55 1981 1406.48C1972.76 1391.04 1964.26 1375.74 1955.5 1360.58C1947.26 1376.02 1938.76 1391.32 1930 1406.48C1923.69 1407.55 1917.36 1407.7 1911 1406.94C1925.55 1380.37 1940.22 1353.91 1955 1327.54Z" fill="#F0F8FF"/>
<path fill-rule="evenodd" clip-rule="evenodd" d="M1982 1327.54C2011 1327.54 2040 1327.54 2069 1327.54C2069 1332.43 2069 1337.33 2069 1342.22C2057.33 1342.22 2045.67 1342.22 2034 1342.22C2034 1363.95 2034 1385.67 2034 1407.4C2028.33 1407.4 2022.67 1407.4 2017 1407.4C2017 1385.67 2017 1363.95 2017 1342.22C2005.33 1342.22 1993.67 1342.22 1982 1342.22C1982 1337.33 1982 1332.43 1982 1327.54Z" fill="#F0F8FF"/>
<path fill-rule="evenodd" clip-rule="evenodd" d="M2080 1327.54C2085.33 1327.54 2090.67 1327.54 2096 1327.54C2096 1354.16 2096 1380.78 2096 1407.4C2090.67 1407.4 2085.33 1407.4 2080 1407.4C2080 1380.78 2080 1354.16 2080 1327.54Z" fill="#F0F8FF"/>
<path fill-rule="evenodd" clip-rule="evenodd" d="M2140 1327.54C2166.18 1325.43 2183.01 1335.84 2190.5 1358.75C2194.06 1383.6 2182.89 1399.66 2157 1406.94C2130.31 1409.92 2113.15 1399.67 2105.5 1376.19C2102.07 1350.78 2113.57 1334.56 2140 1327.54ZM2145 1342.22C2166.09 1343.68 2175.92 1354.09 2174.5 1373.43C2167.72 1389.78 2155.22 1395.44 2137 1390.42C2120.6 1381.34 2116.76 1368.95 2125.5 1353.24C2130.69 1347.37 2137.19 1343.69 2145 1342.22Z" fill="#F0F8FF"/>
<path fill-rule="evenodd" clip-rule="evenodd" d="M2200 1327.54C2223.15 1343.52 2246.15 1359.74 2269 1376.19C2270 1359.98 2270.33 1343.76 2270 1327.54C2275.33 1327.54 2280.67 1327.54 2286 1327.54C2286.33 1354.16 2286 1380.78 2285 1407.4C2262.31 1391 2239.48 1374.79 2216.5 1358.75C2216 1374.96 2215.83 1391.18 2216 1407.4C2210.67 1407.4 2205.33 1407.4 2200 1407.4C2200 1380.78 2200 1354.16 2200 1327.54Z" fill="#F0F8FF"/>
<path fill-rule="evenodd" clip-rule="evenodd" d="M673 1362.42C692.667 1362.42 712.333 1362.42 732 1362.42C732 1367.31 732 1372.21 732 1377.1C712.333 1377.1 692.667 1377.1 673 1377.1C673 1372.21 673 1367.31 673 1362.42Z" fill="#F0F8FF"/>
<path fill-rule="evenodd" clip-rule="evenodd" d="M1406 1362.42C1425.67 1362.42 1445.33 1362.42 1465 1362.42C1465 1367.31 1465 1372.21 1465 1377.1C1445.33 1377.1 1425.67 1377.1 1406 1377.1C1406 1372.21 1406 1367.31 1406 1362.42Z" fill="#F0F8FF"/>
</svg>
