<svg width="2340" height="1656" viewBox="0 0 2340 1656" fill="none" xmlns="http://www.w3.org/2000/svg">
<path d="M417.763 717.054V816.078H390.781V717.933C390.781 702.406 387.75 690.785 381.689 683.07C375.628 675.355 366.536 671.497 354.413 671.497C339.847 671.497 328.36 676.136 319.953 685.414C311.545 694.691 307.342 707.338 307.342 723.353V816.078H280.213V652.015H307.342V677.503C313.794 667.64 321.37 660.267 330.071 655.384C338.87 650.501 348.988 648.06 360.426 648.06C379.294 648.06 393.567 653.919 403.245 665.638C412.923 677.259 417.763 694.398 417.763 717.054Z" fill="black"/>
<path d="M612.063 727.308V740.492H488.004C489.177 759.047 494.749 773.207 504.721 782.973C514.79 792.641 528.77 797.475 546.661 797.475C557.023 797.475 567.044 796.205 576.722 793.666C586.498 791.127 596.176 787.318 605.757 782.24V807.729C596.079 811.83 586.156 814.955 575.989 817.104C565.822 819.252 555.508 820.326 545.048 820.326C518.848 820.326 498.073 812.709 482.725 797.475C467.474 782.24 459.849 761.635 459.849 735.658C459.849 708.802 467.083 687.513 481.552 671.79C496.118 655.97 515.719 648.06 540.355 648.06C562.449 648.06 579.899 655.189 592.706 669.447C605.61 683.607 612.063 702.894 612.063 727.308ZM585.081 719.398C584.885 704.652 580.73 692.884 572.616 684.095C564.6 675.306 553.944 670.911 540.648 670.911C525.593 670.911 513.52 675.16 504.428 683.656C495.434 692.152 490.252 704.115 488.884 719.545L585.081 719.398Z" fill="black"/>
<path d="M873.964 605.433V652.015H929.542V672.962H873.964V762.025C873.964 775.404 875.773 783.998 879.39 787.807C883.105 791.615 890.584 793.52 901.826 793.52H929.542V816.078H901.826C881.003 816.078 866.632 812.221 858.714 804.506C850.795 796.693 846.836 782.533 846.836 762.025V672.962H827.039V652.015H846.836V605.433H873.964Z" fill="black"/>
<path d="M1112.7 779.181L1044.72 646.535L976.738 779.181L961.888 808.017H994.372L1009.22 779.181L1044.72 709.975L1080.22 779.181L1095.07 808.017H1127.55L1112.7 779.181Z" fill="#FE0A2C"/>
<path d="M1215.72 646.535L1200.87 675.371L1165.37 744.578L1129.87 675.371L1115.02 646.535H1082.54L1097.39 675.371L1165.37 808.017L1233.36 675.371L1248.2 646.535H1215.72Z" fill="#FE0A2C"/>
<path d="M1291.36 808.017V646.535H1262.36V808.017H1291.36Z" fill="#FE0A2C"/>
<path d="M1456.33 779.181L1388.35 646.535L1320.36 779.181L1305.51 808.017H1338L1352.85 779.181L1388.35 709.975L1423.85 779.181L1438.7 808.017H1471.18L1456.33 779.181Z" fill="#FE0A2C"/>
<path d="M1439.16 646.766V675.602H1505.75V808.248H1534.75V675.602H1601.34V646.766H1439.16Z" fill="#FE0A2C"/>
<path d="M1653.78 808.017V646.535H1624.78V808.017H1653.78Z" fill="#FE0A2C"/>
<path d="M1752.39 646.535C1707.61 646.535 1671.18 682.753 1671.18 727.276C1671.18 771.799 1707.61 808.017 1752.39 808.017C1797.17 808.017 1833.6 771.799 1833.6 727.276C1833.6 682.753 1797.17 646.535 1752.39 646.535ZM1752.39 779.181C1723.62 779.181 1700.18 755.882 1700.18 727.276C1700.18 698.671 1723.62 675.371 1752.39 675.371C1781.16 675.371 1804.59 698.671 1804.59 727.276C1804.59 755.882 1781.16 779.181 1752.39 779.181Z" fill="#FE0A2C"/>
<path d="M1984.41 646.535V749.422L1880 669.373L1851 647.227V808.248H1880V706.053L1984.41 786.102L2013.42 808.248V646.766L1984.41 646.535Z" fill="#FE0A2C"/>
<path d="M644.104 651.053L706.727 733.552L641.763 817.616H673.701L722.551 754.4L776.05 824.878C811.047 872.216 874.951 899.513 957.631 914.701C1040.31 929.888 1142.68 932.87 1257.3 928.715C1486.54 920.403 1764.79 883.307 2028.02 854.74C2031.37 854.377 2034.44 852.717 2036.54 850.126C2038.65 847.535 2039.63 844.226 2039.26 840.926C2038.89 837.626 2037.21 834.605 2034.58 832.529C2031.95 830.452 2028.59 829.49 2025.24 829.854C1761.56 858.468 1483.58 895.464 1256.36 903.702C1142.75 907.821 1041.83 904.697 962.293 890.087C882.757 875.477 825.532 849.282 796.593 810.139L796.546 810.076L738.564 733.685L802.423 651.051H770.485L722.74 712.833L675.846 651.051L644.104 651.053Z" fill="black"/>
<path fill-rule="evenodd" clip-rule="evenodd" d="M506.085 351L567.767 482.248L629.45 613.497L661.286 613.392L549.542 377.844L613.679 377.966L747.5 613.497L780.903 613.357L644.977 377.792L719.003 378.124L929.81 612.548L966.835 613.497L728.39 351L541.406 351.85L506.085 351Z" fill="#FE0A2C"/>
<path fill-rule="evenodd" clip-rule="evenodd" d="M71 1225.92C87.7367 1225.5 104.403 1225.96 121 1227.29C130.931 1231.6 135.597 1238.79 135 1248.87C129.667 1248.87 124.333 1248.87 119 1248.87C118.86 1245.1 116.861 1242.5 113 1241.06C100.667 1240.45 88.3333 1240.45 76 1241.06C70.3418 1242.74 68.5084 1246.26 70.5 1251.62C71.714 1253.04 73.214 1254.11 75 1254.83C88 1255.14 101 1255.45 114 1255.75C130.673 1260.8 137.506 1271.35 134.5 1287.42C131.333 1296.45 124.833 1302.41 115 1305.32C101.333 1305.93 87.6667 1305.93 74 1305.32C60.7451 1301.27 53.7451 1292.85 53 1280.08C58.6667 1280.08 64.3333 1280.08 70 1280.08C70.0778 1285.27 72.7445 1288.79 78 1290.63C83.3333 1290.79 88.6667 1290.94 94 1291.09C100.411 1291.19 106.744 1290.73 113 1289.72C118.887 1286.18 120.387 1281.44 117.5 1275.49C115.54 1273.07 113.04 1271.39 110 1270.44C96.6667 1270.13 83.3333 1269.83 70 1269.52C55.9259 1264.03 50.7592 1254.39 54.5 1240.6C57.252 1233.03 62.752 1228.13 71 1225.92Z" fill="black"/>
<path fill-rule="evenodd" clip-rule="evenodd" d="M179 1225.92C194.608 1251.97 209.608 1278.44 224 1305.32C217.641 1306.08 211.307 1305.93 205 1304.86C196.755 1289.42 188.255 1274.12 179.5 1258.96C170.745 1274.12 162.245 1289.42 154 1304.86C147.693 1305.93 141.359 1306.08 135 1305.32C149.552 1278.76 164.219 1252.29 179 1225.92Z" fill="black"/>
<path fill-rule="evenodd" clip-rule="evenodd" d="M248 1225.92C271 1225.92 294 1225.92 317 1225.92C317 1230.81 317 1235.71 317 1240.6C295.331 1240.45 273.664 1240.6 252 1241.06C249.833 1241.83 248.333 1243.21 247.5 1245.19C247.002 1248.24 246.835 1251.3 247 1254.37C265.333 1254.37 283.667 1254.37 302 1254.37C302 1259.58 302 1264.78 302 1269.98C283.667 1269.98 265.333 1269.98 247 1269.98C247 1281.91 247 1293.85 247 1305.78C241.333 1305.78 235.667 1305.78 230 1305.78C229.833 1285.28 230 1264.78 230.5 1244.28C232.303 1234.82 238.136 1228.71 248 1225.92Z" fill="black"/>
<path fill-rule="evenodd" clip-rule="evenodd" d="M346 1225.92C369 1225.92 392 1225.92 415 1225.92C415 1230.81 415 1235.71 415 1240.6C393.331 1240.45 371.664 1240.6 350 1241.06C347.833 1241.83 346.333 1243.21 345.5 1245.19C345.002 1248.24 344.835 1251.3 345 1254.37C363.333 1254.37 381.667 1254.37 400 1254.37C400 1259.58 400 1264.78 400 1269.98C381.667 1269.98 363.333 1269.98 345 1269.98C344.834 1275.8 345 1281.61 345.5 1287.42C346.714 1288.84 348.214 1289.91 350 1290.63C371.664 1291.09 393.331 1291.25 415 1291.09C415 1295.99 415 1300.88 415 1305.78C391.664 1305.93 368.331 1305.78 345 1305.32C335.098 1302.28 329.598 1296.01 328.5 1286.5C327.833 1272.73 327.833 1258.96 328.5 1245.19C330.125 1235.44 335.958 1229.02 346 1225.92Z" fill="black"/>
<path fill-rule="evenodd" clip-rule="evenodd" d="M427 1225.92C455.667 1225.92 484.333 1225.92 513 1225.92C513 1230.81 513 1235.71 513 1240.6C501.333 1240.6 489.667 1240.6 478 1240.6C478 1262.33 478 1284.05 478 1305.78C472.667 1305.78 467.333 1305.78 462 1305.78C462 1284.05 462 1262.33 462 1240.6C450.333 1240.6 438.667 1240.6 427 1240.6C427 1235.71 427 1230.81 427 1225.92Z" fill="black"/>
<path fill-rule="evenodd" clip-rule="evenodd" d="M520 1225.92C527.008 1225.77 534.008 1225.92 541 1226.38C547.79 1235.51 555.124 1244.23 563 1252.54C570.826 1243.97 578.493 1235.25 586 1226.38C592.692 1225.61 599.358 1225.77 606 1226.84C594.692 1240.74 583.192 1254.5 571.5 1268.14C571 1280.69 570.833 1293.23 571 1305.78C565.667 1305.78 560.333 1305.78 555 1305.78C555.167 1293.23 555 1280.69 554.5 1268.14C542.374 1254.42 530.874 1240.35 520 1225.92Z" fill="black"/>
<path fill-rule="evenodd" clip-rule="evenodd" d="M803 1225.92C823.336 1225.76 843.669 1225.92 864 1226.38C877.539 1231.18 883.039 1240.21 880.5 1253.46C877.654 1263.11 870.821 1268.46 860 1269.52C846.337 1269.98 832.671 1270.13 819 1269.98C819 1281.91 819 1293.85 819 1305.78C813.667 1305.78 808.333 1305.78 803 1305.78C803 1279.16 803 1252.54 803 1225.92ZM819 1240.6C832.337 1240.45 845.671 1240.6 859 1241.06C866.416 1245 866.749 1249.28 860 1253.92C846.337 1254.37 832.671 1254.53 819 1254.37C819 1249.78 819 1245.19 819 1240.6Z" fill="black"/>
<path fill-rule="evenodd" clip-rule="evenodd" d="M910 1225.92C933 1225.92 956 1225.92 979 1225.92C979 1230.81 979 1235.71 979 1240.6C957.664 1240.45 936.331 1240.6 915 1241.06C912.268 1241.43 910.435 1242.81 909.5 1245.19C909.002 1248.24 908.835 1251.3 909 1254.37C927.333 1254.37 945.667 1254.37 964 1254.37C964 1259.58 964 1264.78 964 1269.98C945.667 1269.98 927.333 1269.98 909 1269.98C908.834 1275.5 909.001 1281 909.5 1286.5C910.333 1288.49 911.833 1289.87 914 1290.63C935.664 1291.09 957.331 1291.25 979 1291.09C979 1295.99 979 1300.88 979 1305.78C955.998 1305.93 932.998 1305.78 910 1305.32C901.599 1303.42 896.099 1298.68 893.5 1291.09C892.833 1274.26 892.833 1257.43 893.5 1240.6C896.278 1233 901.778 1228.11 910 1225.92Z" fill="black"/>
<path fill-rule="evenodd" clip-rule="evenodd" d="M1016 1225.92C1046.86 1224.41 1064.19 1237.72 1068 1265.85C1064.09 1294.53 1046.42 1307.69 1015 1305.32C989.107 1298.05 977.941 1281.98 981.5 1257.13C986.282 1240.35 997.782 1229.94 1016 1225.92ZM1021 1240.6C1038.84 1241.23 1048.84 1249.64 1051 1265.85C1050.71 1274.64 1046.71 1281.67 1039 1286.96C1022.33 1294.34 1009.16 1290.82 999.5 1276.41C993.653 1257.78 1000.82 1245.84 1021 1240.6Z" fill="black"/>
<path fill-rule="evenodd" clip-rule="evenodd" d="M1076 1225.92C1096 1225.76 1116 1225.92 1136 1226.38C1149.87 1230.87 1155.71 1239.9 1153.5 1253.46C1150.37 1262.77 1143.54 1268.13 1133 1269.52C1119.34 1269.98 1105.67 1270.13 1092 1269.98C1092 1281.91 1092 1293.85 1092 1305.78C1086.67 1305.78 1081.33 1305.78 1076 1305.78C1076 1279.16 1076 1252.54 1076 1225.92ZM1092 1240.6C1105.34 1240.45 1118.67 1240.6 1132 1241.06C1139.43 1245.05 1139.77 1249.33 1133 1253.92C1119.34 1254.37 1105.67 1254.53 1092 1254.37C1092 1249.78 1092 1245.19 1092 1240.6Z" fill="black"/>
<path fill-rule="evenodd" clip-rule="evenodd" d="M1165 1225.92C1170.67 1225.92 1176.33 1225.92 1182 1225.92C1181.83 1245.2 1182 1264.47 1182.5 1283.75C1183.99 1287.42 1186.82 1289.71 1191 1290.63C1206.33 1291.09 1221.66 1291.25 1237 1291.09C1237 1295.99 1237 1300.88 1237 1305.78C1220 1305.93 1203 1305.78 1186 1305.32C1174.09 1301.73 1167.26 1294.24 1165.5 1282.83C1165 1263.86 1164.83 1244.89 1165 1225.92Z" fill="black"/>
<path fill-rule="evenodd" clip-rule="evenodd" d="M1266 1225.92C1289 1225.92 1312 1225.92 1335 1225.92C1335 1230.81 1335 1235.71 1335 1240.6C1313.33 1240.45 1291.66 1240.6 1270 1241.06C1267.83 1241.83 1266.33 1243.21 1265.5 1245.19C1265 1248.24 1264.83 1251.3 1265 1254.37C1283.33 1254.37 1301.67 1254.37 1320 1254.37C1320 1259.58 1320 1264.78 1320 1269.98C1301.67 1269.98 1283.33 1269.98 1265 1269.98C1264.83 1275.8 1265 1281.61 1265.5 1287.42C1266.71 1288.84 1268.21 1289.91 1270 1290.63C1291.66 1291.09 1313.33 1291.25 1335 1291.09C1335 1295.99 1335 1300.88 1335 1305.78C1312 1305.93 1289 1305.78 1266 1305.32C1255.49 1302.71 1249.65 1296.44 1248.5 1286.5C1247.59 1271.17 1247.93 1255.87 1249.5 1240.6C1252.28 1233 1257.78 1228.11 1266 1225.92Z" fill="black"/>
<path fill-rule="evenodd" clip-rule="evenodd" d="M1536 1225.92C1541.67 1225.92 1547.33 1225.92 1553 1225.92C1553 1252.54 1553 1279.16 1553 1305.78C1547.33 1305.78 1541.67 1305.78 1536 1305.78C1536 1279.16 1536 1252.54 1536 1225.92Z" fill="black"/>
<path fill-rule="evenodd" clip-rule="evenodd" d="M1564 1225.92C1587.62 1242.24 1611.12 1258.77 1634.5 1275.49C1635 1258.97 1635.17 1242.44 1635 1225.92C1640.33 1225.92 1645.67 1225.92 1651 1225.92C1651.33 1252.55 1651 1279.17 1650 1305.78C1626.82 1289.79 1603.82 1273.57 1581 1257.13C1580 1273.33 1579.67 1289.55 1580 1305.78C1574.67 1305.78 1569.33 1305.78 1564 1305.78C1564 1279.16 1564 1252.54 1564 1225.92Z" fill="black"/>
<path fill-rule="evenodd" clip-rule="evenodd" d="M1662 1225.92C1685.61 1242.22 1709.11 1258.74 1732.5 1275.49C1733 1258.97 1733.17 1242.44 1733 1225.92C1738.33 1225.92 1743.67 1225.92 1749 1225.92C1749.33 1252.55 1749 1279.17 1748 1305.78C1724.82 1289.79 1701.82 1273.57 1679 1257.13C1678 1273.33 1677.67 1289.55 1678 1305.78C1672.67 1305.78 1667.33 1305.78 1662 1305.78C1662 1279.16 1662 1252.54 1662 1225.92Z" fill="black"/>
<path fill-rule="evenodd" clip-rule="evenodd" d="M1792 1225.92C1819.34 1223.69 1836.51 1234.71 1843.5 1258.96C1845.73 1276.74 1838.89 1290.67 1823 1300.73C1799.11 1310.74 1779.28 1306.3 1763.5 1287.42C1752.19 1266.51 1756.02 1248.31 1775 1232.8C1780.5 1229.97 1786.17 1227.67 1792 1225.92ZM1797 1240.6C1815.34 1240.76 1825.67 1249.18 1828 1265.85C1826.15 1281.01 1816.98 1289.43 1800.5 1291.09C1784.02 1289.43 1774.85 1281.01 1773 1265.85C1774.51 1252.08 1782.51 1243.67 1797 1240.6Z" fill="black"/>
<path fill-rule="evenodd" clip-rule="evenodd" d="M1847 1226.84C1853.18 1225.63 1859.51 1225.63 1866 1226.84C1874.24 1242.28 1882.74 1257.58 1891.5 1272.73C1900.26 1257.58 1908.76 1242.28 1917 1226.84C1923.31 1225.77 1929.64 1225.61 1936 1226.38C1921.55 1253.06 1906.72 1279.53 1891.5 1305.78C1876.38 1279.55 1861.55 1253.24 1847 1226.84Z" fill="black"/>
<path fill-rule="evenodd" clip-rule="evenodd" d="M1955 1225.92C1970.61 1251.97 1985.61 1278.44 2000 1305.32C1993.64 1306.08 1987.31 1305.93 1981 1304.86C1972.76 1289.42 1964.26 1274.12 1955.5 1258.96C1947.26 1274.41 1938.76 1289.71 1930 1304.86C1923.69 1305.93 1917.36 1306.08 1911 1305.32C1925.55 1278.76 1940.22 1252.29 1955 1225.92Z" fill="black"/>
<path fill-rule="evenodd" clip-rule="evenodd" d="M1982 1225.92C2011 1225.92 2040 1225.92 2069 1225.92C2069 1230.81 2069 1235.71 2069 1240.6C2057.33 1240.6 2045.67 1240.6 2034 1240.6C2034 1262.33 2034 1284.05 2034 1305.78C2028.33 1305.78 2022.67 1305.78 2017 1305.78C2017 1284.05 2017 1262.33 2017 1240.6C2005.33 1240.6 1993.67 1240.6 1982 1240.6C1982 1235.71 1982 1230.81 1982 1225.92Z" fill="black"/>
<path fill-rule="evenodd" clip-rule="evenodd" d="M2080 1225.92C2085.33 1225.92 2090.67 1225.92 2096 1225.92C2096 1252.54 2096 1279.16 2096 1305.78C2090.67 1305.78 2085.33 1305.78 2080 1305.78C2080 1279.16 2080 1252.54 2080 1225.92Z" fill="black"/>
<path fill-rule="evenodd" clip-rule="evenodd" d="M2140 1225.92C2166.18 1223.82 2183.01 1234.22 2190.5 1257.13C2194.06 1281.98 2182.89 1298.05 2157 1305.32C2130.31 1308.31 2113.15 1298.05 2105.5 1274.57C2102.07 1249.16 2113.57 1232.94 2140 1225.92ZM2145 1240.61C2166.09 1242.06 2175.92 1252.47 2174.5 1271.82C2167.72 1288.16 2155.22 1293.82 2137 1288.8C2120.6 1279.72 2116.76 1267.33 2125.5 1251.62C2130.69 1245.75 2137.19 1242.08 2145 1240.61Z" fill="black"/>
<path fill-rule="evenodd" clip-rule="evenodd" d="M2200 1225.92C2223.15 1241.9 2246.15 1258.12 2269 1274.57C2270 1258.36 2270.33 1242.15 2270 1225.92C2275.33 1225.92 2280.67 1225.92 2286 1225.92C2286.33 1252.55 2286 1279.17 2285 1305.78C2262.31 1289.39 2239.48 1273.17 2216.5 1257.13C2216 1273.34 2215.83 1289.56 2216 1305.78C2210.67 1305.78 2205.33 1305.78 2200 1305.78C2200 1279.16 2200 1252.54 2200 1225.92Z" fill="black"/>
<path fill-rule="evenodd" clip-rule="evenodd" d="M673 1260.8C692.667 1260.8 712.333 1260.8 732 1260.8C732 1265.7 732 1270.59 732 1275.49C712.333 1275.49 692.667 1275.49 673 1275.49C673 1270.59 673 1265.7 673 1260.8Z" fill="black"/>
<path fill-rule="evenodd" clip-rule="evenodd" d="M1406 1260.8C1425.67 1260.8 1445.33 1260.8 1465 1260.8C1465 1265.7 1465 1270.59 1465 1275.49C1445.33 1275.49 1425.67 1275.49 1406 1275.49C1406 1270.59 1406 1265.7 1406 1260.8Z" fill="black"/>
</svg>
