<svg width="115" height="416" viewBox="0 0 115 416" fill="none" xmlns="http://www.w3.org/2000/svg">
<g clip-path="url(#clip0_69_935)">
<mask id="mask0_69_935" style="mask-type:luminance" maskUnits="userSpaceOnUse" x="7" y="10" width="101" height="406">
<path d="M107.286 10.0931L7.28613 10.0931L7.28613 415.093H107.286L107.286 10.0931Z" fill="white"/>
</mask>
<g mask="url(#mask0_69_935)">
<mask id="mask1_69_935" style="mask-type:alpha" maskUnits="userSpaceOnUse" x="7" y="4" width="101" height="412">
<path d="M7.28613 4.09311L107.286 4.09311L77.2861 415.093H37.2861L7.28613 4.09311Z" fill="#D9D9D9"/>
</mask>
<g mask="url(#mask1_69_935)">
<path d="M57.7861 415.093C98.9313 415.093 132.286 381.738 132.286 340.593C132.286 299.448 98.9313 266.093 57.7861 266.093C16.6409 266.093 -16.7139 299.448 -16.7139 340.593C-16.7139 381.738 16.6409 415.093 57.7861 415.093Z" fill="#E41313"/>
<path d="M57.7861 336.093C98.9313 336.093 132.286 302.738 132.286 261.593C132.286 220.448 98.9313 187.093 57.7861 187.093C16.6409 187.093 -16.7139 220.448 -16.7139 261.593C-16.7139 302.738 16.6409 336.093 57.7861 336.093Z" fill="white"/>
<path d="M57.7861 257.093C98.9313 257.093 132.286 223.738 132.286 182.593C132.286 141.448 98.9313 108.093 57.7861 108.093C16.6409 108.093 -16.7139 141.448 -16.7139 182.593C-16.7139 223.738 16.6409 257.093 57.7861 257.093Z" fill="#E41313"/>
<path d="M57.7861 178.093C98.9313 178.093 132.286 144.738 132.286 103.593C132.286 62.4479 98.9313 29.0931 57.7861 29.0931C16.6409 29.0931 -16.7139 62.4479 -16.7139 103.593C-16.7139 144.738 16.6409 178.093 57.7861 178.093Z" fill="white"/>
<path d="M57.7861 99.0931C98.9313 99.0931 132.286 65.7383 132.286 24.5931C132.286 -16.5521 98.9313 -49.9069 57.7861 -49.9069C16.6409 -49.9069 -16.7139 -16.5521 -16.7139 24.5931C-16.7139 65.7383 16.6409 99.0931 57.7861 99.0931Z" fill="#E41313"/>
</g>
</g>
<path d="M106.786 11.5931C106.786 12.2298 106.508 12.8916 105.897 13.5784C105.283 14.2683 104.355 14.9577 103.118 15.6302C100.645 16.9748 97.0342 18.2014 92.5294 19.2376C83.5277 21.3079 71.067 22.5931 57.2861 22.5931C43.5052 22.5931 31.0445 21.3079 22.0428 19.2376C17.538 18.2014 13.9269 16.9748 11.4542 15.6302C10.2176 14.9577 9.28931 14.2683 8.67551 13.5784C8.06445 12.8916 7.78613 12.2298 7.78613 11.5931C7.78613 10.9564 8.06445 10.2946 8.67551 9.60781C9.28931 8.91791 10.2176 8.2285 11.4542 7.55605C13.9269 6.21145 17.538 4.98478 22.0428 3.94866C31.0445 1.87827 43.5052 0.593109 57.2861 0.593109C71.067 0.593109 83.5277 1.87827 92.5294 3.94866C97.0342 4.98478 100.645 6.21145 103.118 7.55605C104.355 8.2285 105.283 8.91791 105.897 9.60781C106.508 10.2946 106.786 10.9564 106.786 11.5931Z" fill="#8B2424" stroke="black"/>
</g>
<defs>
<clipPath id="clip0_69_935">
<rect width="114" height="415" fill="white" transform="translate(0.286133 0.0931091)"/>
</clipPath>
</defs>
</svg>
