<svg width="315" height="610" viewBox="0 0 315 610" fill="none" xmlns="http://www.w3.org/2000/svg">
<path d="M196 0L314.19 40.696L118.22 609.833L0.0304741 569.137L196 0Z" fill="black"/>
<path d="M66.7324 531.799C64.917 531.174 63.5165 529.967 62.5309 528.177C61.575 526.366 61.0927 524.163 61.084 521.567C61.0848 518.944 61.603 516.128 62.6387 513.12C63.6743 510.112 64.9852 507.616 66.5711 505.631C68.1666 503.619 69.8889 502.221 71.7379 501.438C73.6166 500.634 75.4637 500.544 77.2791 501.17C79.1147 501.802 80.5151 503.009 81.4805 504.792C82.4554 506.548 82.952 508.71 82.9702 511.278C82.9979 513.818 82.4939 516.593 81.4583 519.6C80.4131 522.636 79.088 525.174 77.4831 527.214C75.8781 529.254 74.1315 530.69 72.2433 531.521C70.3847 532.332 68.5478 532.424 66.7324 531.799ZM68.5567 526.501C69.5854 526.855 70.5941 526.678 71.5828 525.969C72.5715 525.26 73.4933 524.188 74.3481 522.754C75.2029 521.32 75.9439 519.692 76.571 517.871C77.1981 516.05 77.6068 514.339 77.7972 512.737C77.9875 511.136 77.9019 509.78 77.5403 508.667C77.1787 507.555 76.4835 506.822 75.4548 506.468C74.4261 506.113 73.4221 506.277 72.4429 506.958C71.4732 507.612 70.5705 508.629 69.7346 510.008C68.8988 511.387 68.1721 512.973 67.5545 514.767C66.9179 516.615 66.4949 518.368 66.2856 520.024C66.0762 521.681 66.1428 523.093 66.4854 524.26C66.8577 525.407 67.5481 526.154 68.5567 526.501Z" fill="white"/>
<path d="M80.7568 536.165L82.467 531.198C85.2336 529.651 87.5581 528.306 89.4405 527.164C91.3525 526.001 92.9156 524.934 94.1299 523.964C95.3643 523 96.3287 522.066 97.0232 521.163C97.7177 520.26 98.2407 519.298 98.5922 518.277C99.0103 517.063 99.0913 516.042 98.8352 515.213C98.6088 514.363 98.0721 513.792 97.2249 513.501C96.3373 513.195 95.4728 513.314 94.6313 513.858C93.7898 514.401 93.0752 515.297 92.4874 516.546L87.8279 514.941C89.0189 512.203 90.6162 510.284 92.6196 509.183C94.6325 508.055 96.7887 507.887 99.0882 508.679C101.428 509.485 102.968 510.941 103.709 513.048C104.46 515.128 104.332 517.63 103.325 520.555C102.849 521.935 102.222 523.2 101.442 524.351C100.682 525.51 99.6862 526.633 98.4541 527.721C97.222 528.809 95.6601 529.938 93.7682 531.108C91.906 532.257 89.6302 533.526 86.9408 534.915L86.4627 532.667L98.2325 536.719L96.5507 541.604L80.7568 536.165Z" fill="white"/>
<path d="M254.125 83.6754L252.414 88.6424C249.648 90.1899 247.323 91.5348 245.441 92.6769C243.529 93.8396 241.966 94.9064 240.752 95.8773C239.517 96.8412 238.553 97.7746 237.858 98.6776C237.164 99.5805 236.641 100.542 236.289 101.563C235.871 102.778 235.79 103.799 236.046 104.628C236.273 105.478 236.809 106.048 237.657 106.34C238.544 106.646 239.409 106.527 240.25 105.983C241.092 105.439 241.806 104.543 242.394 103.295L247.054 104.9C245.862 107.638 244.265 109.557 242.262 110.657C240.249 111.785 238.093 111.954 235.793 111.162C233.453 110.356 231.913 108.9 231.172 106.793C230.421 104.713 230.55 102.211 231.557 99.2858C232.032 97.9061 232.66 96.6406 233.439 95.4893C234.199 94.3311 235.195 93.2079 236.427 92.1197C237.659 91.0315 239.221 89.9025 241.113 88.7328C242.975 87.5838 245.251 86.3148 247.941 84.9259L248.419 87.174L236.649 83.1213L238.331 78.2371L254.125 83.6754Z" fill="white"/>
<path d="M224.691 73.0775C226.506 73.7025 227.907 74.9101 228.892 76.7002C229.848 78.5109 230.33 80.7141 230.339 83.3099C230.338 85.9333 229.82 88.7488 228.784 91.7566C227.749 94.7644 226.438 97.2608 224.852 99.2457C223.256 101.258 221.534 102.656 219.685 103.439C217.806 104.243 215.959 104.332 214.144 103.707C212.308 103.075 210.908 101.868 209.942 100.085C208.968 98.3291 208.471 96.1673 208.453 93.5991C208.425 91.0585 208.929 88.2843 209.965 85.2765C211.01 82.2411 212.335 79.7034 213.94 77.6633C215.545 75.6231 217.292 74.1874 219.18 73.356C221.038 72.5452 222.875 72.4524 224.691 73.0775ZM222.866 78.3756C221.838 78.0214 220.829 78.1988 219.84 78.9078C218.852 79.6168 217.93 80.6884 217.075 82.1226C216.22 83.5567 215.479 85.1844 214.852 87.0057C214.225 88.8269 213.816 90.5381 213.626 92.1394C213.436 93.7406 213.521 95.0973 213.883 96.2096C214.244 97.3218 214.94 98.055 215.968 98.4092C216.997 98.7634 218.001 98.5998 218.98 97.9184C219.95 97.2646 220.853 96.2482 221.688 94.8692C222.524 93.4902 223.251 91.9039 223.869 90.1103C224.505 88.2615 224.928 86.5088 225.137 84.8524C225.347 83.196 225.28 81.7841 224.938 80.6167C224.565 79.4699 223.875 78.7229 222.866 78.3756Z" fill="white"/>
<path d="M19.6785 527.433L24.4061 529.061L11.0445 567.865L6.3169 566.238L19.6785 527.433Z" fill="white"/>
<path d="M29.1336 530.688L33.8612 532.316L20.4997 571.121L15.7721 569.493L29.1336 530.688Z" fill="white"/>
<path d="M38.5888 533.944L43.3164 535.572L29.9549 574.377L25.2273 572.749L38.5888 533.944Z" fill="white"/>
<path d="M48.044 537.2L52.7716 538.828L39.41 577.632L34.6825 576.005L48.044 537.2Z" fill="white"/>
<path d="M57.4992 540.455L62.2268 542.083L48.8652 580.888L44.1376 579.26L57.4992 540.455Z" fill="white"/>
<path d="M104.641 449.62L109.368 451.248L98.2335 483.586L93.5059 481.958L104.641 449.62Z" fill="white"/>
<path d="M122.456 397.881L127.184 399.509L116.049 431.846L111.321 430.218L122.456 397.881Z" fill="white"/>
<path d="M138.044 352.608L142.772 354.236L131.637 386.574L126.91 384.946L138.044 352.608Z" fill="white"/>
<path d="M153.633 307.336L158.36 308.964L147.226 341.301L142.498 339.674L153.633 307.336Z" fill="white"/>
<path d="M169.221 262.064L173.949 263.692L162.814 296.029L158.087 294.401L169.221 262.064Z" fill="white"/>
<path d="M184.81 216.792L189.537 218.42L178.403 250.757L173.675 249.129L184.81 216.792Z" fill="white"/>
<path d="M200.398 171.52L205.126 173.147L193.991 205.485L189.264 203.857L200.398 171.52Z" fill="white"/>
<path d="M215.987 126.247L220.714 127.875L209.58 160.212L204.852 158.585L215.987 126.247Z" fill="white"/>
<path d="M85.8648 550.222L90.5924 551.85L77.2308 590.655L72.5032 589.027L85.8648 550.222Z" fill="white"/>
<path d="M95.3199 553.478L100.048 555.106L86.686 593.911L81.9584 592.283L95.3199 553.478Z" fill="white"/>
<path d="M104.775 556.734L109.503 558.362L96.1412 597.166L91.4136 595.539L104.775 556.734Z" fill="white"/>
<path d="M114.23 559.99L118.958 561.617L105.596 600.422L100.869 598.794L114.23 559.99Z" fill="white"/>
<path d="M123.686 563.245L128.413 564.873L115.052 603.678L110.324 602.05L123.686 563.245Z" fill="white"/>
<path d="M198.501 8.0953L203.228 9.72315L189.867 48.5279L185.139 46.9001L198.501 8.0953Z" fill="white"/>
<path d="M259.649 137.664L273.831 142.548L253.789 200.755L239.606 195.871L259.649 137.664Z" fill="white"/>
<path d="M165.097 105.107L179.28 109.991L159.237 168.198L145.054 163.314L165.097 105.107Z" fill="white"/>
<path d="M154.983 441.635L169.166 446.518L149.124 504.726L134.941 499.842L154.983 441.635Z" fill="white"/>
<path d="M60.4312 409.078L74.614 413.962L54.5717 472.169L40.3889 467.285L60.4312 409.078Z" fill="white"/>
<path d="M207.956 11.351L212.683 12.9788L199.322 51.7836L194.594 50.1558L207.956 11.351Z" fill="white"/>
<path d="M217.411 14.6067L222.139 16.2345L208.777 55.0393L204.049 53.4115L217.411 14.6067Z" fill="white"/>
<path d="M226.866 17.8623L231.594 19.4902L218.232 58.295L213.505 56.6671L226.866 17.8623Z" fill="white"/>
<path d="M236.321 21.118L241.049 22.7459L227.687 61.5507L222.96 59.9228L236.321 21.118Z" fill="white"/>
<path d="M264.687 30.8851L269.415 32.5129L256.053 71.3177L251.325 69.6899L264.687 30.8851Z" fill="white"/>
<path d="M274.142 34.1408L278.87 35.7686L265.508 74.5734L260.781 72.9455L274.142 34.1408Z" fill="white"/>
<path d="M283.597 37.3964L288.325 39.0243L274.963 77.8291L270.236 76.2012L283.597 37.3964Z" fill="white"/>
<path d="M293.053 40.6521L297.78 42.28L284.419 81.0847L279.691 79.4569L293.053 40.6521Z" fill="white"/>
<path d="M302.508 43.9078L307.235 45.5356L293.874 84.3404L289.146 82.7126L302.508 43.9078Z" fill="white"/>
</svg>
