<svg width="179" height="208" viewBox="0 0 179 208" fill="none" xmlns="http://www.w3.org/2000/svg">
<path d="M99.25 58L99.25 132.5M99.25 58L118.5 77.6597M99.25 58L80 77.6597" stroke="white" stroke-width="12" stroke-linecap="round" stroke-linejoin="round"/>
<path d="M82.8711 151H80.127V140.658C79.1243 141.596 77.9427 142.289 76.582 142.738V140.248C77.2982 140.014 78.0762 139.571 78.916 138.92C79.7559 138.262 80.332 137.497 80.6445 136.625H82.8711V151ZM93.6211 136.625C95.0078 136.625 96.0918 137.12 96.873 138.109C97.804 139.281 98.2695 141.225 98.2695 143.939C98.2695 146.648 97.8008 148.594 96.8633 149.779C96.0885 150.756 95.0078 151.244 93.6211 151.244C92.2279 151.244 91.1048 150.71 90.252 149.643C89.3991 148.568 88.9727 146.658 88.9727 143.91C88.9727 141.215 89.4414 139.275 90.3789 138.09C91.1536 137.113 92.2344 136.625 93.6211 136.625ZM93.6211 138.9C93.2891 138.9 92.9928 139.008 92.7324 139.223C92.472 139.431 92.2702 139.809 92.127 140.355C91.9382 141.065 91.8438 142.26 91.8438 143.939C91.8438 145.619 91.9284 146.775 92.0977 147.406C92.2669 148.031 92.4785 148.448 92.7324 148.656C92.9928 148.865 93.2891 148.969 93.6211 148.969C93.9531 148.969 94.2493 148.865 94.5098 148.656C94.7702 148.441 94.972 148.061 95.1152 147.514C95.304 146.811 95.3984 145.619 95.3984 143.939C95.3984 142.26 95.3138 141.107 95.1445 140.482C94.9753 139.851 94.7604 139.431 94.5 139.223C94.2461 139.008 93.9531 138.9 93.6211 138.9ZM102.604 151V136.684H105.348V144.281L108.561 140.629H111.939L108.395 144.418L112.193 151H109.234L106.627 146.342L105.348 147.68V151H102.604ZM120.59 140.629V142.816H118.715V146.996C118.715 147.842 118.731 148.337 118.764 148.48C118.803 148.617 118.884 148.731 119.008 148.822C119.138 148.913 119.294 148.959 119.477 148.959C119.73 148.959 120.098 148.871 120.58 148.695L120.814 150.824C120.176 151.098 119.454 151.234 118.646 151.234C118.152 151.234 117.706 151.153 117.309 150.99C116.911 150.821 116.618 150.606 116.43 150.346C116.247 150.079 116.12 149.721 116.049 149.271C115.99 148.952 115.961 148.308 115.961 147.338V142.816H114.701V140.629H115.961V138.568L118.715 136.967V140.629H120.59Z" fill="white"/>
<g clip-path="url(#clip0_69_958)">
<path d="M92 39.25H29.5M92 39.25L72.3403 58.5M92 39.25L72.3403 20" stroke="white" stroke-width="12" stroke-linecap="round" stroke-linejoin="round"/>
<path d="M0.888672 67.3184L3.62305 67.0352C3.70117 67.6536 3.93229 68.1452 4.31641 68.5098C4.70052 68.8678 5.14323 69.0469 5.64453 69.0469C6.21745 69.0469 6.70247 68.8158 7.09961 68.3535C7.49674 67.8848 7.69531 67.1816 7.69531 66.2441C7.69531 65.3652 7.49674 64.7077 7.09961 64.2715C6.70898 63.8288 6.19792 63.6074 5.56641 63.6074C4.77865 63.6074 4.07227 63.9557 3.44727 64.6523L1.2207 64.3301L2.62695 56.8789H9.88281V59.4473H4.70703L4.27734 61.8789C4.88932 61.5729 5.51432 61.4199 6.15234 61.4199C7.36979 61.4199 8.40169 61.8626 9.24805 62.748C10.0944 63.6335 10.5176 64.7826 10.5176 66.1953C10.5176 67.3737 10.1758 68.4251 9.49219 69.3496C8.5612 70.6126 7.26888 71.2441 5.61523 71.2441C4.29362 71.2441 3.21615 70.8893 2.38281 70.1797C1.54948 69.4701 1.05143 68.5163 0.888672 67.3184ZM14.4707 71V56.6836H17.2148V64.2812L20.4277 60.6289H23.8066L20.2617 64.418L24.0605 71H21.1016L18.4941 66.3418L17.2148 67.6797V71H14.4707ZM32.457 60.6289V62.8164H30.582V66.9961C30.582 67.8424 30.5983 68.3372 30.6309 68.4805C30.6699 68.6172 30.7513 68.7311 30.875 68.8223C31.0052 68.9134 31.1615 68.959 31.3438 68.959C31.5977 68.959 31.9655 68.8711 32.4473 68.6953L32.6816 70.8242C32.0436 71.0977 31.321 71.2344 30.5137 71.2344C30.0189 71.2344 29.5729 71.153 29.1758 70.9902C28.7786 70.821 28.4857 70.6061 28.2969 70.3457C28.1146 70.0788 27.9876 69.7207 27.916 69.2715C27.8574 68.9525 27.8281 68.3079 27.8281 67.3379V62.8164H26.5684V60.6289H27.8281V58.5684L30.582 56.9668V60.6289H32.457Z" fill="white"/>
</g>
<path d="M39.7578 194V176.82H47.0586C48.8945 176.82 50.2266 176.977 51.0547 177.289C51.8906 177.594 52.5586 178.141 53.0586 178.93C53.5586 179.719 53.8086 180.621 53.8086 181.637C53.8086 182.926 53.4297 183.992 52.6719 184.836C51.9141 185.672 50.7812 186.199 49.2734 186.418C50.0234 186.855 50.6406 187.336 51.125 187.859C51.6172 188.383 52.2773 189.312 53.1055 190.648L55.2031 194H51.0547L48.5469 190.262C47.6562 188.926 47.0469 188.086 46.7188 187.742C46.3906 187.391 46.043 187.152 45.6758 187.027C45.3086 186.895 44.7266 186.828 43.9297 186.828H43.2266V194H39.7578ZM43.2266 184.086H45.793C47.457 184.086 48.4961 184.016 48.9102 183.875C49.3242 183.734 49.6484 183.492 49.8828 183.148C50.1172 182.805 50.2344 182.375 50.2344 181.859C50.2344 181.281 50.0781 180.816 49.7656 180.465C49.4609 180.105 49.0273 179.879 48.4648 179.785C48.1836 179.746 47.3398 179.727 45.9336 179.727H43.2266V184.086ZM61.482 194L57.3805 176.82H60.9312L63.5211 188.621L66.6617 176.82H70.7867L73.7984 188.82L76.4352 176.82H79.9273L75.7555 194H72.0758L68.6539 181.156L65.2437 194H61.482ZM88.6203 194V186.77L82.3273 176.82H86.3937L90.4367 183.617L94.3977 176.82H98.3937L92.0773 186.793V194H88.6203ZM121.545 190.941V194H110.002C110.127 192.844 110.502 191.75 111.127 190.719C111.752 189.68 112.987 188.305 114.83 186.594C116.315 185.211 117.225 184.273 117.561 183.781C118.014 183.102 118.241 182.43 118.241 181.766C118.241 181.031 118.041 180.469 117.643 180.078C117.252 179.68 116.709 179.48 116.014 179.48C115.327 179.48 114.78 179.688 114.373 180.102C113.967 180.516 113.733 181.203 113.67 182.164L110.389 181.836C110.584 180.023 111.198 178.723 112.229 177.934C113.26 177.145 114.549 176.75 116.096 176.75C117.791 176.75 119.123 177.207 120.092 178.121C121.061 179.035 121.545 180.172 121.545 181.531C121.545 182.305 121.405 183.043 121.123 183.746C120.85 184.441 120.412 185.172 119.811 185.938C119.412 186.445 118.694 187.176 117.655 188.129C116.616 189.082 115.955 189.715 115.674 190.027C115.401 190.34 115.178 190.645 115.006 190.941H121.545ZM131.75 176.75C133.414 176.75 134.715 177.344 135.652 178.531C136.77 179.938 137.328 182.27 137.328 185.527C137.328 188.777 136.766 191.113 135.641 192.535C134.711 193.707 133.414 194.293 131.75 194.293C130.078 194.293 128.73 193.652 127.707 192.371C126.684 191.082 126.172 188.789 126.172 185.492C126.172 182.258 126.734 179.93 127.859 178.508C128.789 177.336 130.086 176.75 131.75 176.75ZM131.75 179.48C131.352 179.48 130.996 179.609 130.684 179.867C130.371 180.117 130.129 180.57 129.957 181.227C129.73 182.078 129.617 183.512 129.617 185.527C129.617 187.543 129.719 188.93 129.922 189.688C130.125 190.438 130.379 190.938 130.684 191.188C130.996 191.438 131.352 191.562 131.75 191.562C132.148 191.562 132.504 191.438 132.816 191.188C133.129 190.93 133.371 190.473 133.543 189.816C133.77 188.973 133.883 187.543 133.883 185.527C133.883 183.512 133.781 182.129 133.578 181.379C133.375 180.621 133.117 180.117 132.805 179.867C132.5 179.609 132.148 179.48 131.75 179.48Z" fill="white"/>
<defs>
<clipPath id="clip0_69_958">
<rect width="77" height="99" fill="white" transform="matrix(0 -1 1 0 0 77)"/>
</clipPath>
</defs>
</svg>
