<svg width="179" height="208" viewBox="0 0 179 208" fill="none" xmlns="http://www.w3.org/2000/svg">
<path d="M70.25 116.5L70.25 42M70.25 116.5L89.5 96.8403M70.25 116.5L51 96.8403" stroke="white" stroke-width="12" stroke-linecap="round" stroke-linejoin="round"/>
<path d="M53.8711 30H51.127V19.6582C50.1243 20.5957 48.9427 21.2891 47.582 21.7383V19.248C48.2982 19.0137 49.0762 18.571 49.916 17.9199C50.7559 17.2624 51.332 16.4974 51.6445 15.625H53.8711V30ZM64.6211 15.625C66.0078 15.625 67.0918 16.1198 67.873 17.1094C68.804 18.2812 69.2695 20.2246 69.2695 22.9395C69.2695 25.6478 68.8008 27.5944 67.8633 28.7793C67.0885 29.7559 66.0078 30.2441 64.6211 30.2441C63.2279 30.2441 62.1048 29.7103 61.252 28.6426C60.3991 27.5684 59.9727 25.6576 59.9727 22.9102C59.9727 20.2148 60.4414 18.2747 61.3789 17.0898C62.1536 16.1133 63.2344 15.625 64.6211 15.625ZM64.6211 17.9004C64.2891 17.9004 63.9928 18.0078 63.7324 18.2227C63.472 18.431 63.2702 18.8086 63.127 19.3555C62.9382 20.0651 62.8438 21.2598 62.8438 22.9395C62.8438 24.6191 62.9284 25.7747 63.0977 26.4062C63.2669 27.0312 63.4785 27.4479 63.7324 27.6562C63.9928 27.8646 64.2891 27.9688 64.6211 27.9688C64.9531 27.9688 65.2493 27.8646 65.5098 27.6562C65.7702 27.4414 65.972 27.0605 66.1152 26.5137C66.304 25.8105 66.3984 24.6191 66.3984 22.9395C66.3984 21.2598 66.3138 20.1074 66.1445 19.4824C65.9753 18.8509 65.7604 18.431 65.5 18.2227C65.2461 18.0078 64.9531 17.9004 64.6211 17.9004ZM73.6035 30V15.6836H76.3477V23.2812L79.5605 19.6289H82.9395L79.3945 23.418L83.1934 30H80.2344L77.627 25.3418L76.3477 26.6797V30H73.6035ZM91.5898 19.6289V21.8164H89.7148V25.9961C89.7148 26.8424 89.7311 27.3372 89.7637 27.4805C89.8027 27.6172 89.8841 27.7311 90.0078 27.8223C90.138 27.9134 90.2943 27.959 90.4766 27.959C90.7305 27.959 91.0983 27.8711 91.5801 27.6953L91.8145 29.8242C91.1764 30.0977 90.4538 30.2344 89.6465 30.2344C89.1517 30.2344 88.7057 30.153 88.3086 29.9902C87.9115 29.821 87.6185 29.6061 87.4297 29.3457C87.2474 29.0788 87.1204 28.7207 87.0488 28.2715C86.9902 27.9525 86.9609 27.3079 86.9609 26.3379V21.8164H85.7012V19.6289H86.9609V17.5684L89.7148 15.9668V19.6289H91.5898Z" fill="white"/>
<path d="M86 133.25H148.5M86 133.25L105.66 152.5M86 133.25L105.66 114" stroke="white" stroke-width="12" stroke-linecap="round" stroke-linejoin="round"/>
<path d="M111.889 161.318L114.623 161.035C114.701 161.654 114.932 162.145 115.316 162.51C115.701 162.868 116.143 163.047 116.645 163.047C117.217 163.047 117.702 162.816 118.1 162.354C118.497 161.885 118.695 161.182 118.695 160.244C118.695 159.365 118.497 158.708 118.1 158.271C117.709 157.829 117.198 157.607 116.566 157.607C115.779 157.607 115.072 157.956 114.447 158.652L112.221 158.33L113.627 150.879H120.883V153.447H115.707L115.277 155.879C115.889 155.573 116.514 155.42 117.152 155.42C118.37 155.42 119.402 155.863 120.248 156.748C121.094 157.633 121.518 158.783 121.518 160.195C121.518 161.374 121.176 162.425 120.492 163.35C119.561 164.613 118.269 165.244 116.615 165.244C115.294 165.244 114.216 164.889 113.383 164.18C112.549 163.47 112.051 162.516 111.889 161.318ZM125.471 165V150.684H128.215V158.281L131.428 154.629H134.807L131.262 158.418L135.061 165H132.102L129.494 160.342L128.215 161.68V165H125.471ZM143.457 154.629V156.816H141.582V160.996C141.582 161.842 141.598 162.337 141.631 162.48C141.67 162.617 141.751 162.731 141.875 162.822C142.005 162.913 142.161 162.959 142.344 162.959C142.598 162.959 142.965 162.871 143.447 162.695L143.682 164.824C143.044 165.098 142.321 165.234 141.514 165.234C141.019 165.234 140.573 165.153 140.176 164.99C139.779 164.821 139.486 164.606 139.297 164.346C139.115 164.079 138.988 163.721 138.916 163.271C138.857 162.952 138.828 162.308 138.828 161.338V156.816H137.568V154.629H138.828V152.568L141.582 150.967V154.629H143.457Z" fill="white"/>
<path d="M39.7578 194V176.82H47.0586C48.8945 176.82 50.2266 176.977 51.0547 177.289C51.8906 177.594 52.5586 178.141 53.0586 178.93C53.5586 179.719 53.8086 180.621 53.8086 181.637C53.8086 182.926 53.4297 183.992 52.6719 184.836C51.9141 185.672 50.7812 186.199 49.2734 186.418C50.0234 186.855 50.6406 187.336 51.125 187.859C51.6172 188.383 52.2773 189.312 53.1055 190.648L55.2031 194H51.0547L48.5469 190.262C47.6562 188.926 47.0469 188.086 46.7188 187.742C46.3906 187.391 46.043 187.152 45.6758 187.027C45.3086 186.895 44.7266 186.828 43.9297 186.828H43.2266V194H39.7578ZM43.2266 184.086H45.793C47.457 184.086 48.4961 184.016 48.9102 183.875C49.3242 183.734 49.6484 183.492 49.8828 183.148C50.1172 182.805 50.2344 182.375 50.2344 181.859C50.2344 181.281 50.0781 180.816 49.7656 180.465C49.4609 180.105 49.0273 179.879 48.4648 179.785C48.1836 179.746 47.3398 179.727 45.9336 179.727H43.2266V184.086ZM61.482 194L57.3805 176.82H60.9312L63.5211 188.621L66.6617 176.82H70.7867L73.7984 188.82L76.4352 176.82H79.9273L75.7555 194H72.0758L68.6539 181.156L65.2437 194H61.482ZM88.6203 194V186.77L82.3273 176.82H86.3937L90.4367 183.617L94.3977 176.82H98.3937L92.0773 186.793V194H88.6203ZM115.991 176.75C117.655 176.75 118.955 177.344 119.893 178.531C121.01 179.938 121.569 182.27 121.569 185.527C121.569 188.777 121.006 191.113 119.881 192.535C118.952 193.707 117.655 194.293 115.991 194.293C114.319 194.293 112.971 193.652 111.948 192.371C110.924 191.082 110.412 188.789 110.412 185.492C110.412 182.258 110.975 179.93 112.1 178.508C113.03 177.336 114.327 176.75 115.991 176.75ZM115.991 179.48C115.592 179.48 115.237 179.609 114.924 179.867C114.612 180.117 114.37 180.57 114.198 181.227C113.971 182.078 113.858 183.512 113.858 185.527C113.858 187.543 113.959 188.93 114.162 189.688C114.366 190.438 114.62 190.938 114.924 191.188C115.237 191.438 115.592 191.562 115.991 191.562C116.389 191.562 116.745 191.438 117.057 191.188C117.37 190.93 117.612 190.473 117.784 189.816C118.01 188.973 118.123 187.543 118.123 185.527C118.123 183.512 118.022 182.129 117.819 181.379C117.616 180.621 117.358 180.117 117.045 179.867C116.741 179.609 116.389 179.48 115.991 179.48ZM137.305 190.941V194H125.762C125.887 192.844 126.262 191.75 126.887 190.719C127.512 189.68 128.746 188.305 130.59 186.594C132.074 185.211 132.984 184.273 133.32 183.781C133.773 183.102 134 182.43 134 181.766C134 181.031 133.801 180.469 133.402 180.078C133.012 179.68 132.469 179.48 131.773 179.48C131.086 179.48 130.539 179.688 130.133 180.102C129.727 180.516 129.492 181.203 129.43 182.164L126.148 181.836C126.344 180.023 126.957 178.723 127.988 177.934C129.02 177.145 130.309 176.75 131.855 176.75C133.551 176.75 134.883 177.207 135.852 178.121C136.82 179.035 137.305 180.172 137.305 181.531C137.305 182.305 137.164 183.043 136.883 183.746C136.609 184.441 136.172 185.172 135.57 185.938C135.172 186.445 134.453 187.176 133.414 188.129C132.375 189.082 131.715 189.715 131.434 190.027C131.16 190.34 130.938 190.645 130.766 190.941H137.305Z" fill="white"/>
</svg>
