<svg width="234" height="317" viewBox="0 0 234 317" fill="none" xmlns="http://www.w3.org/2000/svg">
<path d="M57.8667 1.22504C50 3.75837 40.9333 11.8917 36.8 20.025C30.4 32.6917 30.1333 57.0917 36.5333 64.425L39.4667 68.025L36.9333 73.0917C34.6667 77.625 34.2667 82.9584 33.2 113.358C32.6667 132.558 32.1333 133.916 32 140.583V152.983H17.6C8.13333 152.983 2.66667 153.516 1.6 154.583C0.666667 155.516 0 160.45 0 167.116C0 178.716 1.6 181.916 6.53333 180.583C9.06667 179.916 9.2 180.983 9.6 205.516C9.80395 218.025 9.73333 216.192 7.73333 219.658C4.93333 224.325 4.53333 237.525 6.8 242.058C10.9333 250.058 17.6 254.725 27.2 256.192L32.4 256.992L32.1333 284.992C32 300.325 32.4 313.792 33.0667 314.725C33.8667 315.925 37.6 316.325 46.8 316.058L59.3333 315.658L59.7333 288.592L60 261.658L63.0667 262.325C82.1333 266.725 151.6 266.725 171.6 262.325L174.667 261.658L174.933 288.592L175.333 315.658H188H200.667L201.333 286.325C201.867 261.658 202.267 256.992 204 256.725C213.733 255.525 216.667 254.325 221.2 250.192C229.6 242.725 231.6 228.325 225.6 218.458C223.6 215.125 223.68 217.025 224 205.116C224.533 185.25 225.067 180.45 226.533 180.716C227.467 180.85 229.467 180.716 230.8 180.316C233.2 179.516 233.333 178.316 233.067 166.583L232.667 153.65L217.733 153.25L202.667 152.85V140.583C202.667 133.783 202 132.558 201.333 113.225C200.267 82.2917 199.867 77.4917 197.467 72.6917C194.933 67.3583 194.933 67.225 197.467 64.5583C200.933 60.825 201.733 55.225 201.067 39.8917C200.4 24.9584 196.933 16.425 188.8 9.22504C178.133 -0.108297 181.333 0.291691 118.667 0.0250244C82.8 -0.108309 60.5333 0.291703 57.8667 1.22504ZM176 10.825C188.8 17.625 192 24.1584 192 43.4917C192 57.625 191.867 58.1584 188.533 60.825C186.533 62.425 184.4 63.625 183.867 63.625C183.2 63.625 182.667 57.0917 182.8 49.0917C182.933 32.1584 180.533 24.825 173.2 19.3584C165.067 13.3584 162 12.9583 117.333 12.9583C71.0667 12.9583 67.2 13.4917 59.4667 20.6917C52.6667 27.0917 50.6667 33.3584 50.6667 49.3584V63.7584L46.8 61.7584C41.7333 59.0917 41.3333 57.625 41.3333 43.4917C41.3333 26.6917 45.7333 17.7584 56.6667 11.8917C63.7333 8.15836 69.2 7.89169 120.667 8.02502C167.333 8.29169 171.733 8.42501 176 10.825ZM78.6667 49.625V76.9584H72.6667C68 76.9584 65.7333 76.1584 63.3333 73.625C60.1333 70.5584 60 69.7584 60 52.5583C60 32.825 60.9333 30.2917 69.8667 24.825C78.6667 19.3583 78.6667 19.225 78.6667 49.625ZM146.933 49.625L146.533 76.9584H116.667H86.6667V49.625V22.2917H117.067H147.333L146.933 49.625ZM164.933 24.9584C172.8 29.625 174 33.0917 174.4 51.625C174.933 68.2917 174.933 68.5583 171.333 72.6917C168.267 76.2917 166.8 76.9584 161.867 76.9584H156V49.625C156 19.225 155.867 19.3584 164.933 24.9584ZM53.8667 75.3584C54.9333 77.4917 56.8 79.8917 57.8667 80.8251C59.7333 82.4251 60 71.9162 60 145.25V212.592L57.0667 211.925C55.3333 211.525 50.5333 210.725 46.1333 210.192L38.4 209.258L39.2 204.45C39.6 193.383 40.6667 158.183 41.3333 126.316C42.9333 61.1162 43.2 77.7584 46.8 74.1584C50.2667 70.6917 51.6 70.9584 53.8667 75.3584ZM187.6 73.625C189.2 74.6917 190.8 77.2251 191.2 79.3584C191.6 81.3584 192.533 89.6496 193.2 122.316C194 154.983 194.933 191.383 195.333 203.116L196.133 209.258L189.067 210.192C185.2 210.725 180.267 211.392 178 211.792L174 212.458L174.267 145.516C174.667 66.9829 174.8 83.0917 177.2 80.425C178.533 78.825 180.4 76.2917 181.2 74.5583C183.067 71.0917 183.867 70.9584 187.6 73.625ZM165.333 147.516V213.258L157.733 214.192C126 217.658 66.9333 215.792 68.6667 211.392C69.0667 210.325 69.3333 188.983 69.3333 145.25V85.625L117.333 86.025L165.333 86.2917V147.516ZM32 166.983V171.65H20.6667H9.33333V166.983V162.316H20.6667H32V166.983ZM225.333 166.983V171.65H214H202.667V166.983V162.316H214H225.333V166.983ZM30.6667 181.516C30.6667 181.916 30.6667 191.25 30.6667 202.316V206.992H24.6667H18.6667V201.25V180.316L24.6667 180.45C28 180.583 30.6667 180.983 30.6667 181.516ZM215.733 201.516L216.133 206.992H210H204V201.25V180.316L209.6 180.45L215.333 180.583L215.733 201.516ZM60 221.125C80.6667 224.058 89.6 224.725 115.333 224.725C146.933 224.725 159.333 223.792 190.933 218.858C208 216.058 209.333 216.058 212.533 218.058C217.733 221.525 220.4 227.792 219.6 234.725C218.667 243.658 215.867 245.525 199.867 248.458C168.8 254.192 153.467 255.525 117.333 255.525C80.8 255.658 64 254.192 33.6 248.325C16.5333 244.992 13.7333 242.192 14.6667 228.992C15.2 220.858 21.6 215.925 30 216.992C32.9333 217.392 46.4 219.258 60 221.125ZM49.0667 260.325C50.2667 260.325 50.6667 265.925 50.6667 284.058V307.792H46H41.3333V283.258V258.725L44.4 259.525C46 259.925 48.1333 260.325 49.0667 260.325ZM192.4 283.258L192.133 307.525H187.733H183.333L182.933 284.058L182.667 260.458L186.267 259.925C188.4 259.658 190.667 259.258 191.333 259.125C192.133 259.125 192.533 267.658 192.4 283.258Z" fill="black"/>
<path d="M60 221.125C80.6667 224.058 89.6 224.725 115.333 224.725C146.933 224.725 159.333 223.792 190.933 218.858C208 216.058 209.333 216.058 212.533 218.058C217.733 221.525 220.4 227.792 219.6 234.725C218.667 243.658 215.867 245.525 199.867 248.458C168.8 254.192 153.467 255.525 117.333 255.525C80.8 255.658 64 254.192 33.6 248.325C16.5333 244.992 13.7333 242.192 14.6667 228.992C15.2 220.858 21.6 215.925 30 216.992C32.9333 217.392 46.4 219.258 60 221.125Z" fill="#A8A8A8"/>
<path d="M165.333 147.516V213.258L157.733 214.192C126 217.658 66.9333 215.792 68.6667 211.392C69.0667 210.325 69.3333 188.983 69.3333 145.25V85.625L117.333 86.025L165.333 86.2917V147.516Z" fill="#A8A8A8"/>
<path d="M53.8667 75.3584C54.9333 77.4917 56.8 79.8917 57.8667 80.8251C59.7333 82.4251 60 71.9162 60 145.25V212.592L57.0667 211.925C55.3333 211.525 50.5333 210.725 46.1333 210.192L38.4 209.258L39.2 204.45C39.6 193.383 40.6667 158.183 41.3333 126.316C42.9333 61.1162 43.2 77.7584 46.8 74.1584C50.2667 70.6917 51.6 70.9584 53.8667 75.3584Z" fill="#A8A8A8"/>
<path d="M32 166.983V171.65H20.6667H9.33333V166.983V162.316H20.6667H32V166.983Z" fill="#A8A8A8"/>
<path d="M187.6 73.625C189.2 74.6917 190.8 77.2251 191.2 79.3584C191.6 81.3584 192.533 89.6496 193.2 122.316C194 154.983 194.933 191.383 195.333 203.116L196.133 209.258L189.067 210.192C185.2 210.725 180.267 211.392 178 211.792L174 212.458L174.267 145.516C174.667 66.9829 174.8 83.0917 177.2 80.425C178.533 78.825 180.4 76.2917 181.2 74.5583C183.067 71.0917 183.867 70.9584 187.6 73.625Z" fill="#A8A8A8"/>
<path d="M225.333 166.983V171.65H214H202.667V166.983V162.316H214H225.333V166.983Z" fill="#A8A8A8"/>
<path d="M192.4 283.258L192.133 307.525H187.733H183.333L182.933 284.058L182.667 260.458L186.267 259.925C188.4 259.658 190.667 259.258 191.333 259.125C192.133 259.125 192.533 267.658 192.4 283.258Z" fill="#A8A8A8"/>
<path d="M49.0667 260.325C50.2667 260.325 50.6667 265.925 50.6667 284.058V307.792H46H41.3333V283.258V258.725L44.4 259.525C46 259.925 48.1333 260.325 49.0667 260.325Z" fill="#A8A8A8"/>
<path d="M78.6667 49.625V76.9584H72.6667C68 76.9584 65.7333 76.1584 63.3333 73.625C60.1333 70.5584 60 69.7584 60 52.5583C60 32.825 60.9333 30.2917 69.8667 24.825C78.6667 19.3583 78.6667 19.225 78.6667 49.625Z" fill="#A8A8A8"/>
<path d="M146.933 49.625L146.533 76.9584H116.667H86.6667V49.625V22.2917H117.067H147.333L146.933 49.625Z" fill="#A8A8A8"/>
<path d="M164.933 24.9584C172.8 29.625 174 33.0917 174.4 51.625C174.933 68.2917 174.933 68.5583 171.333 72.6917C168.267 76.2917 166.8 76.9584 161.867 76.9584H156V49.625C156 19.225 155.867 19.3584 164.933 24.9584Z" fill="#A8A8A8"/>
<path d="M176 10.825C188.8 17.625 192 24.1584 192 43.4917C192 57.625 191.867 58.1584 188.533 60.825C186.533 62.425 184.4 63.625 183.867 63.625C183.2 63.625 182.667 57.0917 182.8 49.0917C182.933 32.1584 180.533 24.825 173.2 19.3584C165.067 13.3584 162 12.9583 117.333 12.9583C71.0667 12.9583 67.2 13.4917 59.4667 20.6917C52.6667 27.0917 50.6667 33.3584 50.6667 49.3584V63.7584L46.8 61.7584C41.7333 59.0917 41.3333 57.625 41.3333 43.4917C41.3333 26.6917 45.7333 17.7584 56.6667 11.8917C63.7333 8.15836 69.2 7.89169 120.667 8.02502C167.333 8.29169 171.733 8.42501 176 10.825Z" fill="#A8A8A8"/>
</svg>
