<svg width="234" height="318" viewBox="0 0 234 318" fill="none" xmlns="http://www.w3.org/2000/svg">
<path d="M57.8667 2.20001C50 4.73335 40.9333 12.8667 36.8 21C30.4 33.6667 30.1333 58.0667 36.5333 65.4L39.4667 69L36.9333 74.0667C34.6667 78.6 34.2667 83.9333 33.2 114.333C32.6667 133.533 32.1333 134.891 32 141.558V153.958H17.6C8.13333 153.958 2.66667 154.491 1.6 155.558C0.666667 156.491 0 161.425 0 168.091C0 179.691 1.6 182.891 6.53333 181.558C9.06667 180.891 9.2 181.958 9.6 206.491C9.80395 219 9.73333 217.167 7.73333 220.633C4.93333 225.3 4.53333 238.5 6.8 243.033C10.9333 251.033 17.6 255.7 27.2 257.167L32.4 257.967L32.1333 285.967C32 301.3 32.4 314.767 33.0667 315.7C33.8667 316.9 37.6 317.3 46.8 317.033L59.3333 316.633L59.7333 289.567L60 262.633L63.0667 263.3C82.1333 267.7 151.6 267.7 171.6 263.3L174.667 262.633L174.933 289.567L175.333 316.633H188H200.667L201.333 287.3C201.867 262.633 202.267 257.967 204 257.7C213.733 256.5 216.667 255.3 221.2 251.167C229.6 243.7 231.6 229.3 225.6 219.433C223.6 216.1 223.68 218 224 206.091C224.533 186.225 225.067 181.425 226.533 181.691C227.467 181.825 229.467 181.691 230.8 181.291C233.2 180.491 233.333 179.291 233.067 167.558L232.667 154.625L217.733 154.225L202.667 153.825V141.558C202.667 134.758 202 133.533 201.333 114.2C200.267 83.2667 199.867 78.4667 197.467 73.6667C194.933 68.3333 194.933 68.2 197.467 65.5333C200.933 61.8 201.733 56.2 201.067 40.8667C200.4 25.9333 196.933 17.4 188.8 10.2C178.133 0.866678 181.333 1.26667 118.667 1C82.8 0.866667 60.5333 1.26668 57.8667 2.20001ZM176 11.8C188.8 18.6 192 25.1333 192 44.4667C192 58.6 191.867 59.1334 188.533 61.8C186.533 63.4 184.4 64.6 183.867 64.6C183.2 64.6 182.667 58.0667 182.8 50.0667C182.933 33.1333 180.533 25.8 173.2 20.3333C165.067 14.3333 162 13.9333 117.333 13.9333C71.0667 13.9333 67.2 14.4667 59.4667 21.6667C52.6667 28.0667 50.6667 34.3333 50.6667 50.3333V64.7333L46.8 62.7333C41.7333 60.0667 41.3333 58.6 41.3333 44.4667C41.3333 27.6667 45.7333 18.7333 56.6667 12.8667C63.7333 9.13334 69.2 8.86667 120.667 9C167.333 9.26667 171.733 9.39999 176 11.8ZM78.6667 50.6V77.9333H72.6667C68 77.9333 65.7333 77.1333 63.3333 74.6C60.1333 71.5333 60 70.7333 60 53.5333C60 33.8 60.9333 31.2667 69.8667 25.8C78.6667 20.3333 78.6667 20.2 78.6667 50.6ZM146.933 50.6L146.533 77.9333H116.667H86.6667V50.6V23.2667H117.067H147.333L146.933 50.6ZM164.933 25.9333C172.8 30.6 174 34.0667 174.4 52.6C174.933 69.2667 174.933 69.5333 171.333 73.6667C168.267 77.2667 166.8 77.9333 161.867 77.9333H156V50.6C156 20.2 155.867 20.3333 164.933 25.9333ZM53.8667 76.3333C54.9333 78.4667 56.8 80.8667 57.8667 81.8C59.7333 83.4 60 72.8912 60 146.225V213.567L57.0667 212.9C55.3333 212.5 50.5333 211.7 46.1333 211.167L38.4 210.233L39.2 205.425C39.6 194.358 40.6667 159.158 41.3333 127.291C42.9333 62.0912 43.2 78.7333 46.8 75.1333C50.2667 71.6667 51.6 71.9333 53.8667 76.3333ZM187.6 74.6C189.2 75.6667 190.8 78.2 191.2 80.3334C191.6 82.3334 192.533 90.6245 193.2 123.291C194 155.958 194.933 192.358 195.333 204.091L196.133 210.233L189.067 211.167C185.2 211.7 180.267 212.367 178 212.767L174 213.433L174.267 146.491C174.667 67.9579 174.8 84.0667 177.2 81.4C178.533 79.8 180.4 77.2667 181.2 75.5333C183.067 72.0667 183.867 71.9333 187.6 74.6ZM165.333 148.491V214.233L157.733 215.167C126 218.633 66.9333 216.767 68.6667 212.367C69.0667 211.3 69.3333 189.958 69.3333 146.225V86.6L117.333 87L165.333 87.2667V148.491ZM32 167.958V172.625H20.6667H9.33333V167.958V163.291H20.6667H32V167.958ZM225.333 167.958V172.625H214H202.667V167.958V163.291H214H225.333V167.958ZM30.6667 182.491C30.6667 182.891 30.6667 192.225 30.6667 203.291V207.967H24.6667H18.6667V202.225V181.291L24.6667 181.425C28 181.558 30.6667 181.958 30.6667 182.491ZM215.733 202.491L216.133 207.967H210H204V202.225V181.291L209.6 181.425L215.333 181.558L215.733 202.491ZM60 222.1C80.6667 225.033 89.6 225.7 115.333 225.7C146.933 225.7 159.333 224.767 190.933 219.833C208 217.033 209.333 217.033 212.533 219.033C217.733 222.5 220.4 228.767 219.6 235.7C218.667 244.633 215.867 246.5 199.867 249.433C168.8 255.167 153.467 256.5 117.333 256.5C80.8 256.633 64 255.167 33.6 249.3C16.5333 245.967 13.7333 243.167 14.6667 229.967C15.2 221.833 21.6 216.9 30 217.967C32.9333 218.367 46.4 220.233 60 222.1ZM49.0667 261.3C50.2667 261.3 50.6667 266.9 50.6667 285.033V308.767H46H41.3333V284.233V259.7L44.4 260.5C46 260.9 48.1333 261.3 49.0667 261.3ZM192.4 284.233L192.133 308.5H187.733H183.333L182.933 285.033L182.667 261.433L186.267 260.9C188.4 260.633 190.667 260.233 191.333 260.1C192.133 260.1 192.533 268.633 192.4 284.233Z" fill="black"/>
<path d="M60 222.1C80.6667 225.033 89.6 225.7 115.333 225.7C146.933 225.7 159.333 224.767 190.933 219.833C208 217.033 209.333 217.033 212.533 219.033C217.733 222.5 220.4 228.767 219.6 235.7C218.667 244.633 215.867 246.5 199.867 249.433C168.8 255.167 153.467 256.5 117.333 256.5C80.8 256.633 64 255.167 33.6 249.3C16.5333 245.967 13.7333 243.167 14.6667 229.967C15.2 221.833 21.6 216.9 30 217.967C32.9333 218.367 46.4 220.233 60 222.1Z" fill="#474747"/>
<path d="M165.333 148.491V214.233L157.733 215.167C126 218.633 66.9333 216.767 68.6667 212.367C69.0667 211.3 69.3333 189.958 69.3333 146.225V86.6L117.333 87L165.333 87.2667V148.491Z" fill="#474747"/>
<path d="M53.8667 76.3333C54.9333 78.4667 56.8 80.8667 57.8667 81.8C59.7333 83.4 60 72.8912 60 146.225V213.567L57.0667 212.9C55.3333 212.5 50.5333 211.7 46.1333 211.167L38.4 210.233L39.2 205.425C39.6 194.358 40.6667 159.158 41.3333 127.291C42.9333 62.0912 43.2 78.7333 46.8 75.1333C50.2667 71.6667 51.6 71.9333 53.8667 76.3333Z" fill="#474747"/>
<path d="M32 167.958V172.625H20.6667H9.33333V167.958V163.291H20.6667H32V167.958Z" fill="#474747"/>
<path d="M187.6 74.6C189.2 75.6667 190.8 78.2 191.2 80.3334C191.6 82.3334 192.533 90.6245 193.2 123.291C194 155.958 194.933 192.358 195.333 204.091L196.133 210.233L189.067 211.167C185.2 211.7 180.267 212.367 178 212.767L174 213.433L174.267 146.491C174.667 67.9579 174.8 84.0667 177.2 81.4C178.533 79.8 180.4 77.2667 181.2 75.5333C183.067 72.0667 183.867 71.9333 187.6 74.6Z" fill="#474747"/>
<path d="M225.333 167.958V172.625H214H202.667V167.958V163.291H214H225.333V167.958Z" fill="#474747"/>
<path d="M192.4 284.233L192.133 308.5H187.733H183.333L182.933 285.033L182.667 261.433L186.267 260.9C188.4 260.633 190.667 260.233 191.333 260.1C192.133 260.1 192.533 268.633 192.4 284.233Z" fill="#474747"/>
<path d="M49.0667 261.3C50.2667 261.3 50.6667 266.9 50.6667 285.033V308.767H46H41.3333V284.233V259.7L44.4 260.5C46 260.9 48.1333 261.3 49.0667 261.3Z" fill="#474747"/>
<path d="M78.6667 50.6V77.9333H72.6667C68 77.9333 65.7333 77.1333 63.3333 74.6C60.1333 71.5333 60 70.7333 60 53.5333C60 33.8 60.9333 31.2667 69.8667 25.8C78.6667 20.3333 78.6667 20.2 78.6667 50.6Z" fill="#474747"/>
<path d="M146.933 50.6L146.533 77.9333H116.667H86.6667V50.6V23.2667H117.067H147.333L146.933 50.6Z" fill="#474747"/>
<path d="M164.933 25.9333C172.8 30.6 174 34.0667 174.4 52.6C174.933 69.2667 174.933 69.5333 171.333 73.6667C168.267 77.2667 166.8 77.9333 161.867 77.9333H156V50.6C156 20.2 155.867 20.3333 164.933 25.9333Z" fill="#474747"/>
<path d="M176 11.8C188.8 18.6 192 25.1333 192 44.4667C192 58.6 191.867 59.1334 188.533 61.8C186.533 63.4 184.4 64.6 183.867 64.6C183.2 64.6 182.667 58.0667 182.8 50.0667C182.933 33.1333 180.533 25.8 173.2 20.3333C165.067 14.3333 162 13.9333 117.333 13.9333C71.0667 13.9333 67.2 14.4667 59.4667 21.6667C52.6667 28.0667 50.6667 34.3333 50.6667 50.3333V64.7333L46.8 62.7333C41.7333 60.0667 41.3333 58.6 41.3333 44.4667C41.3333 27.6667 45.7333 18.7333 56.6667 12.8667C63.7333 9.13334 69.2 8.86667 120.667 9C167.333 9.26667 171.733 9.39999 176 11.8Z" fill="#474747"/>
</svg>
