<svg width="89" height="72" viewBox="0 0 89 72" fill="none" xmlns="http://www.w3.org/2000/svg">
<path d="M69.6522 25C71.8696 25 80 26.7927 80 34.9878C80 36.4673 79.743 37.7716 79.3219 38.9156C76.9449 45.3723 68.5988 46 61.7185 46H29" stroke="aliceblue" stroke-width="4" stroke-linecap="round"/>
<path d="M19.1053 36C16.9398 36 9 37.7073 9 45.5122C9 46.8717 9.2336 48.0758 9.61943 49.1374C11.9155 55.455 20.1319 56 26.8538 56H73" stroke="aliceblue" stroke-width="4" stroke-linecap="round"/>
<path d="M7 65H82" stroke="aliceblue" stroke-width="4" stroke-linecap="round"/>
<path d="M46 10C46 8.89543 45.1046 8 44 8C42.8954 8 42 8.89543 42 10H46ZM42.5858 37.4142C43.3668 38.1953 44.6332 38.1953 45.4142 37.4142L58.1421 24.6863C58.9232 23.9052 58.9232 22.6389 58.1421 21.8579C57.3611 21.0768 56.0948 21.0768 55.3137 21.8579L44 33.1716L32.6863 21.8579C31.9052 21.0768 30.6389 21.0768 29.8579 21.8579C29.0768 22.6389 29.0768 23.9052 29.8579 24.6863L42.5858 37.4142ZM44 10H42V36H44H46V10H44Z" fill="aliceblue"/>
</svg>
