<svg width="85" height="94" viewBox="0 0 85 94" fill="none" xmlns="http://www.w3.org/2000/svg">
<path d="M67.6522 37C69.8696 37 78 38.7927 78 46.9878C78 48.4673 77.743 49.7716 77.3219 50.9156C74.9449 57.3723 66.5988 58 59.7185 58H27" stroke="white" stroke-width="6" stroke-linecap="round"/>
<path d="M17.1053 54C14.9398 54 7 55.7073 7 63.5122C7 64.8717 7.2336 66.0758 7.61943 67.1374C9.9155 73.455 18.1319 74 24.8538 74H71" stroke="white" stroke-width="6" stroke-linecap="round"/>
<path d="M5 86H80" stroke="#2A3B4D" stroke-width="6" stroke-linecap="round"/>
<path d="M27 66L71 66" stroke="white" stroke-width="6" stroke-linecap="round"/>
<g clip-path="url(#clip0_221_311)">
<path d="M54.9127 47.6413L51.2041 32.8062C51.0112 32.0349 50.3693 31.5001 49.6365 31.5001H46.5769C46.7582 30.9898 46.8755 30.4479 46.8755 29.8751C46.8755 27.1826 44.6929 25 42.0005 25C39.3081 25 37.1255 27.1826 37.1255 29.8751C37.1255 30.4479 37.2423 30.9898 37.4241 31.5001H34.3645C33.6317 31.5001 32.9893 32.0354 32.7969 32.8062L29.0873 47.6413C28.6643 49.3328 29.8318 51 31.439 51H52.5615C54.1682 51 55.3357 49.3328 54.9127 47.6413ZM42 31.4996C41.1042 31.4996 40.375 30.7704 40.375 29.8746C40.375 28.9788 41.1042 28.2496 42 28.2496C42.8958 28.2496 43.625 28.9788 43.625 29.8746C43.625 30.7704 42.8958 31.4996 42 31.4996Z" fill="white"/>
</g>
<defs>
<clipPath id="clip0_221_311">
<rect width="36" height="36" fill="white" transform="translate(24 20)"/>
</clipPath>
</defs>
</svg>
