<svg width="85" height="94" viewBox="0 0 85 94" fill="none" xmlns="http://www.w3.org/2000/svg">
<path d="M67.6522 37C69.8696 37 78 38.7927 78 46.9878C78 48.4673 77.743 49.7716 77.3219 50.9156C74.9449 57.3723 66.5988 58 59.7185 58H27" stroke="white" stroke-width="6" stroke-linecap="round"/>
<path d="M17.1053 54C14.9398 54 7 55.7073 7 63.5122C7 64.8717 7.2336 66.0758 7.61943 67.1374C9.9155 73.455 18.1319 74 24.8538 74H71" stroke="white" stroke-width="6" stroke-linecap="round"/>
<path d="M5 86H80" stroke="#2A3B4D" stroke-width="6" stroke-linecap="round"/>
<path d="M27 66L71 66" stroke="white" stroke-width="6" stroke-linecap="round"/>
<path d="M45 7C45 5.34315 43.6569 4 42 4C40.3431 4 39 5.34315 39 7H45ZM39.8787 49.1213C41.0503 50.2929 42.9497 50.2929 44.1213 49.1213L63.2132 30.0294C64.3848 28.8579 64.3848 26.9584 63.2132 25.7868C62.0416 24.6152 60.1421 24.6152 58.9706 25.7868L42 42.7574L25.0294 25.7868C23.8579 24.6152 21.9584 24.6152 20.7868 25.7868C19.6152 26.9584 19.6152 28.8579 20.7868 30.0294L39.8787 49.1213ZM42 7H39V47H42H45V7H42Z" fill="white"/>
</svg>
